<svg width="316" height="387" viewBox="0 0 316 387" fill="none" xmlns="http://www.w3.org/2000/svg">
<rect x="0.637057" y="57.6371" width="314.726" height="328.726" rx="15.3629" fill="white"/>
<rect x="0.637057" y="57.6371" width="314.726" height="328.726" rx="15.3629" stroke="#E0E0E0" stroke-width="1.27411"/>
<path d="M129.948 99.1818C129.948 100.409 129.726 101.47 129.283 102.364C128.84 103.258 128.232 103.947 127.459 104.432C126.686 104.917 125.804 105.159 124.811 105.159C123.819 105.159 122.936 104.917 122.164 104.432C121.391 103.947 120.783 103.258 120.34 102.364C119.896 101.47 119.675 100.409 119.675 99.1818C119.675 97.9545 119.896 96.8939 120.34 96C120.783 95.1061 121.391 94.4167 122.164 93.9318C122.936 93.447 123.819 93.2045 124.811 93.2045C125.804 93.2045 126.686 93.447 127.459 93.9318C128.232 94.4167 128.84 95.1061 129.283 96C129.726 96.8939 129.948 97.9545 129.948 99.1818ZM128.584 99.1818C128.584 98.1742 128.415 97.3239 128.078 96.6307C127.745 95.9375 127.292 95.4129 126.72 95.0568C126.152 94.7008 125.516 94.5227 124.811 94.5227C124.107 94.5227 123.468 94.7008 122.896 95.0568C122.328 95.4129 121.876 95.9375 121.539 96.6307C121.205 97.3239 121.039 98.1742 121.039 99.1818C121.039 100.189 121.205 101.04 121.539 101.733C121.876 102.426 122.328 102.951 122.896 103.307C123.468 103.663 124.107 103.841 124.811 103.841C125.516 103.841 126.152 103.663 126.72 103.307C127.292 102.951 127.745 102.426 128.078 101.733C128.415 101.04 128.584 100.189 128.584 99.1818ZM132.135 105V96.2727H133.476V100.068H134.362L137.499 96.2727H139.226L135.703 100.477L139.271 105H137.544L134.681 101.318H133.476V105H132.135ZM140.229 97.5227V96.2727H147.32V97.5227H144.456V105H143.115V97.5227H140.229ZM154.526 105V97.5H152.208C151.685 97.5 151.274 97.6212 150.975 97.8636C150.675 98.1061 150.526 98.4394 150.526 98.8636C150.526 99.2803 150.66 99.608 150.929 99.8466C151.202 100.085 151.575 100.205 152.048 100.205H154.867V101.455H152.048C151.458 101.455 150.948 101.35 150.52 101.142C150.092 100.934 149.762 100.636 149.531 100.25C149.3 99.8598 149.185 99.3977 149.185 98.8636C149.185 98.3258 149.306 97.8636 149.548 97.4773C149.791 97.0909 150.137 96.7936 150.588 96.5852C151.043 96.3769 151.583 96.2727 152.208 96.2727H155.798V105H154.526ZM148.708 105L151.185 100.659H152.639L150.162 105H148.708ZM164.737 93L165.419 93.8182C165.154 94.0758 164.847 94.2557 164.499 94.358C164.15 94.4602 163.756 94.5227 163.317 94.5455C162.878 94.5682 162.389 94.5909 161.851 94.6136C161.245 94.6364 160.743 94.7841 160.345 95.0568C159.948 95.3295 159.641 95.7235 159.425 96.2386C159.209 96.7538 159.071 97.3864 159.01 98.1364H159.124C159.419 97.5909 159.828 97.1894 160.351 96.9318C160.874 96.6742 161.434 96.5455 162.033 96.5455C162.715 96.5455 163.328 96.7045 163.874 97.0227C164.419 97.3409 164.851 97.8125 165.169 98.4375C165.487 99.0625 165.646 99.8333 165.646 100.75C165.646 101.663 165.484 102.451 165.158 103.114C164.836 103.777 164.383 104.288 163.8 104.648C163.22 105.004 162.54 105.182 161.76 105.182C160.98 105.182 160.296 104.998 159.709 104.631C159.122 104.259 158.665 103.71 158.34 102.983C158.014 102.252 157.851 101.348 157.851 100.273V99.3409C157.851 97.3977 158.181 95.9242 158.84 94.9205C159.503 93.9167 160.499 93.3977 161.828 93.3636C162.298 93.3485 162.717 93.3447 163.084 93.3523C163.451 93.3598 163.771 93.3428 164.044 93.3011C164.317 93.2595 164.548 93.1591 164.737 93ZM161.76 103.977C162.287 103.977 162.739 103.845 163.118 103.58C163.501 103.314 163.794 102.941 163.999 102.46C164.203 101.975 164.306 101.405 164.306 100.75C164.306 100.114 164.201 99.572 163.993 99.125C163.789 98.678 163.495 98.3371 163.112 98.1023C162.73 97.8674 162.271 97.75 161.737 97.75C161.347 97.75 160.997 97.8163 160.686 97.9489C160.376 98.0814 160.11 98.2765 159.891 98.5341C159.671 98.7917 159.501 99.1061 159.379 99.4773C159.262 99.8485 159.2 100.273 159.192 100.75C159.192 101.727 159.421 102.509 159.879 103.097C160.338 103.684 160.965 103.977 161.76 103.977ZM167.698 108.273V96.2727H168.993V97.6591H169.152C169.251 97.5076 169.387 97.3144 169.561 97.0795C169.739 96.8409 169.993 96.6288 170.323 96.4432C170.656 96.2538 171.107 96.1591 171.675 96.1591C172.41 96.1591 173.057 96.3428 173.618 96.7102C174.179 97.0777 174.616 97.5985 174.931 98.2727C175.245 98.947 175.402 99.7424 175.402 100.659C175.402 101.583 175.245 102.384 174.931 103.062C174.616 103.737 174.181 104.259 173.624 104.631C173.067 104.998 172.425 105.182 171.698 105.182C171.137 105.182 170.688 105.089 170.351 104.903C170.014 104.714 169.754 104.5 169.573 104.261C169.391 104.019 169.251 103.818 169.152 103.659H169.039V108.273H167.698ZM169.016 100.636C169.016 101.295 169.112 101.877 169.306 102.381C169.499 102.881 169.781 103.273 170.152 103.557C170.523 103.837 170.978 103.977 171.516 103.977C172.076 103.977 172.544 103.83 172.919 103.534C173.298 103.235 173.582 102.833 173.771 102.33C173.965 101.822 174.061 101.258 174.061 100.636C174.061 100.023 173.967 99.4697 173.777 98.9773C173.592 98.4811 173.309 98.089 172.931 97.8011C172.556 97.5095 172.084 97.3636 171.516 97.3636C170.97 97.3636 170.512 97.5019 170.141 97.7784C169.77 98.0511 169.489 98.4337 169.3 98.9261C169.11 99.4148 169.016 99.9848 169.016 100.636ZM178.607 99.4318H181.107C182.129 99.4318 182.912 99.6913 183.453 100.21C183.995 100.729 184.266 101.386 184.266 102.182C184.266 102.705 184.145 103.18 183.902 103.608C183.66 104.032 183.304 104.371 182.834 104.625C182.364 104.875 181.789 105 181.107 105H177.448V96.2727H178.789V103.75H181.107C181.637 103.75 182.073 103.61 182.414 103.33C182.754 103.049 182.925 102.689 182.925 102.25C182.925 101.788 182.754 101.411 182.414 101.119C182.073 100.828 181.637 100.682 181.107 100.682H178.607V99.4318Z" fill="#333333"/>
<path d="M49.8025 136.727V144H48.9218V137.509H45.257V144H44.3763V136.727H49.8025ZM55.1159 140.889V141.67H52.1045V140.889H55.1159ZM52.3034 138.545V144H51.4653V138.545H52.3034ZM55.7551 138.545V144H54.917V138.545H55.7551Z" fill="#333333"/>
<path d="M80.9578 144V136.727H83.5004C84.0071 136.727 84.4249 136.815 84.754 136.99C85.0831 137.163 85.3281 137.396 85.4891 137.69C85.6501 137.981 85.7306 138.304 85.7306 138.659C85.7306 138.972 85.6749 139.23 85.5637 139.433C85.4548 139.637 85.3103 139.798 85.1304 139.916C84.9529 140.035 84.7599 140.122 84.5516 140.179V140.25C84.7741 140.264 84.9978 140.342 85.2227 140.484C85.4477 140.626 85.6359 140.83 85.7874 141.095C85.9389 141.36 86.0146 141.685 86.0146 142.068C86.0146 142.433 85.9318 142.761 85.7661 143.052C85.6003 143.343 85.3387 143.574 84.9813 143.744C84.6238 143.915 84.1586 144 83.5857 144H80.9578ZM81.8385 143.219H83.5857C84.161 143.219 84.5693 143.107 84.8108 142.885C85.0547 142.66 85.1766 142.388 85.1766 142.068C85.1766 141.822 85.1138 141.595 84.9884 141.386C84.8629 141.176 84.6842 141.008 84.4521 140.882C84.2201 140.754 83.9455 140.69 83.6283 140.69H81.8385V143.219ZM81.8385 139.923H83.472C83.7372 139.923 83.9763 139.871 84.1894 139.767C84.4048 139.663 84.5753 139.516 84.7007 139.327C84.8286 139.137 84.8925 138.915 84.8925 138.659C84.8925 138.339 84.7812 138.068 84.5587 137.846C84.3361 137.621 83.9834 137.509 83.5004 137.509H81.8385V139.923ZM87.0356 139.327V138.545H91.4674V139.327H89.6776V144H88.8396V139.327H87.0356Z" fill="#333333"/>
<path d="M122.048 139H121.168C121.116 138.747 121.024 138.524 120.894 138.332C120.766 138.141 120.61 137.98 120.426 137.849C120.243 137.717 120.041 137.617 119.818 137.551C119.596 137.485 119.364 137.452 119.122 137.452C118.682 137.452 118.283 137.563 117.926 137.786C117.57 138.008 117.287 138.336 117.077 138.769C116.868 139.202 116.764 139.734 116.764 140.364C116.764 140.993 116.868 141.525 117.077 141.958C117.287 142.391 117.57 142.719 117.926 142.942C118.283 143.164 118.682 143.276 119.122 143.276C119.364 143.276 119.596 143.242 119.818 143.176C120.041 143.11 120.243 143.012 120.426 142.881C120.61 142.749 120.766 142.587 120.894 142.395C121.024 142.201 121.116 141.978 121.168 141.727H122.048C121.982 142.099 121.861 142.432 121.686 142.725C121.511 143.019 121.293 143.268 121.033 143.474C120.772 143.678 120.48 143.833 120.156 143.94C119.834 144.046 119.489 144.099 119.122 144.099C118.502 144.099 117.95 143.948 117.467 143.645C116.984 143.342 116.604 142.911 116.328 142.352C116.051 141.794 115.912 141.131 115.912 140.364C115.912 139.597 116.051 138.934 116.328 138.375C116.604 137.816 116.984 137.385 117.467 137.082C117.95 136.779 118.502 136.628 119.122 136.628C119.489 136.628 119.834 136.681 120.156 136.788C120.48 136.894 120.772 137.05 121.033 137.256C121.293 137.46 121.511 137.709 121.686 138.002C121.861 138.293 121.982 138.626 122.048 139ZM123.358 146.045V138.545H124.168V139.412H124.267C124.329 139.317 124.414 139.196 124.523 139.05C124.634 138.901 124.793 138.768 124.998 138.652C125.207 138.534 125.489 138.474 125.844 138.474C126.303 138.474 126.708 138.589 127.058 138.819C127.409 139.049 127.682 139.374 127.878 139.795C128.075 140.217 128.173 140.714 128.173 141.287C128.173 141.865 128.075 142.365 127.878 142.789C127.682 143.21 127.41 143.537 127.062 143.769C126.714 143.999 126.312 144.114 125.858 144.114C125.507 144.114 125.227 144.056 125.016 143.94C124.806 143.821 124.643 143.687 124.53 143.538C124.416 143.387 124.329 143.261 124.267 143.162H124.196V146.045H123.358ZM124.182 141.273C124.182 141.685 124.242 142.048 124.363 142.363C124.484 142.675 124.66 142.92 124.892 143.098C125.124 143.273 125.408 143.361 125.744 143.361C126.095 143.361 126.387 143.268 126.621 143.084C126.858 142.897 127.036 142.646 127.154 142.331C127.275 142.014 127.335 141.661 127.335 141.273C127.335 140.889 127.276 140.544 127.158 140.236C127.042 139.926 126.865 139.681 126.628 139.501C126.394 139.318 126.099 139.227 125.744 139.227C125.403 139.227 125.117 139.314 124.885 139.487C124.653 139.657 124.478 139.896 124.359 140.204C124.241 140.509 124.182 140.866 124.182 141.273Z" fill="#333333"/>
<path d="M152.707 136.727H153.587V139.156C153.587 139.516 153.65 139.799 153.775 140.005C153.901 140.209 154.079 140.353 154.308 140.438C154.538 140.521 154.809 140.562 155.121 140.562C155.318 140.562 155.508 140.555 155.693 140.541C155.878 140.525 156.058 140.502 156.233 140.474C156.41 140.445 156.583 140.411 156.751 140.371C156.922 140.33 157.089 140.286 157.252 140.236V141.031C157.093 141.081 156.936 141.126 156.78 141.166C156.626 141.206 156.465 141.241 156.297 141.269C156.131 141.298 155.952 141.32 155.761 141.337C155.569 141.351 155.356 141.358 155.121 141.358C154.619 141.358 154.187 141.286 153.825 141.141C153.465 140.997 153.188 140.764 152.994 140.442C152.802 140.12 152.707 139.691 152.707 139.156V136.727ZM157.138 136.727H158.019V144H157.138V136.727ZM159.358 139.327V138.545H163.79V139.327H162V144H161.162V139.327H159.358Z" fill="#333333"/>
<path d="M194.042 136.727V144H193.161V137.509H189.496V144H188.616V136.727H194.042ZM195.392 139.327V138.545H199.824V139.327H198.034V144H197.196V139.327H195.392Z" fill="#333333"/>
<path d="M230.146 139H229.265C229.213 138.747 229.122 138.524 228.992 138.332C228.864 138.141 228.708 137.98 228.523 137.849C228.341 137.717 228.138 137.617 227.916 137.551C227.693 137.485 227.461 137.452 227.22 137.452C226.78 137.452 226.381 137.563 226.023 137.786C225.668 138.008 225.385 138.336 225.174 138.769C224.966 139.202 224.862 139.734 224.862 140.364C224.862 140.993 224.966 141.525 225.174 141.958C225.385 142.391 225.668 142.719 226.023 142.942C226.381 143.164 226.78 143.276 227.22 143.276C227.461 143.276 227.693 143.242 227.916 143.176C228.138 143.11 228.341 143.012 228.523 142.881C228.708 142.749 228.864 142.587 228.992 142.395C229.122 142.201 229.213 141.978 229.265 141.727H230.146C230.08 142.099 229.959 142.432 229.784 142.725C229.609 143.019 229.391 143.268 229.13 143.474C228.87 143.678 228.578 143.833 228.253 143.94C227.931 144.046 227.587 144.099 227.22 144.099C226.6 144.099 226.048 143.948 225.565 143.645C225.082 143.342 224.702 142.911 224.425 142.352C224.148 141.794 224.01 141.131 224.01 140.364C224.01 139.597 224.148 138.934 224.425 138.375C224.702 137.816 225.082 137.385 225.565 137.082C226.048 136.779 226.6 136.628 227.22 136.628C227.587 136.628 227.931 136.681 228.253 136.788C228.578 136.894 228.87 137.05 229.13 137.256C229.391 137.46 229.609 137.709 229.784 138.002C229.959 138.293 230.08 138.626 230.146 139ZM235.504 136.5L235.93 137.011C235.764 137.172 235.572 137.285 235.355 137.349C235.137 137.413 234.891 137.452 234.616 137.466C234.341 137.48 234.036 137.494 233.7 137.509C233.321 137.523 233.007 137.615 232.759 137.786C232.51 137.956 232.318 138.202 232.184 138.524C232.049 138.846 231.962 139.241 231.924 139.71H231.995C232.18 139.369 232.436 139.118 232.762 138.957C233.089 138.796 233.439 138.716 233.813 138.716C234.24 138.716 234.623 138.815 234.964 139.014C235.305 139.213 235.575 139.508 235.774 139.898C235.973 140.289 236.072 140.771 236.072 141.344C236.072 141.914 235.97 142.407 235.767 142.821C235.565 143.235 235.282 143.555 234.918 143.78C234.556 144.002 234.131 144.114 233.643 144.114C233.155 144.114 232.728 143.999 232.361 143.769C231.994 143.537 231.709 143.194 231.505 142.739C231.302 142.282 231.2 141.718 231.2 141.045V140.463C231.2 139.249 231.406 138.328 231.818 137.7C232.232 137.073 232.855 136.749 233.686 136.727C233.979 136.718 234.241 136.715 234.47 136.72C234.7 136.725 234.9 136.714 235.071 136.688C235.241 136.662 235.385 136.599 235.504 136.5ZM233.643 143.361C233.972 143.361 234.255 143.278 234.492 143.112C234.731 142.946 234.914 142.713 235.042 142.413C235.17 142.11 235.234 141.753 235.234 141.344C235.234 140.946 235.169 140.607 235.039 140.328C234.911 140.049 234.727 139.836 234.488 139.689C234.249 139.542 233.963 139.469 233.629 139.469C233.385 139.469 233.166 139.51 232.972 139.593C232.778 139.676 232.612 139.798 232.475 139.959C232.337 140.12 232.231 140.316 232.155 140.548C232.082 140.78 232.043 141.045 232.038 141.344C232.038 141.955 232.181 142.443 232.468 142.81C232.754 143.177 233.146 143.361 233.643 143.361Z" fill="#333333"/>
<path d="M260.836 144V136.727H263.378C263.885 136.727 264.303 136.815 264.632 136.99C264.961 137.163 265.206 137.396 265.367 137.69C265.528 137.981 265.608 138.304 265.608 138.659C265.608 138.972 265.553 139.23 265.442 139.433C265.333 139.637 265.188 139.798 265.008 139.916C264.831 140.035 264.638 140.122 264.43 140.179V140.25C264.652 140.264 264.876 140.342 265.101 140.484C265.326 140.626 265.514 140.83 265.665 141.095C265.817 141.36 265.893 141.685 265.893 142.068C265.893 142.433 265.81 142.761 265.644 143.052C265.478 143.343 265.217 143.574 264.859 143.744C264.502 143.915 264.037 144 263.464 144H260.836ZM261.716 143.219H263.464C264.039 143.219 264.447 143.107 264.689 142.885C264.933 142.66 265.055 142.388 265.055 142.068C265.055 141.822 264.992 141.595 264.866 141.386C264.741 141.176 264.562 141.008 264.33 140.882C264.098 140.754 263.823 140.69 263.506 140.69H261.716V143.219ZM261.716 139.923H263.35C263.615 139.923 263.854 139.871 264.067 139.767C264.283 139.663 264.453 139.516 264.579 139.327C264.706 139.137 264.77 138.915 264.77 138.659C264.77 138.339 264.659 138.068 264.437 137.846C264.214 137.621 263.861 137.509 263.378 137.509H261.716V139.923ZM269.442 144.114C268.931 144.114 268.49 143.993 268.121 143.751C267.752 143.51 267.468 143.177 267.269 142.754C267.07 142.33 266.97 141.846 266.97 141.301C266.97 140.747 267.072 140.258 267.276 139.835C267.482 139.408 267.768 139.076 268.135 138.837C268.504 138.595 268.935 138.474 269.428 138.474C269.811 138.474 270.157 138.545 270.465 138.688C270.772 138.83 271.025 139.028 271.221 139.284C271.418 139.54 271.539 139.838 271.587 140.179H270.749C270.685 139.93 270.543 139.71 270.323 139.518C270.105 139.324 269.811 139.227 269.442 139.227C269.115 139.227 268.829 139.312 268.583 139.483C268.339 139.651 268.148 139.889 268.011 140.197C267.876 140.502 267.808 140.861 267.808 141.273C267.808 141.694 267.875 142.061 268.007 142.374C268.142 142.686 268.332 142.929 268.575 143.102C268.822 143.274 269.11 143.361 269.442 143.361C269.66 143.361 269.857 143.323 270.035 143.247C270.213 143.171 270.363 143.062 270.486 142.92C270.609 142.778 270.697 142.608 270.749 142.409H271.587C271.539 142.731 271.422 143.021 271.235 143.279C271.051 143.535 270.806 143.738 270.5 143.89C270.197 144.039 269.844 144.114 269.442 144.114Z" fill="#333333"/>
<path d="M40.3686 194V192.977L44.2095 188.773C44.6603 188.28 45.0315 187.852 45.3232 187.489C45.6148 187.121 45.8307 186.777 45.9709 186.455C46.1148 186.129 46.1868 185.788 46.1868 185.432C46.1868 185.023 46.0883 184.669 45.8913 184.369C45.6982 184.07 45.433 183.839 45.0959 183.676C44.7588 183.513 44.38 183.432 43.9595 183.432C43.5125 183.432 43.1224 183.525 42.7891 183.71C42.4595 183.892 42.2038 184.148 42.022 184.477C41.844 184.807 41.755 185.193 41.755 185.636H40.4141C40.4141 184.955 40.5713 184.356 40.8857 183.841C41.2 183.326 41.6281 182.924 42.1697 182.636C42.7152 182.348 43.3269 182.205 44.005 182.205C44.6868 182.205 45.291 182.348 45.8175 182.636C46.344 182.924 46.7569 183.312 47.0561 183.801C47.3554 184.29 47.505 184.833 47.505 185.432C47.505 185.86 47.4273 186.278 47.272 186.688C47.1205 187.093 46.8554 187.545 46.4766 188.045C46.1016 188.542 45.5807 189.148 44.9141 189.864L42.3004 192.659V192.75H47.7095V194H40.3686ZM53.7607 182.205C54.2379 182.208 54.7152 182.299 55.1925 182.477C55.6697 182.655 56.1054 182.951 56.4993 183.364C56.8932 183.773 57.2095 184.331 57.4482 185.04C57.6868 185.748 57.8061 186.636 57.8061 187.705C57.8061 188.739 57.7076 189.657 57.5107 190.46C57.3175 191.259 57.0372 191.934 56.6697 192.483C56.3061 193.032 55.8629 193.449 55.3402 193.733C54.8213 194.017 54.2341 194.159 53.5788 194.159C52.9273 194.159 52.3459 194.03 51.8345 193.773C51.3269 193.511 50.9103 193.15 50.5845 192.688C50.2625 192.222 50.0561 191.682 49.9652 191.068H51.3516C51.4766 191.602 51.7247 192.044 52.0959 192.392C52.4709 192.737 52.9652 192.909 53.5788 192.909C54.4766 192.909 55.1849 192.517 55.7038 191.733C56.2266 190.949 56.4879 189.841 56.4879 188.409H56.397C56.1849 188.727 55.933 189.002 55.6413 189.233C55.3497 189.464 55.0258 189.642 54.6697 189.767C54.3137 189.892 53.9349 189.955 53.5334 189.955C52.8667 189.955 52.255 189.79 51.6982 189.46C51.1451 189.127 50.7019 188.67 50.3686 188.091C50.0391 187.508 49.8743 186.841 49.8743 186.091C49.8743 185.379 50.0334 184.727 50.3516 184.136C50.6735 183.542 51.1243 183.068 51.7038 182.716C52.2872 182.364 52.9728 182.193 53.7607 182.205ZM53.7607 183.455C53.2834 183.455 52.8535 183.574 52.4709 183.812C52.0921 184.047 51.791 184.366 51.5675 184.767C51.3478 185.165 51.2379 185.606 51.2379 186.091C51.2379 186.576 51.344 187.017 51.5561 187.415C51.772 187.809 52.0656 188.123 52.4368 188.358C52.8118 188.589 53.2379 188.705 53.7152 188.705C54.075 188.705 54.4103 188.634 54.7209 188.494C55.0315 188.35 55.3023 188.155 55.5334 187.909C55.7682 187.659 55.9519 187.377 56.0845 187.062C56.2171 186.744 56.2834 186.413 56.2834 186.068C56.2834 185.614 56.1735 185.187 55.9538 184.79C55.7379 184.392 55.4387 184.07 55.0561 183.824C54.6773 183.578 54.2455 183.455 53.7607 183.455Z" fill="#E0E0E0"/>
<path d="M80.5426 194.159C79.7926 194.159 79.1241 194.03 78.5369 193.773C77.9536 193.515 77.4896 193.157 77.1449 192.699C76.804 192.237 76.6184 191.701 76.5881 191.091H78.0199C78.0502 191.466 78.179 191.79 78.4062 192.062C78.6335 192.331 78.9309 192.54 79.2983 192.688C79.6657 192.835 80.0729 192.909 80.5199 192.909C81.0199 192.909 81.4631 192.822 81.8494 192.648C82.2358 192.473 82.5388 192.231 82.7585 191.92C82.9782 191.61 83.0881 191.25 83.0881 190.841C83.0881 190.413 82.982 190.036 82.7699 189.71C82.5578 189.381 82.2472 189.123 81.8381 188.938C81.429 188.752 80.929 188.659 80.3381 188.659H79.4062V187.409H80.3381C80.8002 187.409 81.2055 187.326 81.554 187.159C81.9063 186.992 82.1809 186.758 82.3778 186.455C82.5786 186.152 82.679 185.795 82.679 185.386C82.679 184.992 82.5919 184.65 82.4176 184.358C82.2434 184.066 81.9972 183.839 81.679 183.676C81.3646 183.513 80.9934 183.432 80.5653 183.432C80.1638 183.432 79.785 183.506 79.429 183.653C79.0767 183.797 78.7888 184.008 78.5653 184.284C78.3419 184.557 78.2206 184.886 78.2017 185.273H76.8381C76.8608 184.663 77.0445 184.129 77.3892 183.67C77.7339 183.208 78.1847 182.848 78.7415 182.591C79.3021 182.333 79.9176 182.205 80.5881 182.205C81.3078 182.205 81.9252 182.35 82.4403 182.642C82.9555 182.93 83.3513 183.311 83.6278 183.784C83.9044 184.258 84.0426 184.769 84.0426 185.318C84.0426 185.973 83.8703 186.532 83.5256 186.994C83.1847 187.456 82.7206 187.777 82.1335 187.955V188.045C82.8684 188.167 83.4422 188.479 83.8551 188.983C84.268 189.483 84.4744 190.102 84.4744 190.841C84.4744 191.473 84.3021 192.042 83.9574 192.545C83.6165 193.045 83.1506 193.439 82.5597 193.727C81.9688 194.015 81.2964 194.159 80.5426 194.159ZM90.5938 194.159C89.7377 194.159 89.0085 193.926 88.4062 193.46C87.804 192.991 87.3438 192.311 87.0256 191.42C86.7074 190.527 86.5483 189.447 86.5483 188.182C86.5483 186.924 86.7074 185.85 87.0256 184.96C87.3475 184.066 87.8097 183.384 88.4119 182.915C89.018 182.441 89.7453 182.205 90.5938 182.205C91.4422 182.205 92.1676 182.441 92.7699 182.915C93.3759 183.384 93.8381 184.066 94.1562 184.96C94.4782 185.85 94.6392 186.924 94.6392 188.182C94.6392 189.447 94.4801 190.527 94.1619 191.42C93.8438 192.311 93.3835 192.991 92.7812 193.46C92.179 193.926 91.4498 194.159 90.5938 194.159ZM90.5938 192.909C91.4422 192.909 92.1013 192.5 92.571 191.682C93.0407 190.864 93.2756 189.697 93.2756 188.182C93.2756 187.174 93.1676 186.316 92.9517 185.608C92.7396 184.9 92.4328 184.36 92.0312 183.989C91.6335 183.617 91.1544 183.432 90.5938 183.432C89.7528 183.432 89.0956 183.847 88.6222 184.676C88.1487 185.502 87.9119 186.67 87.9119 188.182C87.9119 189.189 88.018 190.045 88.2301 190.75C88.4422 191.455 88.7472 191.991 89.1449 192.358C89.5464 192.725 90.0294 192.909 90.5938 192.909Z" fill="#E0E0E0"/>
<path d="M122.577 182.364V194H121.168V183.841H121.099L118.259 185.727V184.295L121.168 182.364H122.577Z" fill="#333333"/>
<path d="M153.361 194V192.977L157.202 188.773C157.652 188.28 158.024 187.852 158.315 187.489C158.607 187.121 158.823 186.777 158.963 186.455C159.107 186.129 159.179 185.788 159.179 185.432C159.179 185.023 159.08 184.669 158.884 184.369C158.69 184.07 158.425 183.839 158.088 183.676C157.751 183.513 157.372 183.432 156.952 183.432C156.505 183.432 156.115 183.525 155.781 183.71C155.452 183.892 155.196 184.148 155.014 184.477C154.836 184.807 154.747 185.193 154.747 185.636H153.406C153.406 184.955 153.563 184.356 153.878 183.841C154.192 183.326 154.62 182.924 155.162 182.636C155.707 182.348 156.319 182.205 156.997 182.205C157.679 182.205 158.283 182.348 158.81 182.636C159.336 182.924 159.749 183.312 160.048 183.801C160.348 184.29 160.497 184.833 160.497 185.432C160.497 185.86 160.42 186.278 160.264 186.688C160.113 187.093 159.848 187.545 159.469 188.045C159.094 188.542 158.573 189.148 157.906 189.864L155.293 192.659V192.75H160.702V194H153.361Z" fill="#333333"/>
<path d="M193.543 194.159C192.793 194.159 192.124 194.03 191.537 193.773C190.954 193.515 190.49 193.157 190.145 192.699C189.804 192.237 189.618 191.701 189.588 191.091H191.02C191.05 191.466 191.179 191.79 191.406 192.062C191.634 192.331 191.931 192.54 192.298 192.688C192.666 192.835 193.073 192.909 193.52 192.909C194.02 192.909 194.463 192.822 194.849 192.648C195.236 192.473 195.539 192.231 195.759 191.92C195.978 191.61 196.088 191.25 196.088 190.841C196.088 190.413 195.982 190.036 195.77 189.71C195.558 189.381 195.247 189.123 194.838 188.938C194.429 188.752 193.929 188.659 193.338 188.659H192.406V187.409H193.338C193.8 187.409 194.205 187.326 194.554 187.159C194.906 186.992 195.181 186.758 195.378 186.455C195.579 186.152 195.679 185.795 195.679 185.386C195.679 184.992 195.592 184.65 195.418 184.358C195.243 184.066 194.997 183.839 194.679 183.676C194.365 183.513 193.993 183.432 193.565 183.432C193.164 183.432 192.785 183.506 192.429 183.653C192.077 183.797 191.789 184.008 191.565 184.284C191.342 184.557 191.221 184.886 191.202 185.273H189.838C189.861 184.663 190.045 184.129 190.389 183.67C190.734 183.208 191.185 182.848 191.741 182.591C192.302 182.333 192.918 182.205 193.588 182.205C194.308 182.205 194.925 182.35 195.44 182.642C195.955 182.93 196.351 183.311 196.628 183.784C196.904 184.258 197.043 184.769 197.043 185.318C197.043 185.973 196.87 186.532 196.526 186.994C196.185 187.456 195.721 187.777 195.134 187.955V188.045C195.868 188.167 196.442 188.479 196.855 188.983C197.268 189.483 197.474 190.102 197.474 190.841C197.474 191.473 197.302 192.042 196.957 192.545C196.616 193.045 196.151 193.439 195.56 193.727C194.969 194.015 194.296 194.159 193.543 194.159Z" fill="#333333"/>
<path d="M225.299 191.614V190.455L230.413 182.364H231.254V184.159H230.685L226.822 190.273V190.364H233.708V191.614H225.299ZM230.776 194V191.261V190.722V182.364H232.117V194H230.776Z" fill="#333333"/>
<path d="M264.974 194.159C264.307 194.159 263.707 194.027 263.173 193.761C262.638 193.496 262.21 193.133 261.888 192.67C261.567 192.208 261.39 191.682 261.36 191.091H262.724C262.777 191.617 263.015 192.053 263.44 192.398C263.868 192.739 264.379 192.909 264.974 192.909C265.451 192.909 265.875 192.797 266.246 192.574C266.621 192.35 266.915 192.044 267.127 191.653C267.343 191.259 267.451 190.814 267.451 190.318C267.451 189.811 267.339 189.358 267.116 188.96C266.896 188.559 266.593 188.242 266.207 188.011C265.82 187.78 265.379 187.663 264.883 187.659C264.527 187.655 264.161 187.71 263.786 187.824C263.411 187.934 263.103 188.076 262.86 188.25L261.542 188.091L262.246 182.364H268.292V183.614H263.428L263.019 187.045H263.087C263.326 186.856 263.625 186.699 263.985 186.574C264.345 186.449 264.72 186.386 265.11 186.386C265.822 186.386 266.457 186.557 267.013 186.898C267.574 187.235 268.013 187.697 268.332 188.284C268.654 188.871 268.815 189.542 268.815 190.295C268.815 191.038 268.648 191.701 268.315 192.284C267.985 192.864 267.531 193.322 266.951 193.659C266.371 193.992 265.712 194.159 264.974 194.159Z" fill="#333333"/>
<path d="M49.076 231.159C48.5987 231.152 48.1214 231.061 47.6442 230.886C47.1669 230.712 46.7313 230.419 46.3374 230.006C45.9434 229.589 45.6271 229.027 45.3885 228.318C45.1499 227.606 45.0305 226.712 45.0305 225.636C45.0305 224.606 45.1271 223.693 45.3203 222.898C45.5135 222.098 45.7938 221.426 46.1612 220.881C46.5286 220.331 46.9718 219.915 47.4908 219.631C48.0135 219.347 48.6025 219.205 49.2578 219.205C49.9093 219.205 50.4889 219.335 50.9964 219.597C51.5078 219.854 51.9245 220.214 52.2464 220.676C52.5684 221.138 52.7768 221.67 52.8714 222.273H51.4851C51.3563 221.75 51.1063 221.316 50.7351 220.972C50.3639 220.627 49.8714 220.455 49.2578 220.455C48.3563 220.455 47.6461 220.847 47.1271 221.631C46.612 222.415 46.3525 223.515 46.3487 224.932H46.4396C46.6518 224.61 46.9036 224.335 47.1953 224.108C47.4908 223.877 47.8165 223.699 48.1726 223.574C48.5286 223.449 48.9055 223.386 49.3033 223.386C49.9699 223.386 50.5798 223.553 51.1328 223.886C51.6858 224.216 52.129 224.672 52.4624 225.256C52.7957 225.835 52.9624 226.5 52.9624 227.25C52.9624 227.97 52.8014 228.629 52.4794 229.227C52.1574 229.822 51.7048 230.295 51.1214 230.648C50.5419 230.996 49.8601 231.167 49.076 231.159ZM49.076 229.909C49.5533 229.909 49.9813 229.79 50.3601 229.551C50.7427 229.312 51.0438 228.992 51.2635 228.591C51.487 228.189 51.5987 227.742 51.5987 227.25C51.5987 226.769 51.4908 226.331 51.2749 225.938C51.0627 225.54 50.7692 225.223 50.3942 224.989C50.023 224.754 49.5987 224.636 49.1214 224.636C48.7616 224.636 48.4264 224.708 48.1158 224.852C47.8052 224.992 47.5324 225.186 47.2976 225.432C47.0665 225.678 46.8847 225.96 46.7521 226.278C46.6196 226.593 46.5533 226.924 46.5533 227.273C46.5533 227.735 46.6612 228.167 46.8771 228.568C47.0968 228.97 47.3961 229.294 47.7749 229.54C48.1574 229.786 48.5911 229.909 49.076 229.909Z" fill="#333333"/>
<path d="M81.9979 231L87.2024 220.705V220.614H81.2024V219.364H88.657V220.682L83.4751 231H81.9979Z" fill="#333333"/>
<path d="M121.002 231.159C120.222 231.159 119.532 231.021 118.934 230.744C118.339 230.464 117.875 230.08 117.542 229.591C117.209 229.098 117.044 228.538 117.048 227.909C117.044 227.417 117.14 226.962 117.337 226.545C117.534 226.125 117.803 225.775 118.144 225.494C118.489 225.21 118.873 225.03 119.298 224.955V224.886C118.741 224.742 118.298 224.43 117.968 223.949C117.638 223.464 117.476 222.913 117.479 222.295C117.476 221.705 117.625 221.176 117.928 220.71C118.231 220.244 118.648 219.877 119.178 219.608C119.712 219.339 120.32 219.205 121.002 219.205C121.676 219.205 122.279 219.339 122.809 219.608C123.339 219.877 123.756 220.244 124.059 220.71C124.366 221.176 124.521 221.705 124.525 222.295C124.521 222.913 124.353 223.464 124.019 223.949C123.69 224.43 123.252 224.742 122.707 224.886V224.955C123.127 225.03 123.506 225.21 123.843 225.494C124.18 225.775 124.449 226.125 124.65 226.545C124.851 226.962 124.953 227.417 124.957 227.909C124.953 228.538 124.782 229.098 124.445 229.591C124.112 230.08 123.648 230.464 123.053 230.744C122.462 231.021 121.779 231.159 121.002 231.159ZM121.002 229.909C121.529 229.909 121.983 229.824 122.366 229.653C122.748 229.483 123.044 229.242 123.252 228.932C123.46 228.621 123.567 228.258 123.57 227.841C123.567 227.402 123.453 227.013 123.229 226.676C123.006 226.339 122.701 226.074 122.315 225.881C121.932 225.687 121.495 225.591 121.002 225.591C120.506 225.591 120.063 225.687 119.673 225.881C119.286 226.074 118.981 226.339 118.758 226.676C118.538 227.013 118.43 227.402 118.434 227.841C118.43 228.258 118.531 228.621 118.735 228.932C118.943 229.242 119.241 229.483 119.627 229.653C120.013 229.824 120.472 229.909 121.002 229.909ZM121.002 224.386C121.419 224.386 121.788 224.303 122.11 224.136C122.436 223.97 122.692 223.737 122.877 223.438C123.063 223.138 123.157 222.788 123.161 222.386C123.157 221.992 123.065 221.65 122.883 221.358C122.701 221.062 122.449 220.835 122.127 220.676C121.805 220.513 121.43 220.432 121.002 220.432C120.567 220.432 120.186 220.513 119.86 220.676C119.534 220.835 119.282 221.062 119.104 221.358C118.926 221.65 118.839 221.992 118.843 222.386C118.839 222.788 118.928 223.138 119.11 223.438C119.296 223.737 119.551 223.97 119.877 224.136C120.203 224.303 120.578 224.386 121.002 224.386Z" fill="#333333"/>
<path d="M156.917 219.205C157.394 219.208 157.871 219.299 158.349 219.477C158.826 219.655 159.262 219.951 159.656 220.364C160.049 220.773 160.366 221.331 160.604 222.04C160.843 222.748 160.962 223.636 160.962 224.705C160.962 225.739 160.864 226.657 160.667 227.46C160.474 228.259 160.193 228.934 159.826 229.483C159.462 230.032 159.019 230.449 158.496 230.733C157.978 231.017 157.39 231.159 156.735 231.159C156.084 231.159 155.502 231.03 154.991 230.773C154.483 230.511 154.067 230.15 153.741 229.688C153.419 229.222 153.212 228.682 153.121 228.068H154.508C154.633 228.602 154.881 229.044 155.252 229.392C155.627 229.737 156.121 229.909 156.735 229.909C157.633 229.909 158.341 229.517 158.86 228.733C159.383 227.949 159.644 226.841 159.644 225.409H159.553C159.341 225.727 159.089 226.002 158.798 226.233C158.506 226.464 158.182 226.642 157.826 226.767C157.47 226.892 157.091 226.955 156.69 226.955C156.023 226.955 155.411 226.79 154.854 226.46C154.301 226.127 153.858 225.67 153.525 225.091C153.195 224.508 153.031 223.841 153.031 223.091C153.031 222.379 153.19 221.727 153.508 221.136C153.83 220.542 154.281 220.068 154.86 219.716C155.443 219.364 156.129 219.193 156.917 219.205ZM156.917 220.455C156.44 220.455 156.01 220.574 155.627 220.812C155.248 221.047 154.947 221.366 154.724 221.767C154.504 222.165 154.394 222.606 154.394 223.091C154.394 223.576 154.5 224.017 154.712 224.415C154.928 224.809 155.222 225.123 155.593 225.358C155.968 225.589 156.394 225.705 156.871 225.705C157.231 225.705 157.567 225.634 157.877 225.494C158.188 225.35 158.459 225.155 158.69 224.909C158.924 224.659 159.108 224.377 159.241 224.062C159.373 223.744 159.44 223.413 159.44 223.068C159.44 222.614 159.33 222.187 159.11 221.79C158.894 221.392 158.595 221.07 158.212 220.824C157.834 220.578 157.402 220.455 156.917 220.455Z" fill="#333333"/>
<path d="M189.577 219.364V231H188.168V220.841H188.099L185.259 222.727V221.295L188.168 219.364H189.577ZM196.719 231.159C195.863 231.159 195.134 230.926 194.531 230.46C193.929 229.991 193.469 229.311 193.151 228.42C192.832 227.527 192.673 226.447 192.673 225.182C192.673 223.924 192.832 222.85 193.151 221.96C193.473 221.066 193.935 220.384 194.537 219.915C195.143 219.441 195.87 219.205 196.719 219.205C197.567 219.205 198.293 219.441 198.895 219.915C199.501 220.384 199.963 221.066 200.281 221.96C200.603 222.85 200.764 223.924 200.764 225.182C200.764 226.447 200.605 227.527 200.287 228.42C199.969 229.311 199.509 229.991 198.906 230.46C198.304 230.926 197.575 231.159 196.719 231.159ZM196.719 229.909C197.567 229.909 198.226 229.5 198.696 228.682C199.166 227.864 199.401 226.697 199.401 225.182C199.401 224.174 199.293 223.316 199.077 222.608C198.865 221.9 198.558 221.36 198.156 220.989C197.759 220.617 197.279 220.432 196.719 220.432C195.878 220.432 195.221 220.847 194.747 221.676C194.274 222.502 194.037 223.67 194.037 225.182C194.037 226.189 194.143 227.045 194.355 227.75C194.567 228.455 194.872 228.991 195.27 229.358C195.671 229.725 196.154 229.909 196.719 229.909Z" fill="#333333"/>
<path d="M227.358 219.364V231H225.949V220.841H225.881L223.04 222.727V221.295L225.949 219.364H227.358ZM234.795 219.364V231H233.386V220.841H233.318L230.477 222.727V221.295L233.386 219.364H234.795Z" fill="#333333"/>
<path d="M261.733 219.364V231H260.324V220.841H260.256L257.415 222.727V221.295L260.324 219.364H261.733ZM265.08 231V229.977L268.92 225.773C269.371 225.28 269.742 224.852 270.034 224.489C270.326 224.121 270.542 223.777 270.682 223.455C270.826 223.129 270.898 222.788 270.898 222.432C270.898 222.023 270.799 221.669 270.602 221.369C270.409 221.07 270.144 220.839 269.807 220.676C269.47 220.513 269.091 220.432 268.67 220.432C268.223 220.432 267.833 220.525 267.5 220.71C267.17 220.892 266.915 221.148 266.733 221.477C266.555 221.807 266.466 222.193 266.466 222.636H265.125C265.125 221.955 265.282 221.356 265.597 220.841C265.911 220.326 266.339 219.924 266.881 219.636C267.426 219.348 268.038 219.205 268.716 219.205C269.398 219.205 270.002 219.348 270.528 219.636C271.055 219.924 271.468 220.312 271.767 220.801C272.066 221.29 272.216 221.833 272.216 222.432C272.216 222.86 272.138 223.278 271.983 223.688C271.831 224.093 271.566 224.545 271.188 225.045C270.812 225.542 270.292 226.148 269.625 226.864L267.011 229.659V229.75H272.42V231H265.08Z" fill="#333333"/>
<path d="M45.483 256.364V268H44.0739V257.841H44.0057L41.1648 259.727V258.295L44.0739 256.364H45.483ZM52.7614 268.159C52.0114 268.159 51.3428 268.03 50.7557 267.773C50.1723 267.515 49.7083 267.157 49.3636 266.699C49.0227 266.237 48.8371 265.701 48.8068 265.091H50.2386C50.2689 265.466 50.3977 265.79 50.625 266.062C50.8523 266.331 51.1496 266.54 51.517 266.688C51.8845 266.835 52.2917 266.909 52.7386 266.909C53.2386 266.909 53.6818 266.822 54.0682 266.648C54.4545 266.473 54.7576 266.231 54.9773 265.92C55.197 265.61 55.3068 265.25 55.3068 264.841C55.3068 264.413 55.2008 264.036 54.9886 263.71C54.7765 263.381 54.4659 263.123 54.0568 262.938C53.6477 262.752 53.1477 262.659 52.5568 262.659H51.625V261.409H52.5568C53.0189 261.409 53.4242 261.326 53.7727 261.159C54.125 260.992 54.3996 260.758 54.5966 260.455C54.7973 260.152 54.8977 259.795 54.8977 259.386C54.8977 258.992 54.8106 258.65 54.6364 258.358C54.4621 258.066 54.2159 257.839 53.8977 257.676C53.5833 257.513 53.2121 257.432 52.7841 257.432C52.3826 257.432 52.0038 257.506 51.6477 257.653C51.2955 257.797 51.0076 258.008 50.7841 258.284C50.5606 258.557 50.4394 258.886 50.4205 259.273H49.0568C49.0795 258.663 49.2633 258.129 49.608 257.67C49.9527 257.208 50.4034 256.848 50.9602 256.591C51.5208 256.333 52.1364 256.205 52.8068 256.205C53.5265 256.205 54.1439 256.35 54.6591 256.642C55.1742 256.93 55.5701 257.311 55.8466 257.784C56.1231 258.258 56.2614 258.769 56.2614 259.318C56.2614 259.973 56.089 260.532 55.7443 260.994C55.4034 261.456 54.9394 261.777 54.3523 261.955V262.045C55.0871 262.167 55.661 262.479 56.0739 262.983C56.4867 263.483 56.6932 264.102 56.6932 264.841C56.6932 265.473 56.5208 266.042 56.1761 266.545C55.8352 267.045 55.3693 267.439 54.7784 267.727C54.1875 268.015 53.5152 268.159 52.7614 268.159Z" fill="#333333"/>
<path d="M81.4439 256.364V268H80.0348V257.841H79.9666L77.1257 259.727V258.295L80.0348 256.364H81.4439ZM84.5178 265.614V264.455L89.6314 256.364H90.4723V258.159H89.9041L86.0405 264.273V264.364H92.9268V265.614H84.5178ZM89.995 268V265.261V264.722V256.364H91.3359V268H89.995Z" fill="#333333"/>
<path d="M117.71 256.364V268H116.3V257.841H116.232L113.391 259.727V258.295L116.3 256.364H117.71ZM124.692 268.159C124.026 268.159 123.425 268.027 122.891 267.761C122.357 267.496 121.929 267.133 121.607 266.67C121.285 266.208 121.109 265.682 121.079 265.091H122.442C122.496 265.617 122.734 266.053 123.158 266.398C123.586 266.739 124.098 266.909 124.692 266.909C125.17 266.909 125.594 266.797 125.965 266.574C126.34 266.35 126.634 266.044 126.846 265.653C127.062 265.259 127.17 264.814 127.17 264.318C127.17 263.811 127.058 263.358 126.835 262.96C126.615 262.559 126.312 262.242 125.925 262.011C125.539 261.78 125.098 261.663 124.602 261.659C124.246 261.655 123.88 261.71 123.505 261.824C123.13 261.934 122.821 262.076 122.579 262.25L121.261 262.091L121.965 256.364H128.011V257.614H123.147L122.738 261.045H122.806C123.045 260.856 123.344 260.699 123.704 260.574C124.064 260.449 124.439 260.386 124.829 260.386C125.541 260.386 126.175 260.557 126.732 260.898C127.293 261.235 127.732 261.697 128.05 262.284C128.372 262.871 128.533 263.542 128.533 264.295C128.533 265.038 128.367 265.701 128.033 266.284C127.704 266.864 127.249 267.322 126.67 267.659C126.09 267.992 125.431 268.159 124.692 268.159Z" fill="#333333"/>
<path d="M153.585 256.364V268H152.175V257.841H152.107L149.266 259.727V258.295L152.175 256.364H153.585ZM160.795 268.159C160.317 268.152 159.84 268.061 159.363 267.886C158.886 267.712 158.45 267.419 158.056 267.006C157.662 266.589 157.346 266.027 157.107 265.318C156.869 264.606 156.749 263.712 156.749 262.636C156.749 261.606 156.846 260.693 157.039 259.898C157.232 259.098 157.513 258.426 157.88 257.881C158.247 257.331 158.691 256.915 159.21 256.631C159.732 256.347 160.321 256.205 160.977 256.205C161.628 256.205 162.208 256.335 162.715 256.597C163.227 256.854 163.643 257.214 163.965 257.676C164.287 258.138 164.496 258.67 164.59 259.273H163.204C163.075 258.75 162.825 258.316 162.454 257.972C162.083 257.627 161.59 257.455 160.977 257.455C160.075 257.455 159.365 257.847 158.846 258.631C158.331 259.415 158.071 260.515 158.067 261.932H158.158C158.371 261.61 158.622 261.335 158.914 261.108C159.21 260.877 159.535 260.699 159.891 260.574C160.247 260.449 160.624 260.386 161.022 260.386C161.689 260.386 162.299 260.553 162.852 260.886C163.405 261.216 163.848 261.672 164.181 262.256C164.514 262.835 164.681 263.5 164.681 264.25C164.681 264.97 164.52 265.629 164.198 266.227C163.876 266.822 163.424 267.295 162.84 267.648C162.261 267.996 161.579 268.167 160.795 268.159ZM160.795 266.909C161.272 266.909 161.7 266.79 162.079 266.551C162.461 266.312 162.763 265.992 162.982 265.591C163.206 265.189 163.317 264.742 163.317 264.25C163.317 263.769 163.21 263.331 162.994 262.938C162.781 262.54 162.488 262.223 162.113 261.989C161.742 261.754 161.317 261.636 160.84 261.636C160.48 261.636 160.145 261.708 159.835 261.852C159.524 261.992 159.251 262.186 159.016 262.432C158.785 262.678 158.603 262.96 158.471 263.278C158.338 263.593 158.272 263.924 158.272 264.273C158.272 264.735 158.38 265.167 158.596 265.568C158.816 265.97 159.115 266.294 159.494 266.54C159.876 266.786 160.31 266.909 160.795 266.909Z" fill="#333333"/>
<path d="M190.506 256.364V268H189.097V257.841H189.029L186.188 259.727V258.295L189.097 256.364H190.506ZM194.217 268L199.421 257.705V257.614H193.421V256.364H200.876V257.682L195.694 268H194.217Z" fill="#333333"/>
<path d="M225.647 256.364V268H224.238V257.841H224.17L221.329 259.727V258.295L224.238 256.364H225.647ZM232.721 268.159C231.941 268.159 231.251 268.021 230.653 267.744C230.058 267.464 229.594 267.08 229.261 266.591C228.927 266.098 228.763 265.538 228.766 264.909C228.763 264.417 228.859 263.962 229.056 263.545C229.253 263.125 229.522 262.775 229.863 262.494C230.208 262.21 230.592 262.03 231.016 261.955V261.886C230.46 261.742 230.016 261.43 229.687 260.949C229.357 260.464 229.194 259.913 229.198 259.295C229.194 258.705 229.344 258.176 229.647 257.71C229.95 257.244 230.367 256.877 230.897 256.608C231.431 256.339 232.039 256.205 232.721 256.205C233.395 256.205 233.997 256.339 234.528 256.608C235.058 256.877 235.475 257.244 235.778 257.71C236.085 258.176 236.24 258.705 236.244 259.295C236.24 259.913 236.071 260.464 235.738 260.949C235.408 261.43 234.971 261.742 234.425 261.886V261.955C234.846 262.03 235.225 262.21 235.562 262.494C235.899 262.775 236.168 263.125 236.369 263.545C236.569 263.962 236.672 264.417 236.675 264.909C236.672 265.538 236.501 266.098 236.164 266.591C235.831 267.08 235.367 267.464 234.772 267.744C234.181 268.021 233.497 268.159 232.721 268.159ZM232.721 266.909C233.247 266.909 233.702 266.824 234.085 266.653C234.467 266.483 234.763 266.242 234.971 265.932C235.179 265.621 235.285 265.258 235.289 264.841C235.285 264.402 235.172 264.013 234.948 263.676C234.725 263.339 234.42 263.074 234.033 262.881C233.651 262.687 233.213 262.591 232.721 262.591C232.225 262.591 231.781 262.687 231.391 262.881C231.005 263.074 230.7 263.339 230.477 263.676C230.257 264.013 230.149 264.402 230.153 264.841C230.149 265.258 230.249 265.621 230.454 265.932C230.662 266.242 230.96 266.483 231.346 266.653C231.732 266.824 232.191 266.909 232.721 266.909ZM232.721 261.386C233.138 261.386 233.507 261.303 233.829 261.136C234.155 260.97 234.41 260.737 234.596 260.438C234.781 260.138 234.876 259.788 234.88 259.386C234.876 258.992 234.783 258.65 234.602 258.358C234.42 258.062 234.168 257.835 233.846 257.676C233.524 257.513 233.149 257.432 232.721 257.432C232.285 257.432 231.905 257.513 231.579 257.676C231.253 257.835 231.001 258.062 230.823 258.358C230.645 258.65 230.558 258.992 230.562 259.386C230.558 259.788 230.647 260.138 230.829 260.438C231.014 260.737 231.27 260.97 231.596 261.136C231.922 261.303 232.297 261.386 232.721 261.386Z" fill="#333333"/>
<path d="M261.585 256.364V268H260.175V257.841H260.107L257.266 259.727V258.295L260.175 256.364H261.585ZM268.636 256.205C269.113 256.208 269.59 256.299 270.067 256.477C270.545 256.655 270.98 256.951 271.374 257.364C271.768 257.773 272.085 258.331 272.323 259.04C272.562 259.748 272.681 260.636 272.681 261.705C272.681 262.739 272.583 263.657 272.386 264.46C272.192 265.259 271.912 265.934 271.545 266.483C271.181 267.032 270.738 267.449 270.215 267.733C269.696 268.017 269.109 268.159 268.454 268.159C267.802 268.159 267.221 268.03 266.71 267.773C266.202 267.511 265.785 267.15 265.46 266.688C265.138 266.222 264.931 265.682 264.84 265.068H266.227C266.352 265.602 266.6 266.044 266.971 266.392C267.346 266.737 267.84 266.909 268.454 266.909C269.352 266.909 270.06 266.517 270.579 265.733C271.102 264.949 271.363 263.841 271.363 262.409H271.272C271.06 262.727 270.808 263.002 270.516 263.233C270.225 263.464 269.901 263.642 269.545 263.767C269.189 263.892 268.81 263.955 268.408 263.955C267.742 263.955 267.13 263.79 266.573 263.46C266.02 263.127 265.577 262.67 265.244 262.091C264.914 261.508 264.749 260.841 264.749 260.091C264.749 259.379 264.908 258.727 265.227 258.136C265.549 257.542 265.999 257.068 266.579 256.716C267.162 256.364 267.848 256.193 268.636 256.205ZM268.636 257.455C268.158 257.455 267.728 257.574 267.346 257.812C266.967 258.047 266.666 258.366 266.442 258.767C266.223 259.165 266.113 259.606 266.113 260.091C266.113 260.576 266.219 261.017 266.431 261.415C266.647 261.809 266.941 262.123 267.312 262.358C267.687 262.589 268.113 262.705 268.59 262.705C268.95 262.705 269.285 262.634 269.596 262.494C269.906 262.35 270.177 262.155 270.408 261.909C270.643 261.659 270.827 261.377 270.96 261.062C271.092 260.744 271.158 260.413 271.158 260.068C271.158 259.614 271.049 259.187 270.829 258.79C270.613 258.392 270.314 258.07 269.931 257.824C269.552 257.578 269.121 257.455 268.636 257.455Z" fill="#333333"/>
<path d="M40.3608 305V303.977L44.2017 299.773C44.6525 299.28 45.0237 298.852 45.3153 298.489C45.607 298.121 45.8229 297.777 45.9631 297.455C46.107 297.129 46.179 296.788 46.179 296.432C46.179 296.023 46.0805 295.669 45.8835 295.369C45.6903 295.07 45.4252 294.839 45.0881 294.676C44.7509 294.513 44.3722 294.432 43.9517 294.432C43.5047 294.432 43.1146 294.525 42.7812 294.71C42.4517 294.892 42.196 295.148 42.0142 295.477C41.8362 295.807 41.7472 296.193 41.7472 296.636H40.4062C40.4062 295.955 40.5634 295.356 40.8778 294.841C41.1922 294.326 41.6203 293.924 42.1619 293.636C42.7074 293.348 43.3191 293.205 43.9972 293.205C44.679 293.205 45.2831 293.348 45.8097 293.636C46.3362 293.924 46.7491 294.312 47.0483 294.801C47.3475 295.29 47.4972 295.833 47.4972 296.432C47.4972 296.86 47.4195 297.278 47.2642 297.688C47.1127 298.093 46.8475 298.545 46.4688 299.045C46.0938 299.542 45.5729 300.148 44.9062 300.864L42.2926 303.659V303.75H47.7017V305H40.3608ZM53.8438 305.159C52.9877 305.159 52.2585 304.926 51.6562 304.46C51.054 303.991 50.5938 303.311 50.2756 302.42C49.9574 301.527 49.7983 300.447 49.7983 299.182C49.7983 297.924 49.9574 296.85 50.2756 295.96C50.5975 295.066 51.0597 294.384 51.6619 293.915C52.268 293.441 52.9953 293.205 53.8438 293.205C54.6922 293.205 55.4176 293.441 56.0199 293.915C56.6259 294.384 57.0881 295.066 57.4062 295.96C57.7282 296.85 57.8892 297.924 57.8892 299.182C57.8892 300.447 57.7301 301.527 57.4119 302.42C57.0938 303.311 56.6335 303.991 56.0312 304.46C55.429 304.926 54.6998 305.159 53.8438 305.159ZM53.8438 303.909C54.6922 303.909 55.3513 303.5 55.821 302.682C56.2907 301.864 56.5256 300.697 56.5256 299.182C56.5256 298.174 56.4176 297.316 56.2017 296.608C55.9896 295.9 55.6828 295.36 55.2812 294.989C54.8835 294.617 54.4044 294.432 53.8438 294.432C53.0028 294.432 52.3456 294.847 51.8722 295.676C51.3987 296.502 51.1619 297.67 51.1619 299.182C51.1619 300.189 51.268 301.045 51.4801 301.75C51.6922 302.455 51.9972 302.991 52.3949 303.358C52.7964 303.725 53.2794 303.909 53.8438 303.909Z" fill="#333333"/>
<path d="M77.642 305V303.977L81.483 299.773C81.9337 299.28 82.3049 298.852 82.5966 298.489C82.8883 298.121 83.1042 297.777 83.2443 297.455C83.3883 297.129 83.4602 296.788 83.4602 296.432C83.4602 296.023 83.3617 295.669 83.1648 295.369C82.9716 295.07 82.7064 294.839 82.3693 294.676C82.0322 294.513 81.6534 294.432 81.233 294.432C80.786 294.432 80.3958 294.525 80.0625 294.71C79.733 294.892 79.4773 295.148 79.2955 295.477C79.1174 295.807 79.0284 296.193 79.0284 296.636H77.6875C77.6875 295.955 77.8447 295.356 78.1591 294.841C78.4735 294.326 78.9015 293.924 79.4432 293.636C79.9886 293.348 80.6004 293.205 81.2784 293.205C81.9602 293.205 82.5644 293.348 83.0909 293.636C83.6174 293.924 84.0303 294.312 84.3295 294.801C84.6288 295.29 84.7784 295.833 84.7784 296.432C84.7784 296.86 84.7008 297.278 84.5455 297.688C84.3939 298.093 84.1288 298.545 83.75 299.045C83.375 299.542 82.8542 300.148 82.1875 300.864L79.5739 303.659V303.75H84.983V305H77.642ZM91.4205 293.364V305H90.0114V294.841H89.9432L87.1023 296.727V295.295L90.0114 293.364H91.4205Z" fill="#333333"/>
<path d="M112.517 305V303.977L116.358 299.773C116.809 299.28 117.18 298.852 117.472 298.489C117.763 298.121 117.979 297.777 118.119 297.455C118.263 297.129 118.335 296.788 118.335 296.432C118.335 296.023 118.237 295.669 118.04 295.369C117.847 295.07 117.581 294.839 117.244 294.676C116.907 294.513 116.528 294.432 116.108 294.432C115.661 294.432 115.271 294.525 114.938 294.71C114.608 294.892 114.352 295.148 114.17 295.477C113.992 295.807 113.903 296.193 113.903 296.636H112.562C112.562 295.955 112.72 295.356 113.034 294.841C113.348 294.326 113.777 293.924 114.318 293.636C114.864 293.348 115.475 293.205 116.153 293.205C116.835 293.205 117.439 293.348 117.966 293.636C118.492 293.924 118.905 294.312 119.205 294.801C119.504 295.29 119.653 295.833 119.653 296.432C119.653 296.86 119.576 297.278 119.42 297.688C119.269 298.093 119.004 298.545 118.625 299.045C118.25 299.542 117.729 300.148 117.062 300.864L114.449 303.659V303.75H119.858V305H112.517ZM122.205 305V303.977L126.045 299.773C126.496 299.28 126.867 298.852 127.159 298.489C127.451 298.121 127.667 297.777 127.807 297.455C127.951 297.129 128.023 296.788 128.023 296.432C128.023 296.023 127.924 295.669 127.727 295.369C127.534 295.07 127.269 294.839 126.932 294.676C126.595 294.513 126.216 294.432 125.795 294.432C125.348 294.432 124.958 294.525 124.625 294.71C124.295 294.892 124.04 295.148 123.858 295.477C123.68 295.807 123.591 296.193 123.591 296.636H122.25C122.25 295.955 122.407 295.356 122.722 294.841C123.036 294.326 123.464 293.924 124.006 293.636C124.551 293.348 125.163 293.205 125.841 293.205C126.523 293.205 127.127 293.348 127.653 293.636C128.18 293.924 128.593 294.312 128.892 294.801C129.191 295.29 129.341 295.833 129.341 296.432C129.341 296.86 129.263 297.278 129.108 297.688C128.956 298.093 128.691 298.545 128.312 299.045C127.938 299.542 127.417 300.148 126.75 300.864L124.136 303.659V303.75H129.545V305H122.205Z" fill="#333333"/>
<path d="M148.267 305V303.977L152.108 299.773C152.559 299.28 152.93 298.852 153.222 298.489C153.513 298.121 153.729 297.777 153.869 297.455C154.013 297.129 154.085 296.788 154.085 296.432C154.085 296.023 153.987 295.669 153.79 295.369C153.597 295.07 153.331 294.839 152.994 294.676C152.657 294.513 152.278 294.432 151.858 294.432C151.411 294.432 151.021 294.525 150.688 294.71C150.358 294.892 150.102 295.148 149.92 295.477C149.742 295.807 149.653 296.193 149.653 296.636H148.312C148.312 295.955 148.47 295.356 148.784 294.841C149.098 294.326 149.527 293.924 150.068 293.636C150.614 293.348 151.225 293.205 151.903 293.205C152.585 293.205 153.189 293.348 153.716 293.636C154.242 293.924 154.655 294.312 154.955 294.801C155.254 295.29 155.403 295.833 155.403 296.432C155.403 296.86 155.326 297.278 155.17 297.688C155.019 298.093 154.754 298.545 154.375 299.045C154 299.542 153.479 300.148 152.812 300.864L150.199 303.659V303.75H155.608V305H148.267ZM161.886 305.159C161.136 305.159 160.468 305.03 159.881 304.773C159.297 304.515 158.833 304.157 158.489 303.699C158.148 303.237 157.962 302.701 157.932 302.091H159.364C159.394 302.466 159.523 302.79 159.75 303.062C159.977 303.331 160.275 303.54 160.642 303.688C161.009 303.835 161.417 303.909 161.864 303.909C162.364 303.909 162.807 303.822 163.193 303.648C163.58 303.473 163.883 303.231 164.102 302.92C164.322 302.61 164.432 302.25 164.432 301.841C164.432 301.413 164.326 301.036 164.114 300.71C163.902 300.381 163.591 300.123 163.182 299.938C162.773 299.752 162.273 299.659 161.682 299.659H160.75V298.409H161.682C162.144 298.409 162.549 298.326 162.898 298.159C163.25 297.992 163.525 297.758 163.722 297.455C163.922 297.152 164.023 296.795 164.023 296.386C164.023 295.992 163.936 295.65 163.761 295.358C163.587 295.066 163.341 294.839 163.023 294.676C162.708 294.513 162.337 294.432 161.909 294.432C161.508 294.432 161.129 294.506 160.773 294.653C160.42 294.797 160.133 295.008 159.909 295.284C159.686 295.557 159.564 295.886 159.545 296.273H158.182C158.205 295.663 158.388 295.129 158.733 294.67C159.078 294.208 159.528 293.848 160.085 293.591C160.646 293.333 161.261 293.205 161.932 293.205C162.652 293.205 163.269 293.35 163.784 293.642C164.299 293.93 164.695 294.311 164.972 294.784C165.248 295.258 165.386 295.769 165.386 296.318C165.386 296.973 165.214 297.532 164.869 297.994C164.528 298.456 164.064 298.777 163.477 298.955V299.045C164.212 299.167 164.786 299.479 165.199 299.983C165.612 300.483 165.818 301.102 165.818 301.841C165.818 302.473 165.646 303.042 165.301 303.545C164.96 304.045 164.494 304.439 163.903 304.727C163.313 305.015 162.64 305.159 161.886 305.159Z" fill="#333333"/>
<path d="M184.353 305V303.977L188.194 299.773C188.645 299.28 189.016 298.852 189.308 298.489C189.599 298.121 189.815 297.777 189.955 297.455C190.099 297.129 190.171 296.788 190.171 296.432C190.171 296.023 190.073 295.669 189.876 295.369C189.683 295.07 189.417 294.839 189.08 294.676C188.743 294.513 188.364 294.432 187.944 294.432C187.497 294.432 187.107 294.525 186.773 294.71C186.444 294.892 186.188 295.148 186.006 295.477C185.828 295.807 185.739 296.193 185.739 296.636H184.398C184.398 295.955 184.556 295.356 184.87 294.841C185.184 294.326 185.612 293.924 186.154 293.636C186.7 293.348 187.311 293.205 187.989 293.205C188.671 293.205 189.275 293.348 189.802 293.636C190.328 293.924 190.741 294.312 191.04 294.801C191.34 295.29 191.489 295.833 191.489 296.432C191.489 296.86 191.412 297.278 191.256 297.688C191.105 298.093 190.84 298.545 190.461 299.045C190.086 299.542 189.565 300.148 188.898 300.864L186.285 303.659V303.75H191.694V305H184.353ZM193.518 302.614V301.455L198.631 293.364H199.472V295.159H198.904L195.04 301.273V301.364H201.927V302.614H193.518ZM198.995 305V302.261V301.722V293.364H200.336V305H198.995Z" fill="#333333"/>
<path d="M220.494 305V303.977L224.335 299.773C224.785 299.28 225.156 298.852 225.448 298.489C225.74 298.121 225.956 297.777 226.096 297.455C226.24 297.129 226.312 296.788 226.312 296.432C226.312 296.023 226.213 295.669 226.016 295.369C225.823 295.07 225.558 294.839 225.221 294.676C224.884 294.513 224.505 294.432 224.085 294.432C223.638 294.432 223.247 294.525 222.914 294.71C222.585 294.892 222.329 295.148 222.147 295.477C221.969 295.807 221.88 296.193 221.88 296.636H220.539C220.539 295.955 220.696 295.356 221.011 294.841C221.325 294.326 221.753 293.924 222.295 293.636C222.84 293.348 223.452 293.205 224.13 293.205C224.812 293.205 225.416 293.348 225.942 293.636C226.469 293.924 226.882 294.312 227.181 294.801C227.48 295.29 227.63 295.833 227.63 296.432C227.63 296.86 227.552 297.278 227.397 297.688C227.246 298.093 226.98 298.545 226.602 299.045C226.227 299.542 225.706 300.148 225.039 300.864L222.425 303.659V303.75H227.835V305H220.494ZM233.817 305.159C233.151 305.159 232.55 305.027 232.016 304.761C231.482 304.496 231.054 304.133 230.732 303.67C230.41 303.208 230.234 302.682 230.204 302.091H231.567C231.621 302.617 231.859 303.053 232.283 303.398C232.711 303.739 233.223 303.909 233.817 303.909C234.295 303.909 234.719 303.797 235.09 303.574C235.465 303.35 235.759 303.044 235.971 302.653C236.187 302.259 236.295 301.814 236.295 301.318C236.295 300.811 236.183 300.358 235.96 299.96C235.74 299.559 235.437 299.242 235.05 299.011C234.664 298.78 234.223 298.663 233.727 298.659C233.371 298.655 233.005 298.71 232.63 298.824C232.255 298.934 231.946 299.076 231.704 299.25L230.386 299.091L231.09 293.364H237.136V294.614H232.272L231.863 298.045H231.931C232.17 297.856 232.469 297.699 232.829 297.574C233.189 297.449 233.564 297.386 233.954 297.386C234.666 297.386 235.3 297.557 235.857 297.898C236.418 298.235 236.857 298.697 237.175 299.284C237.497 299.871 237.658 300.542 237.658 301.295C237.658 302.038 237.492 302.701 237.158 303.284C236.829 303.864 236.374 304.322 235.795 304.659C235.215 304.992 234.556 305.159 233.817 305.159Z" fill="#333333"/>
<path d="M256.369 305V303.977L260.21 299.773C260.66 299.28 261.031 298.852 261.323 298.489C261.615 298.121 261.831 297.777 261.971 297.455C262.115 297.129 262.187 296.788 262.187 296.432C262.187 296.023 262.088 295.669 261.891 295.369C261.698 295.07 261.433 294.839 261.096 294.676C260.759 294.513 260.38 294.432 259.96 294.432C259.513 294.432 259.122 294.525 258.789 294.71C258.46 294.892 258.204 295.148 258.022 295.477C257.844 295.807 257.755 296.193 257.755 296.636H256.414C256.414 295.955 256.571 295.356 256.886 294.841C257.2 294.326 257.628 293.924 258.17 293.636C258.715 293.348 259.327 293.205 260.005 293.205C260.687 293.205 261.291 293.348 261.817 293.636C262.344 293.924 262.757 294.312 263.056 294.801C263.355 295.29 263.505 295.833 263.505 296.432C263.505 296.86 263.427 297.278 263.272 297.688C263.121 298.093 262.855 298.545 262.477 299.045C262.102 299.542 261.581 300.148 260.914 300.864L258.3 303.659V303.75H263.71V305H256.369ZM269.92 305.159C269.442 305.152 268.965 305.061 268.488 304.886C268.011 304.712 267.575 304.419 267.181 304.006C266.787 303.589 266.471 303.027 266.232 302.318C265.994 301.606 265.874 300.712 265.874 299.636C265.874 298.606 265.971 297.693 266.164 296.898C266.357 296.098 266.638 295.426 267.005 294.881C267.372 294.331 267.816 293.915 268.335 293.631C268.857 293.347 269.446 293.205 270.102 293.205C270.753 293.205 271.333 293.335 271.84 293.597C272.352 293.854 272.768 294.214 273.09 294.676C273.412 295.138 273.621 295.67 273.715 296.273H272.329C272.2 295.75 271.95 295.316 271.579 294.972C271.208 294.627 270.715 294.455 270.102 294.455C269.2 294.455 268.49 294.847 267.971 295.631C267.456 296.415 267.196 297.515 267.192 298.932H267.283C267.496 298.61 267.747 298.335 268.039 298.108C268.335 297.877 268.66 297.699 269.016 297.574C269.372 297.449 269.749 297.386 270.147 297.386C270.814 297.386 271.424 297.553 271.977 297.886C272.53 298.216 272.973 298.672 273.306 299.256C273.639 299.835 273.806 300.5 273.806 301.25C273.806 301.97 273.645 302.629 273.323 303.227C273.001 303.822 272.549 304.295 271.965 304.648C271.386 304.996 270.704 305.167 269.92 305.159ZM269.92 303.909C270.397 303.909 270.825 303.79 271.204 303.551C271.586 303.312 271.888 302.992 272.107 302.591C272.331 302.189 272.442 301.742 272.442 301.25C272.442 300.769 272.335 300.331 272.119 299.938C271.906 299.54 271.613 299.223 271.238 298.989C270.867 298.754 270.442 298.636 269.965 298.636C269.605 298.636 269.27 298.708 268.96 298.852C268.649 298.992 268.376 299.186 268.141 299.432C267.91 299.678 267.728 299.96 267.596 300.278C267.463 300.593 267.397 300.924 267.397 301.273C267.397 301.735 267.505 302.167 267.721 302.568C267.941 302.97 268.24 303.294 268.619 303.54C269.001 303.786 269.435 303.909 269.92 303.909Z" fill="#333333"/>
<path d="M41.2905 342V340.977L45.1314 336.773C45.5821 336.28 45.9534 335.852 46.245 335.489C46.5367 335.121 46.7526 334.777 46.8928 334.455C47.0367 334.129 47.1087 333.788 47.1087 333.432C47.1087 333.023 47.0102 332.669 46.8132 332.369C46.62 332.07 46.3549 331.839 46.0178 331.676C45.6806 331.513 45.3018 331.432 44.8814 331.432C44.4344 331.432 44.0443 331.525 43.7109 331.71C43.3814 331.892 43.1257 332.148 42.9439 332.477C42.7659 332.807 42.6768 333.193 42.6768 333.636H41.3359C41.3359 332.955 41.4931 332.356 41.8075 331.841C42.1219 331.326 42.55 330.924 43.0916 330.636C43.6371 330.348 44.2488 330.205 44.9268 330.205C45.6087 330.205 46.2128 330.348 46.7393 330.636C47.2659 330.924 47.6787 331.312 47.978 331.801C48.2772 332.29 48.4268 332.833 48.4268 333.432C48.4268 333.86 48.3492 334.278 48.1939 334.688C48.0424 335.093 47.7772 335.545 47.3984 336.045C47.0234 336.542 46.5026 337.148 45.8359 337.864L43.2223 340.659V340.75H48.6314V342H41.2905ZM51.3416 342L56.5462 331.705V331.614H50.5462V330.364H58.0007V331.682L52.8189 342H51.3416Z" fill="#333333"/>
<path d="M76.4311 342V340.977L80.272 336.773C80.7228 336.28 81.094 335.852 81.3857 335.489C81.6773 335.121 81.8932 334.777 82.0334 334.455C82.1773 334.129 82.2493 333.788 82.2493 333.432C82.2493 333.023 82.1508 332.669 81.9538 332.369C81.7607 332.07 81.4955 331.839 81.1584 331.676C80.8213 331.513 80.4425 331.432 80.022 331.432C79.575 331.432 79.1849 331.525 78.8516 331.71C78.522 331.892 78.2663 332.148 78.0845 332.477C77.9065 332.807 77.8175 333.193 77.8175 333.636H76.4766C76.4766 332.955 76.6338 332.356 76.9482 331.841C77.2625 331.326 77.6906 330.924 78.2322 330.636C78.7777 330.348 79.3894 330.205 80.0675 330.205C80.7493 330.205 81.3535 330.348 81.88 330.636C82.4065 330.924 82.8194 331.312 83.1186 331.801C83.4179 332.29 83.5675 332.833 83.5675 333.432C83.5675 333.86 83.4898 334.278 83.3345 334.688C83.183 335.093 82.9179 335.545 82.5391 336.045C82.1641 336.542 81.6432 337.148 80.9766 337.864L78.3629 340.659V340.75H83.772V342H76.4311ZM89.8459 342.159C89.0656 342.159 88.3762 342.021 87.7777 341.744C87.183 341.464 86.719 341.08 86.3857 340.591C86.0523 340.098 85.8875 339.538 85.8913 338.909C85.8875 338.417 85.9841 337.962 86.1811 337.545C86.3781 337.125 86.647 336.775 86.9879 336.494C87.3326 336.21 87.7171 336.03 88.1413 335.955V335.886C87.5845 335.742 87.1413 335.43 86.8118 334.949C86.4822 334.464 86.3194 333.913 86.3232 333.295C86.3194 332.705 86.469 332.176 86.772 331.71C87.075 331.244 87.4917 330.877 88.022 330.608C88.5561 330.339 89.1641 330.205 89.8459 330.205C90.5201 330.205 91.1224 330.339 91.6527 330.608C92.183 330.877 92.5997 331.244 92.9027 331.71C93.2095 332.176 93.3648 332.705 93.3686 333.295C93.3648 333.913 93.1963 334.464 92.8629 334.949C92.5334 335.43 92.0959 335.742 91.5504 335.886V335.955C91.9709 336.03 92.3497 336.21 92.6868 336.494C93.0239 336.775 93.2929 337.125 93.4936 337.545C93.6944 337.962 93.7966 338.417 93.8004 338.909C93.7966 339.538 93.6262 340.098 93.2891 340.591C92.9557 341.08 92.4917 341.464 91.897 341.744C91.3061 342.021 90.6224 342.159 89.8459 342.159ZM89.8459 340.909C90.3724 340.909 90.8269 340.824 91.2095 340.653C91.5921 340.483 91.8875 340.242 92.0959 339.932C92.3042 339.621 92.4103 339.258 92.4141 338.841C92.4103 338.402 92.2966 338.013 92.0732 337.676C91.8497 337.339 91.5447 337.074 91.1584 336.881C90.7758 336.687 90.3383 336.591 89.8459 336.591C89.3497 336.591 88.9065 336.687 88.5163 336.881C88.13 337.074 87.825 337.339 87.6016 337.676C87.3819 338.013 87.2739 338.402 87.2777 338.841C87.2739 339.258 87.3743 339.621 87.5788 339.932C87.7872 340.242 88.0845 340.483 88.4709 340.653C88.8572 340.824 89.3156 340.909 89.8459 340.909ZM89.8459 335.386C90.2625 335.386 90.6319 335.303 90.9538 335.136C91.2796 334.97 91.5353 334.737 91.7209 334.438C91.9065 334.138 92.0012 333.788 92.005 333.386C92.0012 332.992 91.9084 332.65 91.7266 332.358C91.5447 332.062 91.2929 331.835 90.9709 331.676C90.6489 331.513 90.2739 331.432 89.8459 331.432C89.4103 331.432 89.0296 331.513 88.7038 331.676C88.3781 331.835 88.1262 332.062 87.9482 332.358C87.7701 332.65 87.683 332.992 87.6868 333.386C87.683 333.788 87.772 334.138 87.9538 334.438C88.1394 334.737 88.3951 334.97 88.7209 335.136C89.0466 335.303 89.4216 335.386 89.8459 335.386Z" fill="#333333"/>
<path d="M112.369 342V340.977L116.21 336.773C116.66 336.28 117.031 335.852 117.323 335.489C117.615 335.121 117.831 334.777 117.971 334.455C118.115 334.129 118.187 333.788 118.187 333.432C118.187 333.023 118.088 332.669 117.891 332.369C117.698 332.07 117.433 331.839 117.096 331.676C116.759 331.513 116.38 331.432 115.96 331.432C115.513 331.432 115.122 331.525 114.789 331.71C114.46 331.892 114.204 332.148 114.022 332.477C113.844 332.807 113.755 333.193 113.755 333.636H112.414C112.414 332.955 112.571 332.356 112.886 331.841C113.2 331.326 113.628 330.924 114.17 330.636C114.715 330.348 115.327 330.205 116.005 330.205C116.687 330.205 117.291 330.348 117.817 330.636C118.344 330.924 118.757 331.312 119.056 331.801C119.355 332.29 119.505 332.833 119.505 333.432C119.505 333.86 119.427 334.278 119.272 334.688C119.121 335.093 118.855 335.545 118.477 336.045C118.102 336.542 117.581 337.148 116.914 337.864L114.3 340.659V340.75H119.71V342H112.369ZM125.761 330.205C126.238 330.208 126.715 330.299 127.192 330.477C127.67 330.655 128.105 330.951 128.499 331.364C128.893 331.773 129.21 332.331 129.448 333.04C129.687 333.748 129.806 334.636 129.806 335.705C129.806 336.739 129.708 337.657 129.511 338.46C129.317 339.259 129.037 339.934 128.67 340.483C128.306 341.032 127.863 341.449 127.34 341.733C126.821 342.017 126.234 342.159 125.579 342.159C124.927 342.159 124.346 342.03 123.835 341.773C123.327 341.511 122.91 341.15 122.585 340.688C122.263 340.222 122.056 339.682 121.965 339.068H123.352C123.477 339.602 123.725 340.044 124.096 340.392C124.471 340.737 124.965 340.909 125.579 340.909C126.477 340.909 127.185 340.517 127.704 339.733C128.227 338.949 128.488 337.841 128.488 336.409H128.397C128.185 336.727 127.933 337.002 127.641 337.233C127.35 337.464 127.026 337.642 126.67 337.767C126.314 337.892 125.935 337.955 125.533 337.955C124.867 337.955 124.255 337.79 123.698 337.46C123.145 337.127 122.702 336.67 122.369 336.091C122.039 335.508 121.874 334.841 121.874 334.091C121.874 333.379 122.033 332.727 122.352 332.136C122.674 331.542 123.124 331.068 123.704 330.716C124.287 330.364 124.973 330.193 125.761 330.205ZM125.761 331.455C125.283 331.455 124.853 331.574 124.471 331.812C124.092 332.047 123.791 332.366 123.567 332.767C123.348 333.165 123.238 333.606 123.238 334.091C123.238 334.576 123.344 335.017 123.556 335.415C123.772 335.809 124.066 336.123 124.437 336.358C124.812 336.589 125.238 336.705 125.715 336.705C126.075 336.705 126.41 336.634 126.721 336.494C127.031 336.35 127.302 336.155 127.533 335.909C127.768 335.659 127.952 335.377 128.085 335.062C128.217 334.744 128.283 334.413 128.283 334.068C128.283 333.614 128.174 333.187 127.954 332.79C127.738 332.392 127.439 332.07 127.056 331.824C126.677 331.578 126.246 331.455 125.761 331.455Z" fill="#333333"/>
<path d="M152.543 342.159C151.793 342.159 151.124 342.03 150.537 341.773C149.954 341.515 149.49 341.157 149.145 340.699C148.804 340.237 148.618 339.701 148.588 339.091H150.02C150.05 339.466 150.179 339.79 150.406 340.062C150.634 340.331 150.931 340.54 151.298 340.688C151.666 340.835 152.073 340.909 152.52 340.909C153.02 340.909 153.463 340.822 153.849 340.648C154.236 340.473 154.539 340.231 154.759 339.92C154.978 339.61 155.088 339.25 155.088 338.841C155.088 338.413 154.982 338.036 154.77 337.71C154.558 337.381 154.247 337.123 153.838 336.938C153.429 336.752 152.929 336.659 152.338 336.659H151.406V335.409H152.338C152.8 335.409 153.205 335.326 153.554 335.159C153.906 334.992 154.181 334.758 154.378 334.455C154.579 334.152 154.679 333.795 154.679 333.386C154.679 332.992 154.592 332.65 154.418 332.358C154.243 332.066 153.997 331.839 153.679 331.676C153.365 331.513 152.993 331.432 152.565 331.432C152.164 331.432 151.785 331.506 151.429 331.653C151.077 331.797 150.789 332.008 150.565 332.284C150.342 332.557 150.221 332.886 150.202 333.273H148.838C148.861 332.663 149.045 332.129 149.389 331.67C149.734 331.208 150.185 330.848 150.741 330.591C151.302 330.333 151.918 330.205 152.588 330.205C153.308 330.205 153.925 330.35 154.44 330.642C154.955 330.93 155.351 331.311 155.628 331.784C155.904 332.258 156.043 332.769 156.043 333.318C156.043 333.973 155.87 334.532 155.526 334.994C155.185 335.456 154.721 335.777 154.134 335.955V336.045C154.868 336.167 155.442 336.479 155.855 336.983C156.268 337.483 156.474 338.102 156.474 338.841C156.474 339.473 156.302 340.042 155.957 340.545C155.616 341.045 155.151 341.439 154.56 341.727C153.969 342.015 153.296 342.159 152.543 342.159ZM162.594 342.159C161.738 342.159 161.009 341.926 160.406 341.46C159.804 340.991 159.344 340.311 159.026 339.42C158.707 338.527 158.548 337.447 158.548 336.182C158.548 334.924 158.707 333.85 159.026 332.96C159.348 332.066 159.81 331.384 160.412 330.915C161.018 330.441 161.745 330.205 162.594 330.205C163.442 330.205 164.168 330.441 164.77 330.915C165.376 331.384 165.838 332.066 166.156 332.96C166.478 333.85 166.639 334.924 166.639 336.182C166.639 337.447 166.48 338.527 166.162 339.42C165.844 340.311 165.384 340.991 164.781 341.46C164.179 341.926 163.45 342.159 162.594 342.159ZM162.594 340.909C163.442 340.909 164.101 340.5 164.571 339.682C165.041 338.864 165.276 337.697 165.276 336.182C165.276 335.174 165.168 334.316 164.952 333.608C164.74 332.9 164.433 332.36 164.031 331.989C163.634 331.617 163.154 331.432 162.594 331.432C161.753 331.432 161.096 331.847 160.622 332.676C160.149 333.502 159.912 334.67 159.912 336.182C159.912 337.189 160.018 338.045 160.23 338.75C160.442 339.455 160.747 339.991 161.145 340.358C161.546 340.725 162.029 340.909 162.594 340.909Z" fill="#333333"/>
<path d="M189.324 342.159C188.574 342.159 187.905 342.03 187.318 341.773C186.735 341.515 186.271 341.157 185.926 340.699C185.585 340.237 185.4 339.701 185.369 339.091H186.801C186.831 339.466 186.96 339.79 187.188 340.062C187.415 340.331 187.712 340.54 188.08 340.688C188.447 340.835 188.854 340.909 189.301 340.909C189.801 340.909 190.244 340.822 190.631 340.648C191.017 340.473 191.32 340.231 191.54 339.92C191.759 339.61 191.869 339.25 191.869 338.841C191.869 338.413 191.763 338.036 191.551 337.71C191.339 337.381 191.028 337.123 190.619 336.938C190.21 336.752 189.71 336.659 189.119 336.659H188.188V335.409H189.119C189.581 335.409 189.987 335.326 190.335 335.159C190.688 334.992 190.962 334.758 191.159 334.455C191.36 334.152 191.46 333.795 191.46 333.386C191.46 332.992 191.373 332.65 191.199 332.358C191.025 332.066 190.778 331.839 190.46 331.676C190.146 331.513 189.775 331.432 189.347 331.432C188.945 331.432 188.566 331.506 188.21 331.653C187.858 331.797 187.57 332.008 187.347 332.284C187.123 332.557 187.002 332.886 186.983 333.273H185.619C185.642 332.663 185.826 332.129 186.17 331.67C186.515 331.208 186.966 330.848 187.523 330.591C188.083 330.333 188.699 330.205 189.369 330.205C190.089 330.205 190.706 330.35 191.222 330.642C191.737 330.93 192.133 331.311 192.409 331.784C192.686 332.258 192.824 332.769 192.824 333.318C192.824 333.973 192.652 334.532 192.307 334.994C191.966 335.456 191.502 335.777 190.915 335.955V336.045C191.65 336.167 192.223 336.479 192.636 336.983C193.049 337.483 193.256 338.102 193.256 338.841C193.256 339.473 193.083 340.042 192.739 340.545C192.398 341.045 191.932 341.439 191.341 341.727C190.75 342.015 190.078 342.159 189.324 342.159ZM199.67 330.364V342H198.261V331.841H198.193L195.352 333.727V332.295L198.261 330.364H199.67Z" fill="#333333"/>
<path d="M230.577 330.364V342H229.168V331.841H229.099L226.259 333.727V332.295L229.168 330.364H230.577Z" fill="#E0E0E0"/>
<path d="M261.361 342V340.977L265.202 336.773C265.652 336.28 266.024 335.852 266.315 335.489C266.607 335.121 266.823 334.777 266.963 334.455C267.107 334.129 267.179 333.788 267.179 333.432C267.179 333.023 267.08 332.669 266.884 332.369C266.69 332.07 266.425 331.839 266.088 331.676C265.751 331.513 265.372 331.432 264.952 331.432C264.505 331.432 264.115 331.525 263.781 331.71C263.452 331.892 263.196 332.148 263.014 332.477C262.836 332.807 262.747 333.193 262.747 333.636H261.406C261.406 332.955 261.563 332.356 261.878 331.841C262.192 331.326 262.62 330.924 263.162 330.636C263.707 330.348 264.319 330.205 264.997 330.205C265.679 330.205 266.283 330.348 266.81 330.636C267.336 330.924 267.749 331.312 268.048 331.801C268.348 332.29 268.497 332.833 268.497 333.432C268.497 333.86 268.42 334.278 268.264 334.688C268.113 335.093 267.848 335.545 267.469 336.045C267.094 336.542 266.573 337.148 265.906 337.864L263.293 340.659V340.75H268.702V342H261.361Z" fill="#E0E0E0"/>
<path d="M183.767 208C183.767 208 169.315 138.543 190.737 108C212.16 77.457 236.319 54.2216 246 43" stroke="#D9B770" stroke-width="2" stroke-linecap="round" stroke-dasharray="10 10"/>
<path d="M193 241.667C202.205 241.667 209.667 234.205 209.667 225C209.667 215.795 202.205 208.333 193 208.333C183.795 208.333 176.333 215.795 176.333 225C176.333 234.205 183.795 241.667 193 241.667Z" stroke="#D9B770" stroke-width="3.5" stroke-linecap="round" stroke-linejoin="round"/>
<path d="M249.556 35.3553L244.607 34.6482L242.485 36.7696L248.849 40.3051L252.385 46.669L254.506 44.5477L253.799 39.598L261.577 31.8198L269.355 46.669L272.184 43.8406L267.941 25.4558L275.719 17.6777C276.893 16.5039 276.893 14.6088 275.719 13.435C274.546 12.2612 272.65 12.2612 271.477 13.435L263.699 21.2132L245.314 16.9706L242.485 19.799L257.335 27.5772L249.556 35.3553Z" fill="#D9B770"/>
</svg>
