<svg width="110" height="120" viewBox="0 0 110 120" fill="none" xmlns="http://www.w3.org/2000/svg">
<path d="M1 71L47.4961 90.6155C55.8575 94.143 57.9835 105.016 51.5665 111.433V111.433C46.7627 116.237 39.0407 116.445 33.9859 111.906L29.3326 107.727C23.2983 102.309 22.6637 93.0752 27.8997 86.882L65 43" stroke="#D9B770" stroke-width="2" stroke-linecap="round" stroke-dasharray="10 10"/>
<path d="M69.5563 35.3553L64.6065 34.6482L62.4852 36.7696L68.8492 40.3051L72.3847 46.669L74.506 44.5477L73.7989 39.598L81.5771 31.8198L89.3552 46.669L92.1837 43.8406L87.941 25.4558L95.7192 17.6777C96.893 16.5039 96.893 14.6088 95.7192 13.435C94.5454 12.2612 92.6504 12.2612 91.4766 13.435L83.6984 21.2132L65.3136 16.9706L62.4852 19.799L77.3344 27.5772L69.5563 35.3553Z" fill="#D9B770"/>
</svg>
