<svg width="121" height="59" viewBox="0 0 121 59" fill="none" xmlns="http://www.w3.org/2000/svg">
<path d="M0.123596 27.4036C0.365171 26.8882 0.409565 26.4794 0.921893 26.166C1.18175 26.0068 1.44379 25.6045 1.33368 25.3284C1.08036 24.6948 0.605849 24.8532 0.751543 23.9566C0.914667 22.9467 1.25595 22.9258 1.85129 22.1638C2.24949 21.6665 2.02677 20.8896 2.52325 20.4534C3.64162 19.4706 4.58079 22.5844 5.36248 22.6973C5.83091 22.7651 7.21301 22.2649 6.67069 21.6365C6.2551 21.1546 6.5995 19.7712 5.94689 19.5328C6.83187 19.7971 7.11131 19.127 7.95947 18.8435C8.79356 18.5645 7.85762 17.8822 8.70366 17.7166C9.48685 17.5634 10.25 17.2945 11.0469 16.9118C11.7415 16.579 11.595 15.2413 12.4899 15.7524C12.4543 15.5202 12.4184 15.2869 12.3827 15.0544C12.6735 15.1248 14.0483 15.3592 14.0744 15.6211C14.1766 16.6558 14.8977 15.5818 15.129 16.2753C15.4312 15.9675 15.5233 15.6196 15.9128 15.4034C16.0579 15.4237 16.2072 15.4232 16.3621 15.4009C16.5848 15.249 16.8133 15.1097 17.046 14.9839C17.1731 17.1165 19.465 15.5343 20.505 16.4422C21.0008 16.8751 21.5116 17.1343 22.0274 17.5099C22.2394 17.6641 22.3762 17.9111 22.4842 18.156C22.649 18.5295 23.0941 18.5372 23.4176 18.7043C23.1863 18.997 23.042 20.3068 23.6145 20.0061C24.484 19.5491 23.5627 18.5751 23.5302 18.1166C24.0273 17.8057 24.7215 18.3007 24.942 18.6217C25.3275 19.1831 26.1074 19.1509 26.464 19.5984C26.8578 20.0931 27.297 19.8157 27.9141 19.3379C28.1221 19.1768 28.1028 18.8603 28.3198 18.724C28.6514 18.5146 29.084 18.3512 29.1691 17.9087C29.4175 17.9256 29.6196 18.0179 29.7758 18.1858C29.9325 17.6742 31.2882 17.5885 31.4028 17.9573C31.475 18.1877 31.7415 18.3824 31.9118 18.5237C32.2173 18.7768 32.6346 18.3147 32.9593 18.4973C33.2033 17.4608 33.0533 17.7951 33.9577 17.8534C34.4273 17.8837 34.7304 17.4511 35.1616 17.7807C35.471 18.0179 35.5242 18.3243 35.5842 18.7182C35.6669 19.2646 38.6408 19.5367 38.1737 20.0845C38.5757 20.0563 38.9975 19.9827 39.3127 19.5683C39.491 19.334 39.3935 18.8368 39.7282 18.7048C40.1688 18.5309 40.22 19.1346 40.4547 19.2924C40.7591 19.4964 41.3895 19.4921 41.7949 19.4826C42.2683 19.4715 43.62 19.2751 43.9039 18.6404C44.0838 18.2363 43.9892 17.1541 44.6283 17.0764C44.2204 16.9157 44.2384 16.3876 43.7416 16.3213C43.322 16.2652 42.8287 16.3798 42.5648 16.0348C42.3109 15.7035 42.1799 15.6148 41.6845 15.6119C41.0735 15.608 41.133 15.3364 40.7771 14.9611C40.5171 14.6875 40.2604 14.6184 39.8773 14.5742C39.5059 14.5314 39.5822 14.0903 40.0173 14.1361C40.3559 14.1717 40.7717 13.6487 41.1261 13.5316C41.7821 13.3158 42.1239 13.0495 42.7587 12.738C42.5991 12.5995 41.726 11.4613 41.7498 11.274C41.8039 10.846 42.8415 10.6392 42.5726 10.1199C43.4912 10.0114 44.1778 10.2379 45.0484 10.1905C45.2925 10.1772 45.6168 10.445 45.795 10.0089C45.9876 9.53756 45.4788 9.45547 45.2083 9.37335C44.5422 9.17094 43.7736 9.06597 43.1497 8.79149C42.3205 8.42694 44.1884 7.98491 44.2247 7.94465C44.1085 7.60295 43.8944 7.64924 43.5564 7.73232C43.0531 7.85617 42.6847 7.57061 42.3521 7.33609C43.5001 7.23545 42.8184 6.43911 42.5743 6.15018C42.8096 6.10267 43.0268 6.11517 43.2244 6.18619C43.2578 5.47273 44.7601 5.92554 44.9765 6.03113C45.4419 6.25869 45.631 5.95857 46.1546 5.86197C46.7434 5.75431 46.6638 6.32968 47.1367 6.36666C47.2866 5.41106 48.1141 5.53788 48.7767 5.53788C48.8608 5.41758 48.9449 5.29722 49.0302 5.17631C49.2605 5.13867 49.4822 5.12864 49.6961 5.14721C50.1586 5.12613 50.5127 5.06941 50.961 5.10856C51.4115 5.14771 51.4924 4.60219 51.9629 4.59465C52.4404 4.58661 52.9538 4.37685 53.3997 4.47194C53.7245 4.54135 54.1588 4.15234 54.4068 4.41006C54.7418 4.75851 54.8131 4.44528 54.944 4.05564C55.3409 2.8699 58.2026 3.20861 58.885 3.04486C59.8406 2.81577 61.0012 2.38085 61.9003 2.38085C62.2632 2.38085 62.7396 1.9011 62.9547 1.9209C63.353 1.95744 63.7578 1.93561 64.1978 1.54102C63.9185 1.48155 63.9311 0.983985 64.277 1.03592C64.6475 1.0914 65.3579 0.791948 65.3804 0.29418C65.6241 0.379925 65.8934 0.404417 66.1897 0.367675C66.136 0.243127 66.079 0.121081 66.0202 -5.41058e-07C66.3651 0.0189064 66.607 0.245173 66.9379 0.29316C67.2811 0.343182 67.6918 0.24211 68.0485 0.321234C68.2982 0.376352 70.0369 1.60403 70.4046 0.85156C70.8271 -0.014817 71.7195 0.865825 71.9088 1.18811C72.0856 1.48918 72.049 1.74423 72.0626 2.13296C72.0795 2.63864 72.5523 2.87192 72.8769 3.11007C72.2468 3.611 73.0246 4.69972 72.0449 4.77912C72.3472 5.61506 73.0388 5.00967 73.4803 5.39552C73.7346 5.61756 74.1877 5.37295 74.4041 5.01118C74.6362 4.62281 75.2505 5.14119 75.4926 5.10505C75.2935 4.96649 75.2541 4.69167 75.4414 4.38138C75.8348 4.61677 75.9095 5.3208 76.455 5.35791C75.8439 5.73378 76.258 5.85095 76.2985 6.33117C76.5581 6.11067 76.8254 6.00211 77.099 6.00711C77.0403 5.75782 76.847 5.62107 76.5296 5.75482C77.6008 4.25757 78.7171 7.36597 79.9245 5.61055C80.0852 5.82091 80.1664 6.12317 80.0459 6.47509C79.4546 6.38015 79.1788 6.71828 78.7606 7.27133C78.4719 7.65172 79.2834 7.94813 79.27 8.26858C79.8635 7.82383 80.2856 7.39884 80.9328 7.44515C81.434 7.48051 81.735 8.05152 82.2043 8.0545C82.5052 7.00366 83.0397 6.96227 83.8302 6.69182C84.2109 6.5615 85.3543 6.12317 85.1312 5.57547C85.5404 5.53839 85.9675 5.42209 86.399 5.26863C86.6908 5.16176 86.9831 5.05033 87.2752 4.93635C87.4271 4.80676 87.573 4.67057 87.7134 4.52777C87.9689 4.44176 88.151 4.70022 88.4326 4.47797C88.8982 4.11105 89.045 4.19464 89.5443 4.02038C89.3963 4.14731 89.2535 4.28022 89.1161 4.41912C89.3895 4.50664 89.3766 4.84645 89.0509 5.12814C88.6577 5.46822 88.4309 5.21545 88.0339 5.43112C88.9917 6.58497 90.3873 7.24492 91.5613 8.16876C92.7338 9.09221 93.5409 10.3834 94.3814 11.6012C95.3344 12.9859 96.1643 14.4472 97.0353 15.8857C97.5552 16.7467 97.9687 18.7768 99.043 19.0531C98.7203 18.3983 100.436 18.6284 100.198 17.8288C99.9912 17.1406 100.654 17.4478 100.847 16.9046C101.149 17.0615 102.304 17.0533 102.258 17.4931C102.205 17.9915 101.714 18.454 102.534 18.2925C103.203 18.1608 102.957 19.0819 103.44 19.1912C103.693 19.2487 104.029 19.0651 104.308 19.0363C104.702 18.9956 104.92 19.2751 105.316 19.2554C106.042 19.22 106.382 19.0172 107.063 18.5837C107.229 18.4781 107.452 18.565 107.604 18.5352C107.875 18.4819 107.948 18.2276 108.198 18.1546C109.947 17.6439 110.818 19.6133 111.27 20.6429C111.52 21.2142 112.118 21.2714 112.684 21.488C113.344 21.7397 113.411 22.2844 113.749 22.8386C113.895 23.0775 114.034 23.2172 114.12 23.4989C114.251 23.9273 114.561 23.568 114.885 23.715C115.318 23.9117 116.085 23.6725 116.511 23.897C117.049 24.18 117.205 23.7883 117.748 23.4421C117.874 23.3616 118.985 22.6769 118.595 23.1912C117.831 24.2008 120.211 25.0897 120.407 25.7187C119.956 25.5866 118.464 25.4079 118.66 26.4616C118.795 27.1977 118.308 27.8575 117.458 28.1871C116.818 28.4354 115.886 28.0868 115.495 28.9242C114.88 30.2379 115.206 31.4821 115.52 32.5011C115.855 33.5917 114.4 33.6653 113.732 34.125C113.189 34.4985 113.014 34.614 112.772 34.148C112.533 33.6878 111.613 33.912 111.084 33.9763C109.89 34.1209 109.328 33.5434 108.457 33.1474C107.602 32.7587 107.089 35.1682 106.909 35.7495C106.559 36.8784 106.052 37.9748 105.655 39.0861C105.281 40.1526 107.088 39.6057 106.476 40.848C106.216 41.3761 105.872 40.9702 105.665 40.8435C105.318 40.6315 104.85 40.9868 104.44 40.9048C104.109 40.8385 104.053 40.2 103.666 40.3621C103.129 40.5873 102.179 40.9301 101.659 40.9927C100.956 41.0774 99.0862 41.1513 98.4988 41.9623C98.0864 42.5315 100.819 42.1529 100.04 42.894C99.334 43.5644 100.112 45.6565 100.313 46.1296C100.501 46.5743 100.855 47.0761 100.83 47.63C100.816 48.0279 101.245 48.37 100.904 48.8281C100.61 48.5465 100.152 48.9832 99.8708 49.2733C100.068 49.3722 100.23 49.5094 100.353 49.6863C100.053 49.7595 99.7474 49.9231 99.4562 49.9085C99.4181 50.2227 99.2225 50.5661 99.2628 50.863C99.3204 51.2903 99.6742 51.7166 99.3513 52.2504C98.786 51.8206 98.6128 51.2894 97.7318 51.2771C96.8815 51.2657 96.784 50.5828 96.2576 50.1764C95.8075 49.8296 94.6553 49.8367 94.0355 49.7661C93.0165 49.6497 91.9307 49.6916 90.8994 49.6003C90.5559 49.5699 90.3596 49.5081 90.0805 49.3691C89.7046 49.1815 89.2557 49.445 88.8083 49.5482C88.4027 49.6422 86.3685 49.2724 86.2123 49.5588C85.5405 50.7887 82.2903 48.4903 81.5814 48.2231C81.6532 48.5023 80.2552 48.8263 80.0657 48.9191C79.2819 49.3024 79.2311 50.9008 79.5512 51.3337C79.1649 51.455 78.8588 51.1105 78.591 50.9848C78.1759 50.7896 77.6075 50.8001 77.1616 50.6338C76.3772 50.3411 75.4112 49.886 74.4813 49.92C74.2215 49.9292 73.8683 50.1857 73.7019 50.0359C73.588 49.9341 73.0809 50.0724 72.9309 50.1623C72.5765 50.3755 71.4292 51.9452 72.0174 52.0294C71.754 52.1846 71.1997 52.6723 70.9729 52.7564C70.5058 52.9297 70.5885 52.4047 70.0541 52.9328C69.2398 53.7372 68.5059 54.0905 67.5313 54.562C67.202 54.7216 66.8692 54.9564 66.5664 55.1776C66.2257 55.4266 66.5286 55.5936 66.1704 55.8988C65.7905 56.223 65.3999 56.4883 65.0905 56.9017C64.7075 57.4123 65.1482 57.7028 65.1018 58.1748C64.5938 58.0066 63.293 57.9287 63.5145 57.1224C63.6661 56.5681 63.3537 56.0197 62.7626 55.9953C61.7965 55.9558 59.5965 56.8484 59.2185 55.7528C59.009 55.0862 59.0294 54.3248 58.9476 53.6101C58.8403 52.6745 58.1193 53.2993 57.6522 52.8868C56.9387 52.2579 57.5872 50.3033 57.6996 49.3373C56.8073 49.419 56.7266 49.4887 56.3212 48.7149C55.9244 47.9592 55.1426 47.6659 54.6508 47.0011C54.0325 46.1563 53.6188 46.954 52.6517 47.1258C51.6816 47.2984 50.8146 47.0086 49.917 46.9216C49.8486 46.915 49.7796 46.9095 49.7101 46.905C49.6406 46.9005 49.5706 46.8971 49.5 46.8947C49.4295 46.8922 49.3584 46.8908 49.287 46.8903C49.2155 46.8898 49.1436 46.8903 49.0714 46.8917C48.9992 46.8931 48.9266 46.8954 48.8536 46.8986C48.7807 46.9017 48.7076 46.9058 48.6341 46.9106C48.5606 46.9155 48.4869 46.9212 48.4131 46.9276C48.3391 46.9341 48.265 46.9414 48.1909 46.9494C48.1167 46.9574 48.0424 46.9661 47.968 46.9755C47.8936 46.9849 47.8192 46.995 47.7447 47.0058C47.6703 47.0166 47.5959 47.028 47.5215 47.04C47.4471 47.0521 47.3728 47.0647 47.2985 47.0779C47.2243 47.0911 47.1502 47.1049 47.0763 47.1192C47.0023 47.1335 46.9286 47.1483 46.855 47.1636C46.7815 47.1789 46.7082 47.1946 46.6352 47.2108C46.5622 47.227 46.4895 47.2437 46.4172 47.2607C45.3019 47.5237 44.9737 46.6169 44.3347 46.0215C43.6776 45.4106 43.3017 44.6357 42.7293 43.9663C42.0783 43.206 42.4087 43.4466 41.5469 42.9272C41.5432 42.9249 41.8792 42.8316 41.6762 42.5209C41.4728 42.2099 41.1698 41.9301 40.8968 41.5098C40.2392 40.2919 40.9208 40.7679 41.1053 39.5907C41.1304 39.2669 39.3505 39.2685 39.3123 39.4819C38.6587 39.2063 38.8608 39.0789 39.2728 38.9469C39.1593 38.699 40.8712 39.2105 40.7321 38.9026C40.5941 38.5945 40.3058 38.6774 40.1582 38.3484C40.0105 38.0191 40.6992 38.5815 40.5585 38.2712C40.4176 37.9606 39.9835 38.1338 39.865 37.8815C40.0611 37.8999 41.0082 37.7957 40.3128 37.4215C40.161 37.3398 39.1395 37.6133 39.0259 37.5374C39.1283 37.4351 39.6885 36.6639 38.2753 36.6254C38.1451 36.5356 38.9013 37.0402 38.7327 37.6636C38.6237 38.0659 38.5146 38.785 38.4306 38.7248C38.3466 38.6645 38.3575 38.9969 38.0526 38.7829C37.7475 38.5688 37.7319 38.8338 37.4384 38.6282C37.1447 38.4225 37.9038 38.1337 37.6448 37.9537C37.3858 37.7736 36.1821 38.4525 35.981 38.3161C35.7798 38.1796 35.8299 39.0067 35.7102 38.9314C34.8455 38.3872 36.4544 39.1891 35.2269 39.5132C33.1354 40.0656 29.9147 40.6532 27.8868 41.6016C27.5201 41.773 27.7821 47.0872 27.7817 47.6526C27.7897 50.2777 27.7879 52.8877 27.746 55.4892C27.347 55.4779 26.9494 55.7597 26.5485 55.7602C26.0451 55.7606 25.6897 55.1497 25.465 54.7991C24.9061 53.9285 24.4542 52.9919 23.5552 52.427C22.558 51.8009 21.8972 51.5819 20.5715 51.9132C19.3012 52.2302 18.1799 52.8851 17.2582 53.9517C17.4451 53.368 17.016 52.8855 17.3495 52.3021C17.697 51.6934 18.2603 50.9294 17.7273 50.416C17.8063 50.5 17.8937 50.574 17.9906 50.6378C18.5844 49.9993 16.7768 49.8353 16.4477 49.6876C16.1043 49.5337 15.7873 49.9297 15.5144 49.5782C15.3018 49.3047 15.0764 48.9894 15.0028 48.6243C14.8967 48.0965 13.7894 49.1859 13.9112 47.9433C13.9528 47.5179 13.8763 47.2629 13.597 46.9962C13.2132 46.6303 13.1174 46.0295 12.9112 45.5349C12.612 44.8192 12.2755 44.4651 11.4999 44.3109C11.0839 44.2287 10.219 43.8159 10.9208 43.2034C11.3977 42.7877 12.2494 42.9877 12.6912 43.1303C12.9606 43.2172 13.1076 43.4856 13.3726 43.5586C13.7503 43.662 14.2591 43.4359 14.6713 43.5116C14.4584 42.9205 13.5322 42.8711 13.1543 42.4161C12.8004 41.9897 13.8854 40.6248 14.3911 40.4172C14.538 40.3567 15.1629 40.0022 15.2349 39.9986C15.3879 40.0392 15.5284 40.102 15.6563 40.1869C15.9011 40.2949 16.294 40.1291 16.5681 40.1047C17.5224 40.0211 18.7182 40.8485 19.6463 40.3387C19.2303 40.0957 18.3723 40.0004 18.2614 39.4293C18.1085 38.6342 19.4774 37.6503 19.4206 36.6806C19.367 35.7774 19.0423 35.0552 18.6678 34.3966C18.4868 34.0782 17.5584 33.9212 17.2046 34.2191C15.6023 35.5699 13.8029 32.0614 12.3874 34.1911C12.3296 34.2774 11.6521 34.3154 11.5903 34.3076C11.1597 34.2517 11.0468 34.7831 10.7025 35.0176C10.3928 35.2282 10.0525 35.3824 9.72349 35.5397C9.51039 35.6389 9.29433 35.6956 9.07521 35.7102C8.72639 35.7294 8.34383 35.2222 8.60751 35.8921C8.42646 35.7481 8.23013 35.6275 8.01688 35.5296C8.11844 35.6618 8.22051 35.7934 8.32258 35.9245C8.18175 35.8761 8.06876 35.9199 7.98343 36.0574C7.81741 36.5151 7.49475 35.9884 7.78629 36.4503C7.40965 36.2605 5.53062 35.7445 5.6018 35.2003C5.7017 34.4365 7.99092 35.6755 6.69551 34.052C5.8664 33.0134 5.46591 31.4183 4.11555 30.9615C3.66177 30.8082 3.06582 30.6354 2.54004 30.8096C2.51601 30.8175 2.49403 30.8265 2.47386 30.8362C2.45365 30.846 2.43523 30.8565 2.41838 30.8676C2.40149 30.8786 2.38616 30.8902 2.37205 30.902C2.35803 30.9139 2.3452 30.926 2.33342 30.9382C2.32167 30.9503 2.31088 30.9625 2.30087 30.9744C2.29082 30.9864 2.28162 30.9981 2.27285 31.0093C2.26407 31.0205 2.25579 31.0313 2.24775 31.0413C2.23971 31.0513 2.23187 31.0606 2.22407 31.0689C2.21622 31.0772 2.2084 31.0845 2.20024 31.0906C2.19213 31.0967 2.18369 31.1016 2.17472 31.1049C2.16576 31.1083 2.15626 31.1102 2.14594 31.1103C2.13566 31.1104 2.12454 31.1088 2.1124 31.1052C2.10019 31.1016 2.08697 31.0961 2.0724 31.0882C2.05787 31.0804 2.04199 31.0703 2.02456 31.0578C2.00709 31.0452 1.98802 31.0301 1.96715 31.0123C1.94624 30.9945 1.92356 30.974 1.89875 30.9504C1.88267 30.9351 1.86773 30.9191 1.85393 30.9024C1.8401 30.8857 1.82735 30.8683 1.81548 30.8504C1.8037 30.8324 1.79277 30.8138 1.78265 30.7948C1.77249 30.7757 1.76313 30.7561 1.75444 30.7362C1.74567 30.7162 1.73761 30.6958 1.72995 30.675C1.72238 30.6543 1.7153 30.6333 1.70854 30.612C1.70177 30.5907 1.69571 30.5691 1.68995 30.5475C1.68415 30.5258 1.67855 30.5039 1.67306 30.482C1.66754 30.4601 1.66212 30.4382 1.6566 30.4163C1.65103 30.3943 1.64536 30.3724 1.63952 30.3506C1.63368 30.3289 1.62761 30.3072 1.62112 30.2857C1.61471 30.2642 1.60786 30.243 1.60055 30.222C1.59321 30.201 1.58527 30.1804 1.57673 30.1601C1.56819 30.1398 1.559 30.1199 1.54899 30.1004C1.53894 30.081 1.52813 30.062 1.51635 30.0436C1.50452 30.0251 1.49173 30.0073 1.4779 29.9901C1.4854 29.9852 1.49286 29.9802 1.50035 29.9753C1.50781 29.9704 1.51526 29.9655 1.52276 29.9605C1.53022 29.9556 1.53772 29.9507 1.54522 29.9458C1.55271 29.9409 1.56022 29.936 1.56772 29.931C1.57522 29.9261 1.58272 29.9213 1.59022 29.9164C1.59776 29.9115 1.60524 29.9066 1.61277 29.9017C1.62023 29.8968 1.62778 29.8919 1.63527 29.887C1.64277 29.8821 1.65037 29.8772 1.65787 29.8724C1.66541 29.8675 1.67288 29.8626 1.68042 29.8577C1.68796 29.8529 1.69547 29.848 1.70297 29.8431C1.71054 29.8383 1.71808 29.8334 1.72561 29.8286C1.73315 29.8237 1.74064 29.8189 1.74821 29.814C1.75571 29.8092 1.76323 29.8043 1.77081 29.7995C1.77831 29.7946 1.78591 29.7898 1.79341 29.785C1.80094 29.7801 1.8085 29.7753 1.816 29.7705C1.82354 29.7656 1.83102 29.7608 1.8386 29.756C1.82739 29.7429 1.817 29.7294 1.80723 29.7157C1.79753 29.702 1.78847 29.6879 1.78001 29.6737C1.77158 29.6594 1.76378 29.6448 1.75651 29.6301C1.74925 29.6153 1.74248 29.6003 1.73618 29.5851C1.72992 29.5699 1.72407 29.5545 1.71859 29.5389C1.71314 29.5233 1.7081 29.5076 1.70335 29.4917C1.69856 29.4758 1.69406 29.4598 1.68981 29.4437C1.68556 29.4275 1.68154 29.4113 1.67764 29.395C1.67377 29.3786 1.67007 29.3622 1.66636 29.3458C1.66269 29.3293 1.65906 29.3128 1.65547 29.2962C1.65179 29.2797 1.64817 29.2631 1.64443 29.2466C1.64068 29.23 1.63685 29.2135 1.63287 29.197C1.62889 29.1805 1.62473 29.164 1.62037 29.1476C1.61592 29.1312 1.61125 29.1148 1.60626 29.0986C1.60131 29.0823 1.59599 29.0662 1.59027 29.0501C1.58455 29.0341 1.57838 29.0182 1.57178 29.0025C1.5659 28.9885 1.55837 28.9753 1.54956 28.9628C1.54067 28.9504 1.53047 28.9386 1.51899 28.9275C1.50751 28.9164 1.49487 28.906 1.48115 28.8962C1.4674 28.8864 1.45265 28.8771 1.437 28.8685C1.42135 28.8598 1.40475 28.8517 1.38751 28.844C1.37027 28.8364 1.35228 28.8292 1.33373 28.8225C1.31522 28.8158 1.29614 28.8095 1.2767 28.8035C1.25718 28.7976 1.23731 28.7921 1.21726 28.7868C1.1972 28.7816 1.17682 28.7767 1.15649 28.772C1.13613 28.7673 1.11577 28.7629 1.0954 28.7587C1.07511 28.7544 1.05492 28.7504 1.03502 28.7465C1.01508 28.7426 0.995454 28.7389 0.976286 28.7352C0.957079 28.7315 0.938358 28.728 0.920194 28.7244C0.90207 28.7208 0.884555 28.7173 0.867783 28.7137C0.851011 28.7101 0.835028 28.7065 0.819995 28.7028C0.804923 28.6991 0.790891 28.6953 0.777867 28.6913C0.733927 28.6777 0.691698 28.6641 0.651391 28.6505C0.610967 28.6368 0.572461 28.623 0.53567 28.6089C0.498918 28.5948 0.463928 28.5805 0.430847 28.5656C0.397767 28.5508 0.36652 28.5356 0.337111 28.5197C0.30774 28.5039 0.280215 28.4874 0.254554 28.4701C0.228971 28.4529 0.205193 28.4349 0.18332 28.4159C0.161524 28.397 0.141605 28.3771 0.123596 28.3561C0.105587 28.3352 0.089489 28.3131 0.0753833 28.2898C0.061239 28.2664 0.0490808 28.2418 0.038917 28.2158C0.0287531 28.1898 0.0205608 28.1623 0.0143388 28.1333C0.00815545 28.1043 0.0039072 28.0736 0.00174304 28.0413C-0.000421131 28.0089 -0.000575187 27.9747 0.00131846 27.9387C0.0032121 27.9027 0.00711359 27.8647 0.013065 27.8247C0.0190938 27.7846 0.0271878 27.7425 0.037313 27.6981C0.0475155 27.6537 0.0597805 27.6071 0.0741567 27.5581C0.0884943 27.509 0.104969 27.4576 0.123596 27.4036Z" fill="#FAEBC4"/>
<path d="M36.6265 38.717C36.6462 38.9477 36.726 39.1964 36.8495 39.3693C37.425 38.2393 37.6722 40.422 37.7444 40.5082C37.784 40.2319 37.8374 39.7231 37.6564 39.5322C38.6644 40.2556 38.0105 40.8507 37.9695 40.9203L36.0902 39.6918C36.1742 39.5273 36.1283 39.0715 36.7076 39.383C36.4683 39.1857 36.4497 39.0605 36.6561 38.7166" fill="#FAEBC4"/>
</svg>
