<svg width="274" height="519" viewBox="0 0 274 519" fill="none" xmlns="http://www.w3.org/2000/svg">
<g clip-path="url(#clip0_141_8)">
<rect x="2" width="270" height="519" rx="20" fill="white"/>
<path d="M36.1784 79L44.2484 58H46.1084L54.1784 79H51.9884L48.2684 69.16H41.4584L38.3684 79H36.1784ZM44.4584 59.56L41.6684 68.44H47.9984L44.6384 59.56H44.4584ZM59.0445 79V58H65.6445C67.9645 58 69.9845 58.44 71.7045 59.32C73.4245 60.2 74.7645 61.43 75.7245 63.01C76.6845 64.57 77.1645 66.4 77.1645 68.5C77.1645 70.6 76.6845 72.44 75.7245 74.02C74.7645 75.58 73.4245 76.8 71.7045 77.68C69.9845 78.56 67.9645 79 65.6445 79H59.0445ZM65.6445 58.72H61.0845V78.28H65.6445C68.5445 78.28 70.8045 77.42 72.4245 75.7C74.0645 73.98 74.8845 71.58 74.8845 68.5C74.8845 65.42 74.0645 63.02 72.4245 61.3C70.8045 59.58 68.5445 58.72 65.6445 58.72ZM83.4781 79V58H85.5181V79H83.4781ZM93.3219 58H95.3619V78.4C95.7419 78.4 96.3419 78.34 97.1619 78.22L102.142 77.47V79H93.3219V58ZM120.71 79L117.89 75.94C117.07 77.16 116.18 78.05 115.22 78.61C114.28 79.15 113.16 79.42 111.86 79.42C110.56 79.42 109.42 79.19 108.44 78.73C107.46 78.25 106.7 77.59 106.16 76.75C105.62 75.89 105.35 74.9 105.35 73.78C105.35 72.4 105.76 71.18 106.58 70.12C107.42 69.04 108.62 68.19 110.18 67.57L109.94 67.3C109.02 66.3 108.36 65.4 107.96 64.6C107.56 63.78 107.36 62.94 107.36 62.08C107.36 60.72 107.79 59.63 108.65 58.81C109.51 57.99 110.64 57.58 112.04 57.58C113.4 57.58 114.49 57.96 115.31 58.72C116.15 59.46 116.57 60.45 116.57 61.69C116.57 62.81 116.2 63.85 115.46 64.81C114.74 65.77 113.76 66.57 112.52 67.21L118.4 73.6L120.5 68.02H122.54L118.88 74.11L123.38 79H120.71ZM111.29 65.89L112.1 66.76C113.82 65.62 114.68 64 114.68 61.9C114.68 60.76 114.44 59.88 113.96 59.26C113.5 58.62 112.86 58.3 112.04 58.3C111.22 58.3 110.53 58.61 109.97 59.23C109.43 59.83 109.16 60.63 109.16 61.63C109.16 62.31 109.33 62.99 109.67 63.67C110.01 64.33 110.55 65.07 111.29 65.89ZM107.3 73.54C107.3 75.08 107.75 76.33 108.65 77.29C109.57 78.23 110.76 78.7 112.22 78.7C114.22 78.7 115.95 77.6 117.41 75.4L110.63 68.02C108.41 69.2 107.3 71.04 107.3 73.54ZM124.948 79L133.018 58H134.878L142.948 79H140.758L137.038 69.16H130.228L127.138 79H124.948ZM133.228 59.56L130.438 68.44H136.768L133.408 59.56H133.228ZM147.814 58H149.854V78.4C150.234 78.4 150.834 78.34 151.654 78.22L156.634 77.47V79H147.814V58ZM161.642 79V58H165.812C167.972 58 169.652 58.45 170.852 59.35C172.052 60.25 172.652 61.5 172.652 63.1C172.652 64.28 172.302 65.29 171.602 66.13C170.902 66.95 169.922 67.51 168.662 67.81V67.99C170.382 68.21 171.722 68.81 172.682 69.79C173.662 70.75 174.152 71.97 174.152 73.45C174.152 75.19 173.482 76.55 172.142 77.53C170.802 78.51 168.922 79 166.502 79H161.642ZM165.842 58.72H163.682V67.72H165.812C168.972 67.72 170.552 66.22 170.552 63.22C170.552 60.22 168.982 58.72 165.842 58.72ZM166.502 68.44H163.682V78.28H166.502C170.162 78.28 171.992 76.64 171.992 73.36C171.992 70.08 170.162 68.44 166.502 68.44ZM180.158 79V58H182.198V79H180.158ZM189.552 79L190.302 57.58H190.662L205.752 75.82H205.932L205.272 58H207.312L206.562 79.42H206.202L191.112 61.18H190.932L191.592 79H189.552ZM211.55 79L219.62 58H221.48L229.55 79H227.36L223.64 69.16H216.83L213.74 79H211.55ZM219.83 59.56L217.04 68.44H223.37L220.01 59.56H219.83ZM106.663 117L105.667 115.506C105.257 116.043 104.744 116.478 104.129 116.81C103.514 117.132 102.84 117.293 102.107 117.293H101.653C101.048 117.293 100.477 117.181 99.9395 116.956C99.4023 116.722 98.9336 116.404 98.5332 116.004C98.1328 115.604 97.8154 115.135 97.5811 114.598C97.3564 114.061 97.2441 113.489 97.2441 112.884V112.737C97.2441 112.132 97.3564 111.561 97.5811 111.023C97.8154 110.486 98.1328 110.018 98.5332 109.617C98.9336 109.217 99.4023 108.904 99.9395 108.68C100.477 108.445 101.048 108.328 101.653 108.328H105.462V106.014C105.462 105.652 105.394 105.315 105.257 105.003C105.12 104.681 104.935 104.402 104.7 104.168C104.466 103.934 104.188 103.748 103.865 103.611C103.553 103.475 103.216 103.406 102.854 103.406H101.8C101.438 103.406 101.097 103.475 100.774 103.611C100.462 103.748 100.188 103.934 99.9541 104.168C99.7197 104.402 99.5342 104.681 99.3975 105.003C99.2607 105.315 99.1924 105.652 99.1924 106.014V106.556L97.3906 106.263V106.116C97.3906 105.511 97.5029 104.939 97.7275 104.402C97.9619 103.865 98.2793 103.396 98.6797 102.996C99.0801 102.596 99.5488 102.283 100.086 102.059C100.623 101.824 101.194 101.707 101.8 101.707H102.854C103.46 101.707 104.031 101.824 104.568 102.059C105.105 102.283 105.574 102.596 105.975 102.996C106.375 103.396 106.688 103.865 106.912 104.402C107.146 104.939 107.264 105.511 107.264 106.116V117H106.663ZM105.462 109.734H101.653C101.292 109.734 100.95 109.803 100.628 109.939C100.315 110.076 100.042 110.267 99.8076 110.511C99.5732 110.745 99.3877 111.023 99.251 111.346C99.1143 111.658 99.0459 111.995 99.0459 112.356V112.986C99.0459 113.348 99.1143 113.689 99.251 114.012C99.3877 114.324 99.5732 114.598 99.8076 114.832C100.042 115.066 100.315 115.252 100.628 115.389C100.95 115.525 101.292 115.594 101.653 115.594H102.854C103.216 115.594 103.553 115.525 103.865 115.389C104.188 115.252 104.466 115.066 104.7 114.832C104.935 114.598 105.12 114.324 105.257 114.012C105.394 113.689 105.462 113.348 105.462 112.986V109.734ZM111.321 98.3965V95.9941H113.416V98.3965H111.321ZM111.468 117V102H113.27V117H111.468ZM121.897 103.714C121.536 103.714 121.194 103.782 120.872 103.919C120.56 104.056 120.286 104.241 120.052 104.476C119.817 104.71 119.632 104.988 119.495 105.311C119.358 105.623 119.29 105.96 119.29 106.321V117H117.488V102H118.089L119.07 103.523C119.48 102.967 119.993 102.527 120.608 102.205C121.233 101.873 121.912 101.707 122.645 101.707H123.699V103.714H121.897ZM126.702 117V95.9941H128.504V117H126.702ZM133.177 98.3965V95.9941H135.271V98.3965H133.177ZM133.323 117V102H135.125V117H133.323ZM147.562 117V106.014C147.562 105.652 147.493 105.315 147.356 105.003C147.22 104.681 147.034 104.402 146.8 104.168C146.565 103.934 146.287 103.748 145.965 103.611C145.652 103.475 145.315 103.406 144.954 103.406H143.753C143.392 103.406 143.05 103.475 142.728 103.611C142.415 103.748 142.142 103.934 141.907 104.168C141.673 104.402 141.487 104.681 141.351 105.003C141.214 105.315 141.146 105.652 141.146 106.014V117H139.344V102H139.944L140.926 103.523C141.336 102.967 141.849 102.527 142.464 102.205C143.089 101.873 143.768 101.707 144.5 101.707H144.954C145.56 101.707 146.131 101.824 146.668 102.059C147.205 102.283 147.674 102.596 148.074 102.996C148.475 103.396 148.787 103.865 149.012 104.402C149.246 104.939 149.363 105.511 149.363 106.116V117H147.562ZM162.986 112.884C162.986 113.489 162.869 114.061 162.635 114.598C162.41 115.135 162.098 115.604 161.697 116.004C161.297 116.404 160.828 116.722 160.291 116.956C159.754 117.181 159.183 117.293 158.577 117.293H157.376C156.771 117.293 156.199 117.181 155.662 116.956C155.125 116.722 154.656 116.404 154.256 116.004C153.855 115.604 153.538 115.135 153.304 114.598C153.079 114.061 152.967 113.489 152.967 112.884V106.116C152.967 105.511 153.079 104.939 153.304 104.402C153.538 103.865 153.855 103.396 154.256 102.996C154.656 102.596 155.125 102.283 155.662 102.059C156.199 101.824 156.771 101.707 157.376 101.707H158.577C159.183 101.707 159.754 101.824 160.291 102.059C160.828 102.283 161.297 102.596 161.697 102.996C162.098 103.396 162.41 103.865 162.635 104.402C162.869 104.939 162.986 105.511 162.986 106.116V109.646H154.769V112.986C154.769 113.348 154.837 113.689 154.974 114.012C155.11 114.324 155.296 114.598 155.53 114.832C155.765 115.066 156.038 115.252 156.351 115.389C156.673 115.525 157.015 115.594 157.376 115.594H158.577C158.938 115.594 159.275 115.525 159.588 115.389C159.91 115.252 160.188 115.066 160.423 114.832C160.657 114.598 160.843 114.324 160.979 114.012C161.116 113.689 161.185 113.348 161.185 112.986V111.99L162.986 112.283V112.884ZM161.185 106.014C161.185 105.652 161.116 105.315 160.979 105.003C160.843 104.681 160.657 104.402 160.423 104.168C160.188 103.934 159.91 103.748 159.588 103.611C159.275 103.475 158.938 103.406 158.577 103.406H157.376C157.015 103.406 156.673 103.475 156.351 103.611C156.038 103.748 155.765 103.934 155.53 104.168C155.296 104.402 155.11 104.681 154.974 105.003C154.837 105.315 154.769 105.652 154.769 106.014V108.24H161.185V106.014ZM176.902 113.191C176.902 113.797 176.78 114.354 176.536 114.861C176.292 115.359 175.96 115.789 175.54 116.15C175.12 116.512 174.632 116.795 174.075 117C173.528 117.195 172.952 117.293 172.347 117.293H171.146C170.54 117.293 169.959 117.181 169.402 116.956C168.855 116.722 168.372 116.404 167.952 116.004C167.542 115.604 167.21 115.135 166.956 114.598C166.712 114.061 166.59 113.489 166.59 112.884V112.283L168.392 111.99V112.986C168.392 113.348 168.465 113.689 168.611 114.012C168.768 114.324 168.973 114.598 169.227 114.832C169.48 115.066 169.773 115.252 170.105 115.389C170.438 115.525 170.784 115.594 171.146 115.594H172.347C172.708 115.594 173.055 115.54 173.387 115.433C173.719 115.325 174.012 115.174 174.266 114.979C174.529 114.773 174.734 114.529 174.881 114.246C175.037 113.963 175.115 113.641 175.115 113.279C175.115 112.742 174.998 112.303 174.764 111.961C174.529 111.619 174.217 111.336 173.826 111.111C173.445 110.877 173.006 110.687 172.508 110.54C172.02 110.384 171.517 110.232 170.999 110.086C170.481 109.93 169.974 109.754 169.476 109.559C168.987 109.363 168.548 109.109 168.157 108.797C167.776 108.475 167.469 108.074 167.234 107.596C167 107.117 166.883 106.521 166.883 105.809C166.883 105.203 167 104.651 167.234 104.153C167.469 103.646 167.786 103.211 168.187 102.85C168.587 102.488 169.051 102.21 169.578 102.015C170.115 101.81 170.687 101.707 171.292 101.707H172.347C172.952 101.707 173.523 101.824 174.061 102.059C174.598 102.283 175.066 102.596 175.467 102.996C175.867 103.396 176.18 103.865 176.404 104.402C176.639 104.939 176.756 105.511 176.756 106.116V106.175L174.954 106.468V106.014C174.954 105.652 174.886 105.315 174.749 105.003C174.612 104.681 174.427 104.402 174.192 104.168C173.958 103.934 173.68 103.748 173.357 103.611C173.045 103.475 172.708 103.406 172.347 103.406H171.292C170.931 103.406 170.589 103.46 170.267 103.567C169.954 103.675 169.681 103.831 169.446 104.036C169.212 104.231 169.026 104.471 168.89 104.754C168.753 105.037 168.685 105.359 168.685 105.721C168.685 106.238 168.802 106.663 169.036 106.995C169.271 107.317 169.578 107.591 169.959 107.815C170.35 108.04 170.789 108.23 171.277 108.387C171.775 108.533 172.278 108.689 172.786 108.855C173.304 109.012 173.807 109.192 174.295 109.397C174.793 109.603 175.232 109.866 175.613 110.188C176.004 110.511 176.316 110.916 176.551 111.404C176.785 111.883 176.902 112.479 176.902 113.191Z" fill="#D9B770"/>
<path d="M42.4902 398.271H42.3379C42.0176 398.271 41.6914 398.445 41.3594 398.793C41.2188 398.941 41.0215 399.215 40.7676 399.613L38.8516 402.631V402.812H41.0781V403.24H38.8516V404.623C38.8516 405.111 38.9062 405.416 39.0156 405.537C39.1641 405.701 39.3984 405.783 39.7188 405.783H39.9766V406H36.6016V405.783H36.8828C37.2188 405.783 37.457 405.682 37.5977 405.479C37.6836 405.354 37.7266 405.068 37.7266 404.623V403.24H35.5V402.812H37.7266V402.742L35.5469 399.414C35.3086 399.051 35.1582 398.834 35.0957 398.764C34.9551 398.615 34.7402 398.471 34.4512 398.33C34.3691 398.291 34.2559 398.271 34.1113 398.271V398.055H37.5098V398.271H37.334C37.1465 398.271 36.9844 398.311 36.8477 398.389C36.6797 398.482 36.5957 398.615 36.5957 398.787C36.5957 398.928 36.7148 399.182 36.9531 399.549L38.6113 402.109L40.1699 399.66C40.4043 399.293 40.5215 399.02 40.5215 398.84C40.5215 398.609 40.4121 398.443 40.1934 398.342C40.0879 398.295 39.9297 398.271 39.7188 398.271V398.055H42.4902V398.271ZM51.6426 405.783V406H42.9414V405.783C43.2656 405.783 43.4824 405.725 43.5918 405.607C43.7012 405.486 43.7559 405.197 43.7559 404.74V401.893C43.7559 401.475 43.7344 401.229 43.6914 401.154C43.6484 401.076 43.582 401.008 43.4922 400.949C43.4023 400.887 43.2188 400.855 42.9414 400.855V400.633H45.5371V400.855C45.2754 400.855 45.0996 400.883 45.0098 400.938C44.9199 400.988 44.8496 401.053 44.7988 401.131C44.748 401.209 44.7227 401.463 44.7227 401.893V404.852C44.7227 405.223 44.7559 405.443 44.8223 405.514C44.8887 405.584 45.1113 405.619 45.4902 405.619H46.123C46.373 405.619 46.5371 405.605 46.6152 405.578C46.6934 405.547 46.7441 405.496 46.7676 405.426C46.7949 405.355 46.8086 405.125 46.8086 404.734V401.893C46.8086 401.479 46.7871 401.232 46.7441 401.154C46.7012 401.072 46.6328 401.002 46.5391 400.943C46.4492 400.885 46.2676 400.855 45.9941 400.855V400.633H48.4902V400.855C48.2793 400.859 48.123 400.895 48.0215 400.961C47.9199 401.027 47.8535 401.111 47.8223 401.213C47.791 401.314 47.7754 401.541 47.7754 401.893V404.922C47.7754 405.258 47.8086 405.459 47.875 405.525C47.9414 405.588 48.1465 405.619 48.4902 405.619H49.1934C49.5684 405.619 49.7734 405.58 49.8086 405.502C49.8438 405.42 49.8613 405.176 49.8613 404.77V401.893C49.8613 401.475 49.8398 401.229 49.7969 401.154C49.7539 401.076 49.6875 401.008 49.5977 400.949C49.5078 400.887 49.3242 400.855 49.0469 400.855V400.633H51.6426V400.855C51.377 400.855 51.1992 400.883 51.1094 400.938C51.0234 400.988 50.9551 401.053 50.9043 401.131C50.8535 401.209 50.8281 401.463 50.8281 401.893V404.424C50.8281 404.947 50.8418 405.271 50.8691 405.396C50.9004 405.521 50.9688 405.615 51.0742 405.678C51.1797 405.74 51.3691 405.775 51.6426 405.783ZM55.334 405.227C54.7832 405.652 54.4375 405.898 54.2969 405.965C54.0859 406.062 53.8613 406.111 53.623 406.111C53.252 406.111 52.9453 405.984 52.7031 405.73C52.4648 405.477 52.3457 405.143 52.3457 404.729C52.3457 404.467 52.4043 404.24 52.5215 404.049C52.6816 403.783 52.959 403.533 53.3535 403.299C53.752 403.064 54.4121 402.779 55.334 402.443V402.232C55.334 401.697 55.248 401.33 55.0762 401.131C54.9082 400.932 54.6621 400.832 54.3379 400.832C54.0918 400.832 53.8965 400.898 53.752 401.031C53.6035 401.164 53.5293 401.316 53.5293 401.488L53.541 401.828C53.541 402.008 53.4941 402.146 53.4004 402.244C53.3105 402.342 53.1914 402.391 53.043 402.391C52.8984 402.391 52.7793 402.34 52.6855 402.238C52.5957 402.137 52.5508 401.998 52.5508 401.822C52.5508 401.486 52.7227 401.178 53.0664 400.896C53.4102 400.615 53.8926 400.475 54.5137 400.475C54.9902 400.475 55.3809 400.555 55.6855 400.715C55.916 400.836 56.0859 401.025 56.1953 401.283C56.2656 401.451 56.3008 401.795 56.3008 402.314V404.137C56.3008 404.648 56.3105 404.963 56.3301 405.08C56.3496 405.193 56.3809 405.27 56.4238 405.309C56.4707 405.348 56.5234 405.367 56.582 405.367C56.6445 405.367 56.6992 405.354 56.7461 405.326C56.8281 405.275 56.9863 405.133 57.2207 404.898V405.227C56.7832 405.812 56.3652 406.105 55.9668 406.105C55.7754 406.105 55.623 406.039 55.5098 405.906C55.3965 405.773 55.3379 405.547 55.334 405.227ZM55.334 404.846V402.801C54.7441 403.035 54.3633 403.201 54.1914 403.299C53.8828 403.471 53.6621 403.65 53.5293 403.838C53.3965 404.025 53.3301 404.23 53.3301 404.453C53.3301 404.734 53.4141 404.969 53.582 405.156C53.75 405.34 53.9434 405.432 54.1621 405.432C54.459 405.432 54.8496 405.236 55.334 404.846ZM57.2266 400.633H61.8672L62.1016 402.086H61.8379C61.791 401.793 61.7129 401.566 61.6035 401.406C61.4941 401.246 61.3691 401.141 61.2285 401.09C61.0879 401.039 60.8477 401.014 60.5078 401.014H60.0391V404.74C60.0391 405.139 60.0625 405.393 60.1094 405.502C60.1602 405.607 60.2402 405.678 60.3496 405.713C60.459 405.748 60.709 405.771 61.0996 405.783V406H58.1816V405.783C58.5566 405.775 58.7969 405.715 58.9023 405.602C59.0117 405.488 59.0664 405.201 59.0664 404.74V401.014H58.5859C58.25 401.014 58.0215 401.035 57.9004 401.078C57.7793 401.117 57.6621 401.215 57.5488 401.371C57.4395 401.523 57.3457 401.762 57.2676 402.086H57.0039L57.2266 400.633ZM67.2754 400.855V400.633H69.9766V400.855C69.7383 400.855 69.5645 400.881 69.4551 400.932C69.3457 400.982 69.2695 401.061 69.2266 401.166C69.1875 401.271 69.168 401.514 69.168 401.893V404.74C69.168 405.107 69.1855 405.346 69.2207 405.455C69.2559 405.561 69.3301 405.643 69.4434 405.701C69.5605 405.756 69.7383 405.783 69.9766 405.783V406H67.2754V405.783C67.5801 405.771 67.7773 405.752 67.8672 405.725C67.9609 405.693 68.0391 405.617 68.1016 405.496C68.1641 405.375 68.1953 405.123 68.1953 404.74V401.893C68.1953 401.514 68.1738 401.27 68.1309 401.16C68.0879 401.051 68.0117 400.975 67.9023 400.932C67.7969 400.885 67.5879 400.859 67.2754 400.855ZM64.2285 403.023L64.8965 403.012C66.4902 403.012 67.2871 403.504 67.2871 404.488C67.2871 404.945 67.0918 405.312 66.7012 405.59C66.3145 405.863 65.7559 406 65.0254 406H62.4473V405.783C62.7949 405.783 63.0176 405.721 63.1152 405.596C63.2129 405.467 63.2617 405.182 63.2617 404.74V401.893C63.2617 401.475 63.2402 401.229 63.1973 401.154C63.1543 401.076 63.0879 401.008 62.998 400.949C62.9082 400.887 62.7246 400.855 62.4473 400.855V400.633H65.2539V400.855C64.8672 400.855 64.6289 400.879 64.5391 400.926C64.4492 400.969 64.375 401.027 64.3164 401.102C64.2578 401.172 64.2285 401.436 64.2285 401.893V403.023ZM64.2285 405.537C64.4355 405.592 64.6426 405.619 64.8496 405.619C65.2402 405.619 65.5566 405.516 65.7988 405.309C66.0449 405.102 66.168 404.84 66.168 404.523C66.168 403.773 65.6465 403.398 64.6035 403.398C64.5137 403.398 64.3887 403.4 64.2285 403.404V405.537ZM72.2969 403.029H74.6172V401.893C74.6172 401.553 74.6035 401.332 74.5762 401.23C74.5488 401.125 74.4805 401.037 74.3711 400.967C74.2656 400.893 74.0762 400.855 73.8027 400.855V400.633H76.3984V400.855C76.1562 400.855 75.9785 400.883 75.8652 400.938C75.7559 400.992 75.6816 401.072 75.6426 401.178C75.6035 401.279 75.584 401.518 75.584 401.893V404.74C75.584 405.08 75.5977 405.305 75.625 405.414C75.6562 405.523 75.7285 405.613 75.8418 405.684C75.9551 405.75 76.1406 405.783 76.3984 405.783V406H73.8027V405.783C74.127 405.783 74.3438 405.725 74.4531 405.607C74.5625 405.486 74.6172 405.197 74.6172 404.74V403.41H72.2969V404.74C72.2969 405.08 72.3105 405.305 72.3379 405.414C72.3691 405.523 72.4414 405.613 72.5547 405.684C72.668 405.75 72.8535 405.783 73.1113 405.783V406H70.5156V405.783C70.8633 405.783 71.0859 405.721 71.1836 405.596C71.2812 405.467 71.3301 405.182 71.3301 404.74V401.893C71.3301 401.553 71.3145 401.328 71.2832 401.219C71.2559 401.109 71.1855 401.021 71.0723 400.955C70.959 400.889 70.7734 400.855 70.5156 400.855V400.633H73.1113V400.855C72.8691 400.855 72.6914 400.883 72.5781 400.938C72.4688 400.992 72.3945 401.072 72.3555 401.178C72.3164 401.279 72.2969 401.518 72.2969 401.893V403.029ZM85.4277 406H83.8457C83.3535 405.285 82.9082 404.553 82.5098 403.803C82.416 403.631 82.3301 403.504 82.252 403.422C82.1777 403.336 82.0742 403.293 81.9414 403.293C81.8945 403.293 81.8203 403.297 81.7188 403.305V404.74C81.7188 405.127 81.7402 405.375 81.7832 405.484C81.8301 405.59 81.9121 405.666 82.0293 405.713C82.1465 405.76 82.3438 405.783 82.6211 405.783V406H79.9375V405.783C80.2852 405.783 80.5078 405.721 80.6055 405.596C80.7031 405.467 80.752 405.182 80.752 404.74V401.893C80.752 401.475 80.7305 401.229 80.6875 401.154C80.6445 401.076 80.5781 401.008 80.4883 400.949C80.3984 400.887 80.2148 400.855 79.9375 400.855V400.633H82.6211V400.855C82.2969 400.855 82.0957 400.879 82.0176 400.926C81.9434 400.973 81.875 401.031 81.8125 401.102C81.75 401.168 81.7188 401.432 81.7188 401.893V402.947C81.8086 402.955 81.8691 402.959 81.9004 402.959C82.1387 402.959 82.3613 402.893 82.5684 402.76C82.7793 402.623 82.9668 402.336 83.1309 401.898C83.2832 401.484 83.4082 401.205 83.5059 401.061C83.6074 400.916 83.7461 400.799 83.9219 400.709C84.1016 400.615 84.2891 400.568 84.4844 400.568C84.6953 400.568 84.8633 400.619 84.9883 400.721C85.1133 400.822 85.1758 400.955 85.1758 401.119C85.1758 401.256 85.1309 401.373 85.041 401.471C84.9512 401.564 84.8262 401.611 84.666 401.611C84.5801 401.611 84.4727 401.588 84.3438 401.541C84.1797 401.482 84.0547 401.453 83.9688 401.453C83.7891 401.453 83.6406 401.607 83.5234 401.916C83.3906 402.271 83.293 402.502 83.2305 402.607C83.168 402.709 83.0488 402.846 82.873 403.018C82.9941 403.053 83.125 403.143 83.2656 403.287C83.4102 403.432 83.6758 403.844 84.0625 404.523C84.3711 405.066 84.6016 405.41 84.7539 405.555C84.9102 405.699 85.1348 405.775 85.4277 405.783V406ZM91.498 400.855C91.2676 400.855 91.0977 400.9 90.9883 400.99C90.8164 401.131 90.6543 401.389 90.502 401.764L89.002 405.367V407.137C89.002 407.582 89.0234 407.861 89.0664 407.975C89.0977 408.061 89.1641 408.135 89.2656 408.197C89.4062 408.283 89.5723 408.326 89.7637 408.326H90.0039V408.566H86.9863V408.326H87.1738C87.6348 408.326 87.9023 408.164 87.9766 407.84C87.9922 407.77 88 407.535 88 407.137V405.479L86.459 401.699C86.3457 401.41 86.2363 401.211 86.1309 401.102C85.9785 400.941 85.7734 400.859 85.5156 400.855V400.633H88.1055V400.855C87.6328 400.887 87.3965 401.008 87.3965 401.219C87.3965 401.277 87.4258 401.393 87.4844 401.564L88.7559 404.846L90.0215 401.652C90.0918 401.457 90.127 401.311 90.127 401.213C90.127 401.131 90.0859 401.051 90.0039 400.973C89.9492 400.918 89.8242 400.885 89.6289 400.873C89.6016 400.869 89.5488 400.863 89.4707 400.855V400.633H91.498V400.855ZM93.5547 403.029H95.875V401.893C95.875 401.553 95.8613 401.332 95.834 401.23C95.8066 401.125 95.7383 401.037 95.6289 400.967C95.5234 400.893 95.334 400.855 95.0605 400.855V400.633H97.6562V400.855C97.4141 400.855 97.2363 400.883 97.123 400.938C97.0137 400.992 96.9395 401.072 96.9004 401.178C96.8613 401.279 96.8418 401.518 96.8418 401.893V404.74C96.8418 405.08 96.8555 405.305 96.8828 405.414C96.9141 405.523 96.9863 405.613 97.0996 405.684C97.2129 405.75 97.3984 405.783 97.6562 405.783V406H95.0605V405.783C95.3848 405.783 95.6016 405.725 95.7109 405.607C95.8203 405.486 95.875 405.197 95.875 404.74V403.41H93.5547V404.74C93.5547 405.08 93.5684 405.305 93.5957 405.414C93.627 405.523 93.6992 405.613 93.8125 405.684C93.9258 405.75 94.1113 405.783 94.3691 405.783V406H91.7734V405.783C92.1211 405.783 92.3438 405.721 92.4414 405.596C92.5391 405.467 92.5879 405.182 92.5879 404.74V401.893C92.5879 401.553 92.5723 401.328 92.541 401.219C92.5137 401.109 92.4434 401.021 92.3301 400.955C92.2168 400.889 92.0312 400.855 91.7734 400.855V400.633H94.3691V400.855C94.127 400.855 93.9492 400.883 93.8359 400.938C93.7266 400.992 93.6523 401.072 93.6133 401.178C93.5742 401.279 93.5547 401.518 93.5547 401.893V403.029ZM99.666 397.668C99.8301 397.668 99.9688 397.727 100.082 397.844C100.199 397.957 100.258 398.096 100.258 398.26C100.258 398.424 100.199 398.564 100.082 398.682C99.9688 398.799 99.8301 398.857 99.666 398.857C99.502 398.857 99.3613 398.799 99.2441 398.682C99.127 398.564 99.0684 398.424 99.0684 398.26C99.0684 398.096 99.125 397.957 99.2383 397.844C99.3555 397.727 99.498 397.668 99.666 397.668ZM100.152 400.475V404.787C100.152 405.123 100.176 405.348 100.223 405.461C100.273 405.57 100.346 405.652 100.439 405.707C100.537 405.762 100.713 405.789 100.967 405.789V406H98.3594V405.789C98.6211 405.789 98.7969 405.764 98.8867 405.713C98.9766 405.662 99.0469 405.578 99.0977 405.461C99.1523 405.344 99.1797 405.119 99.1797 404.787V402.719C99.1797 402.137 99.1621 401.76 99.127 401.588C99.0996 401.463 99.0566 401.377 98.998 401.33C98.9395 401.279 98.8594 401.254 98.7578 401.254C98.6484 401.254 98.5156 401.283 98.3594 401.342L98.2773 401.131L99.8945 400.475H100.152Z" fill="#D9B770" fill-opacity="0.8"/>
<path d="M39.2109 421.188V429.852C39.2109 430.503 39.2396 430.919 39.2969 431.102C39.3542 431.279 39.474 431.424 39.6562 431.539C39.8385 431.654 40.1302 431.711 40.5312 431.711H40.7734V432H35.1953V431.711H35.4766C35.9297 431.711 36.2526 431.659 36.4453 431.555C36.638 431.451 36.7682 431.307 36.8359 431.125C36.9036 430.943 36.9375 430.518 36.9375 429.852V424.359C36.9375 423.87 36.9141 423.565 36.8672 423.445C36.8203 423.32 36.7318 423.216 36.6016 423.133C36.4766 423.044 36.3307 423 36.1641 423C35.8984 423 35.5755 423.083 35.1953 423.25L35.0547 422.969L38.9531 421.188H39.2109ZM49.0941 426.703C49.0941 427.76 48.9456 428.747 48.6487 429.664C48.4717 430.227 48.2321 430.688 47.93 431.047C47.6331 431.406 47.2946 431.693 46.9144 431.906C46.5342 432.115 46.1201 432.219 45.6722 432.219C45.1618 432.219 44.7008 432.089 44.2894 431.828C43.8779 431.568 43.5133 431.195 43.1956 430.711C42.9665 430.357 42.7659 429.885 42.5941 429.297C42.3701 428.5 42.2581 427.677 42.2581 426.828C42.2581 425.677 42.4196 424.62 42.7425 423.656C43.0081 422.859 43.4118 422.25 43.9534 421.828C44.4951 421.401 45.068 421.188 45.6722 421.188C46.2868 421.188 46.8597 421.398 47.3909 421.82C47.9274 422.237 48.3206 422.799 48.5706 423.508C48.9196 424.482 49.0941 425.547 49.0941 426.703ZM46.6878 426.688C46.6878 424.833 46.6774 423.753 46.6566 423.445C46.6045 422.721 46.4795 422.232 46.2816 421.977C46.1514 421.81 45.9404 421.727 45.6487 421.727C45.4248 421.727 45.2477 421.789 45.1175 421.914C44.9248 422.096 44.7946 422.419 44.7269 422.883C44.6592 423.341 44.6253 424.948 44.6253 427.703C44.6253 429.203 44.6774 430.208 44.7816 430.719C44.8597 431.089 44.9717 431.336 45.1175 431.461C45.2633 431.586 45.456 431.648 45.6956 431.648C45.956 431.648 46.1514 431.565 46.2816 431.398C46.5003 431.107 46.6253 430.656 46.6566 430.047L46.6878 426.688ZM53.8522 421.164L50.3756 432.242H49.3756L52.8678 421.164H53.8522ZM58.7041 421.188V429.852C58.7041 430.503 58.7327 430.919 58.79 431.102C58.8473 431.279 58.9671 431.424 59.1494 431.539C59.3317 431.654 59.6233 431.711 60.0244 431.711H60.2666V432H54.6884V431.711H54.9697C55.4228 431.711 55.7457 431.659 55.9384 431.555C56.1311 431.451 56.2614 431.307 56.3291 431.125C56.3968 430.943 56.4306 430.518 56.4306 429.852V424.359C56.4306 423.87 56.4072 423.565 56.3603 423.445C56.3134 423.32 56.2249 423.216 56.0947 423.133C55.9697 423.044 55.8239 423 55.6572 423C55.3916 423 55.0686 423.083 54.6884 423.25L54.5478 422.969L58.4463 421.188H58.7041ZM68.5872 426.703C68.5872 427.76 68.4387 428.747 68.1419 429.664C67.9648 430.227 67.7252 430.688 67.4231 431.047C67.1262 431.406 66.7877 431.693 66.4075 431.906C66.0273 432.115 65.6132 432.219 65.1653 432.219C64.6549 432.219 64.194 432.089 63.7825 431.828C63.371 431.568 63.0065 431.195 62.6887 430.711C62.4596 430.357 62.2591 429.885 62.0872 429.297C61.8632 428.5 61.7512 427.677 61.7512 426.828C61.7512 425.677 61.9127 424.62 62.2356 423.656C62.5012 422.859 62.9049 422.25 63.4466 421.828C63.9882 421.401 64.5611 421.188 65.1653 421.188C65.7799 421.188 66.3528 421.398 66.8841 421.82C67.4205 422.237 67.8137 422.799 68.0637 423.508C68.4127 424.482 68.5872 425.547 68.5872 426.703ZM66.1809 426.688C66.1809 424.833 66.1705 423.753 66.1497 423.445C66.0976 422.721 65.9726 422.232 65.7747 421.977C65.6445 421.81 65.4335 421.727 65.1419 421.727C64.9179 421.727 64.7408 421.789 64.6106 421.914C64.4179 422.096 64.2877 422.419 64.22 422.883C64.1523 423.341 64.1184 424.948 64.1184 427.703C64.1184 429.203 64.1705 430.208 64.2747 430.719C64.3528 431.089 64.4648 431.336 64.6106 431.461C64.7565 431.586 64.9492 431.648 65.1887 431.648C65.4492 431.648 65.6445 431.565 65.7747 431.398C65.9934 431.107 66.1184 430.656 66.1497 430.047L66.1809 426.688ZM73.3453 421.164L69.8688 432.242H68.8688L72.3609 421.164H73.3453ZM79.6113 432H73.3769V431.828C75.2883 429.552 76.4472 428.021 76.8534 427.234C77.2649 426.448 77.4706 425.68 77.4706 424.93C77.4706 424.383 77.3014 423.93 76.9628 423.57C76.6243 423.206 76.2102 423.023 75.7206 423.023C74.9185 423.023 74.2961 423.424 73.8534 424.227L73.5644 424.125C73.8456 423.125 74.2727 422.385 74.8456 421.906C75.4185 421.427 76.08 421.188 76.83 421.188C77.3665 421.188 77.856 421.312 78.2988 421.562C78.7415 421.812 79.0878 422.156 79.3378 422.594C79.5878 423.026 79.7128 423.432 79.7128 423.812C79.7128 424.505 79.5201 425.208 79.1347 425.922C78.6086 426.885 77.4602 428.229 75.6894 429.953H77.9784C78.5409 429.953 78.9055 429.93 79.0722 429.883C79.2441 429.836 79.3847 429.758 79.4941 429.648C79.6034 429.534 79.7467 429.297 79.9238 428.938H80.205L79.6113 432ZM83.1037 421.406H88.0647L87.2756 423.422H83.1037L82.7053 424.477C84.5022 424.544 85.885 424.992 86.8537 425.82C87.6506 426.503 88.0491 427.352 88.0491 428.367C88.0491 429.018 87.8642 429.656 87.4944 430.281C87.1246 430.901 86.6037 431.38 85.9319 431.719C85.26 432.052 84.523 432.219 83.7209 432.219C82.8564 432.219 82.1923 432.057 81.7287 431.734C81.4058 431.505 81.2444 431.245 81.2444 430.953C81.2444 430.729 81.3277 430.531 81.4944 430.359C81.6662 430.188 81.8642 430.102 82.0881 430.102C82.2912 430.102 82.497 430.143 82.7053 430.227C82.9136 430.31 83.2704 430.529 83.7756 430.883C84.0933 431.102 84.3668 431.253 84.5959 431.336C84.7574 431.398 84.9397 431.43 85.1428 431.43C85.5699 431.43 85.9319 431.273 86.2287 430.961C86.5308 430.648 86.6819 430.273 86.6819 429.836C86.6819 428.919 86.2235 428.174 85.3069 427.602C84.3902 427.029 83.234 426.742 81.8381 426.742C81.6975 426.742 81.4866 426.745 81.2053 426.75L83.1037 421.406Z" fill="#D9B770"/>
<path d="M42.4902 456.271H42.3379C42.0176 456.271 41.6914 456.445 41.3594 456.793C41.2188 456.941 41.0215 457.215 40.7676 457.613L38.8516 460.631V460.812H41.0781V461.24H38.8516V462.623C38.8516 463.111 38.9062 463.416 39.0156 463.537C39.1641 463.701 39.3984 463.783 39.7188 463.783H39.9766V464H36.6016V463.783H36.8828C37.2188 463.783 37.457 463.682 37.5977 463.479C37.6836 463.354 37.7266 463.068 37.7266 462.623V461.24H35.5V460.812H37.7266V460.742L35.5469 457.414C35.3086 457.051 35.1582 456.834 35.0957 456.764C34.9551 456.615 34.7402 456.471 34.4512 456.33C34.3691 456.291 34.2559 456.271 34.1113 456.271V456.055H37.5098V456.271H37.334C37.1465 456.271 36.9844 456.311 36.8477 456.389C36.6797 456.482 36.5957 456.615 36.5957 456.787C36.5957 456.928 36.7148 457.182 36.9531 457.549L38.6113 460.109L40.1699 457.66C40.4043 457.293 40.5215 457.02 40.5215 456.84C40.5215 456.609 40.4121 456.443 40.1934 456.342C40.0879 456.295 39.9297 456.271 39.7188 456.271V456.055H42.4902V456.271ZM51.6426 463.783V464H42.9414V463.783C43.2656 463.783 43.4824 463.725 43.5918 463.607C43.7012 463.486 43.7559 463.197 43.7559 462.74V459.893C43.7559 459.475 43.7344 459.229 43.6914 459.154C43.6484 459.076 43.582 459.008 43.4922 458.949C43.4023 458.887 43.2188 458.855 42.9414 458.855V458.633H45.5371V458.855C45.2754 458.855 45.0996 458.883 45.0098 458.938C44.9199 458.988 44.8496 459.053 44.7988 459.131C44.748 459.209 44.7227 459.463 44.7227 459.893V462.852C44.7227 463.223 44.7559 463.443 44.8223 463.514C44.8887 463.584 45.1113 463.619 45.4902 463.619H46.123C46.373 463.619 46.5371 463.605 46.6152 463.578C46.6934 463.547 46.7441 463.496 46.7676 463.426C46.7949 463.355 46.8086 463.125 46.8086 462.734V459.893C46.8086 459.479 46.7871 459.232 46.7441 459.154C46.7012 459.072 46.6328 459.002 46.5391 458.943C46.4492 458.885 46.2676 458.855 45.9941 458.855V458.633H48.4902V458.855C48.2793 458.859 48.123 458.895 48.0215 458.961C47.9199 459.027 47.8535 459.111 47.8223 459.213C47.791 459.314 47.7754 459.541 47.7754 459.893V462.922C47.7754 463.258 47.8086 463.459 47.875 463.525C47.9414 463.588 48.1465 463.619 48.4902 463.619H49.1934C49.5684 463.619 49.7734 463.58 49.8086 463.502C49.8438 463.42 49.8613 463.176 49.8613 462.77V459.893C49.8613 459.475 49.8398 459.229 49.7969 459.154C49.7539 459.076 49.6875 459.008 49.5977 458.949C49.5078 458.887 49.3242 458.855 49.0469 458.855V458.633H51.6426V458.855C51.377 458.855 51.1992 458.883 51.1094 458.938C51.0234 458.988 50.9551 459.053 50.9043 459.131C50.8535 459.209 50.8281 459.463 50.8281 459.893V462.424C50.8281 462.947 50.8418 463.271 50.8691 463.396C50.9004 463.521 50.9688 463.615 51.0742 463.678C51.1797 463.74 51.3691 463.775 51.6426 463.783ZM55.334 463.227C54.7832 463.652 54.4375 463.898 54.2969 463.965C54.0859 464.062 53.8613 464.111 53.623 464.111C53.252 464.111 52.9453 463.984 52.7031 463.73C52.4648 463.477 52.3457 463.143 52.3457 462.729C52.3457 462.467 52.4043 462.24 52.5215 462.049C52.6816 461.783 52.959 461.533 53.3535 461.299C53.752 461.064 54.4121 460.779 55.334 460.443V460.232C55.334 459.697 55.248 459.33 55.0762 459.131C54.9082 458.932 54.6621 458.832 54.3379 458.832C54.0918 458.832 53.8965 458.898 53.752 459.031C53.6035 459.164 53.5293 459.316 53.5293 459.488L53.541 459.828C53.541 460.008 53.4941 460.146 53.4004 460.244C53.3105 460.342 53.1914 460.391 53.043 460.391C52.8984 460.391 52.7793 460.34 52.6855 460.238C52.5957 460.137 52.5508 459.998 52.5508 459.822C52.5508 459.486 52.7227 459.178 53.0664 458.896C53.4102 458.615 53.8926 458.475 54.5137 458.475C54.9902 458.475 55.3809 458.555 55.6855 458.715C55.916 458.836 56.0859 459.025 56.1953 459.283C56.2656 459.451 56.3008 459.795 56.3008 460.314V462.137C56.3008 462.648 56.3105 462.963 56.3301 463.08C56.3496 463.193 56.3809 463.27 56.4238 463.309C56.4707 463.348 56.5234 463.367 56.582 463.367C56.6445 463.367 56.6992 463.354 56.7461 463.326C56.8281 463.275 56.9863 463.133 57.2207 462.898V463.227C56.7832 463.812 56.3652 464.105 55.9668 464.105C55.7754 464.105 55.623 464.039 55.5098 463.906C55.3965 463.773 55.3379 463.547 55.334 463.227ZM55.334 462.846V460.801C54.7441 461.035 54.3633 461.201 54.1914 461.299C53.8828 461.471 53.6621 461.65 53.5293 461.838C53.3965 462.025 53.3301 462.23 53.3301 462.453C53.3301 462.734 53.4141 462.969 53.582 463.156C53.75 463.34 53.9434 463.432 54.1621 463.432C54.459 463.432 54.8496 463.236 55.334 462.846ZM57.2266 458.633H61.8672L62.1016 460.086H61.8379C61.791 459.793 61.7129 459.566 61.6035 459.406C61.4941 459.246 61.3691 459.141 61.2285 459.09C61.0879 459.039 60.8477 459.014 60.5078 459.014H60.0391V462.74C60.0391 463.139 60.0625 463.393 60.1094 463.502C60.1602 463.607 60.2402 463.678 60.3496 463.713C60.459 463.748 60.709 463.771 61.0996 463.783V464H58.1816V463.783C58.5566 463.775 58.7969 463.715 58.9023 463.602C59.0117 463.488 59.0664 463.201 59.0664 462.74V459.014H58.5859C58.25 459.014 58.0215 459.035 57.9004 459.078C57.7793 459.117 57.6621 459.215 57.5488 459.371C57.4395 459.523 57.3457 459.762 57.2676 460.086H57.0039L57.2266 458.633ZM67.2754 458.855V458.633H69.9766V458.855C69.7383 458.855 69.5645 458.881 69.4551 458.932C69.3457 458.982 69.2695 459.061 69.2266 459.166C69.1875 459.271 69.168 459.514 69.168 459.893V462.74C69.168 463.107 69.1855 463.346 69.2207 463.455C69.2559 463.561 69.3301 463.643 69.4434 463.701C69.5605 463.756 69.7383 463.783 69.9766 463.783V464H67.2754V463.783C67.5801 463.771 67.7773 463.752 67.8672 463.725C67.9609 463.693 68.0391 463.617 68.1016 463.496C68.1641 463.375 68.1953 463.123 68.1953 462.74V459.893C68.1953 459.514 68.1738 459.27 68.1309 459.16C68.0879 459.051 68.0117 458.975 67.9023 458.932C67.7969 458.885 67.5879 458.859 67.2754 458.855ZM64.2285 461.023L64.8965 461.012C66.4902 461.012 67.2871 461.504 67.2871 462.488C67.2871 462.945 67.0918 463.312 66.7012 463.59C66.3145 463.863 65.7559 464 65.0254 464H62.4473V463.783C62.7949 463.783 63.0176 463.721 63.1152 463.596C63.2129 463.467 63.2617 463.182 63.2617 462.74V459.893C63.2617 459.475 63.2402 459.229 63.1973 459.154C63.1543 459.076 63.0879 459.008 62.998 458.949C62.9082 458.887 62.7246 458.855 62.4473 458.855V458.633H65.2539V458.855C64.8672 458.855 64.6289 458.879 64.5391 458.926C64.4492 458.969 64.375 459.027 64.3164 459.102C64.2578 459.172 64.2285 459.436 64.2285 459.893V461.023ZM64.2285 463.537C64.4355 463.592 64.6426 463.619 64.8496 463.619C65.2402 463.619 65.5566 463.516 65.7988 463.309C66.0449 463.102 66.168 462.84 66.168 462.523C66.168 461.773 65.6465 461.398 64.6035 461.398C64.5137 461.398 64.3887 461.4 64.2285 461.404V463.537ZM72.2969 461.029H74.6172V459.893C74.6172 459.553 74.6035 459.332 74.5762 459.23C74.5488 459.125 74.4805 459.037 74.3711 458.967C74.2656 458.893 74.0762 458.855 73.8027 458.855V458.633H76.3984V458.855C76.1562 458.855 75.9785 458.883 75.8652 458.938C75.7559 458.992 75.6816 459.072 75.6426 459.178C75.6035 459.279 75.584 459.518 75.584 459.893V462.74C75.584 463.08 75.5977 463.305 75.625 463.414C75.6562 463.523 75.7285 463.613 75.8418 463.684C75.9551 463.75 76.1406 463.783 76.3984 463.783V464H73.8027V463.783C74.127 463.783 74.3438 463.725 74.4531 463.607C74.5625 463.486 74.6172 463.197 74.6172 462.74V461.41H72.2969V462.74C72.2969 463.08 72.3105 463.305 72.3379 463.414C72.3691 463.523 72.4414 463.613 72.5547 463.684C72.668 463.75 72.8535 463.783 73.1113 463.783V464H70.5156V463.783C70.8633 463.783 71.0859 463.721 71.1836 463.596C71.2812 463.467 71.3301 463.182 71.3301 462.74V459.893C71.3301 459.553 71.3145 459.328 71.2832 459.219C71.2559 459.109 71.1855 459.021 71.0723 458.955C70.959 458.889 70.7734 458.855 70.5156 458.855V458.633H73.1113V458.855C72.8691 458.855 72.6914 458.883 72.5781 458.938C72.4688 458.992 72.3945 459.072 72.3555 459.178C72.3164 459.279 72.2969 459.518 72.2969 459.893V461.029ZM79.7383 458.633H82.2402V458.85H82.1172C81.9414 458.85 81.8086 458.889 81.7188 458.967C81.6328 459.041 81.5898 459.135 81.5898 459.248C81.5898 459.4 81.6543 459.611 81.7832 459.881L83.0898 462.588L84.291 459.623C84.3574 459.463 84.3906 459.305 84.3906 459.148C84.3906 459.078 84.377 459.025 84.3496 458.99C84.3184 458.947 84.2695 458.914 84.2031 458.891C84.1367 458.863 84.0195 458.85 83.8516 458.85V458.633H85.5977V458.85C85.4531 458.865 85.3418 458.896 85.2637 458.943C85.1855 458.99 85.0996 459.078 85.0059 459.207C84.9707 459.262 84.9043 459.412 84.8066 459.658L82.6211 465.014C82.4102 465.533 82.1328 465.926 81.7891 466.191C81.4492 466.457 81.1211 466.59 80.8047 466.59C80.5742 466.59 80.3848 466.523 80.2363 466.391C80.0879 466.258 80.0137 466.105 80.0137 465.934C80.0137 465.77 80.0664 465.637 80.1719 465.535C80.2812 465.438 80.4297 465.389 80.6172 465.389C80.7461 465.389 80.9219 465.432 81.1445 465.518C81.3008 465.576 81.3984 465.605 81.4375 465.605C81.5547 465.605 81.6816 465.545 81.8184 465.424C81.959 465.303 82.0996 465.068 82.2402 464.721L82.6211 463.789L80.6934 459.74C80.6348 459.619 80.541 459.469 80.4121 459.289C80.3145 459.152 80.2344 459.061 80.1719 459.014C80.082 458.951 79.9375 458.896 79.7383 458.85V458.633ZM88.9199 463.227C88.3691 463.652 88.0234 463.898 87.8828 463.965C87.6719 464.062 87.4473 464.111 87.209 464.111C86.8379 464.111 86.5312 463.984 86.2891 463.73C86.0508 463.477 85.9316 463.143 85.9316 462.729C85.9316 462.467 85.9902 462.24 86.1074 462.049C86.2676 461.783 86.5449 461.533 86.9395 461.299C87.3379 461.064 87.998 460.779 88.9199 460.443V460.232C88.9199 459.697 88.834 459.33 88.6621 459.131C88.4941 458.932 88.248 458.832 87.9238 458.832C87.6777 458.832 87.4824 458.898 87.3379 459.031C87.1895 459.164 87.1152 459.316 87.1152 459.488L87.127 459.828C87.127 460.008 87.0801 460.146 86.9863 460.244C86.8965 460.342 86.7773 460.391 86.6289 460.391C86.4844 460.391 86.3652 460.34 86.2715 460.238C86.1816 460.137 86.1367 459.998 86.1367 459.822C86.1367 459.486 86.3086 459.178 86.6523 458.896C86.9961 458.615 87.4785 458.475 88.0996 458.475C88.5762 458.475 88.9668 458.555 89.2715 458.715C89.502 458.836 89.6719 459.025 89.7812 459.283C89.8516 459.451 89.8867 459.795 89.8867 460.314V462.137C89.8867 462.648 89.8965 462.963 89.916 463.08C89.9355 463.193 89.9668 463.27 90.0098 463.309C90.0566 463.348 90.1094 463.367 90.168 463.367C90.2305 463.367 90.2852 463.354 90.332 463.326C90.4141 463.275 90.5723 463.133 90.8066 462.898V463.227C90.3691 463.812 89.9512 464.105 89.5527 464.105C89.3613 464.105 89.209 464.039 89.0957 463.906C88.9824 463.773 88.9238 463.547 88.9199 463.227ZM88.9199 462.846V460.801C88.3301 461.035 87.9492 461.201 87.7773 461.299C87.4688 461.471 87.248 461.65 87.1152 461.838C86.9824 462.025 86.916 462.23 86.916 462.453C86.916 462.734 87 462.969 87.168 463.156C87.3359 463.34 87.5293 463.432 87.748 463.432C88.0449 463.432 88.4355 463.236 88.9199 462.846ZM96.5957 465.488H96.3789C96.3789 464.949 96.2637 464.561 96.0332 464.322C95.8184 464.107 95.4805 464 95.0195 464C94.5195 463.273 94.0723 462.541 93.6777 461.803C93.498 461.463 93.3086 461.293 93.1094 461.293C93.0625 461.293 92.9883 461.297 92.8867 461.305V462.74C92.8867 463.029 92.8926 463.213 92.9043 463.291C92.9434 463.51 93.041 463.65 93.1973 463.713C93.3145 463.76 93.5117 463.783 93.7891 463.783V464H91.1055V463.783C91.4727 463.783 91.707 463.699 91.8086 463.531C91.8828 463.41 91.9199 463.146 91.9199 462.74V459.893C91.9199 459.58 91.918 459.404 91.9141 459.365C91.8828 459.178 91.7969 459.037 91.6562 458.943C91.5703 458.885 91.3867 458.855 91.1055 458.855V458.633H93.7891V458.855C93.3945 458.855 93.125 458.936 92.9805 459.096C92.918 459.162 92.8867 459.428 92.8867 459.893V460.947C92.9766 460.955 93.0371 460.959 93.0684 460.959C93.627 460.959 94.0371 460.605 94.2988 459.898C94.4238 459.559 94.5195 459.33 94.5859 459.213C94.7188 458.979 94.8887 458.809 95.0957 458.703C95.2715 458.613 95.457 458.568 95.6523 458.568C96.1133 458.568 96.3438 458.752 96.3438 459.119C96.3438 459.447 96.1738 459.611 95.834 459.611C95.748 459.611 95.6406 459.588 95.5117 459.541C95.3477 459.482 95.2227 459.453 95.1367 459.453C94.957 459.453 94.8086 459.609 94.6914 459.922C94.5742 460.23 94.4902 460.43 94.4395 460.52C94.3574 460.672 94.2246 460.838 94.041 461.018C94.248 461.08 94.4805 461.301 94.7383 461.68C94.793 461.762 94.957 462.043 95.2305 462.523C95.4961 462.988 95.6699 463.27 95.752 463.367C95.9824 463.637 96.2637 463.775 96.5957 463.783V465.488ZM101.764 458.855V458.633H104.465V458.855C104.227 458.855 104.053 458.881 103.943 458.932C103.834 458.982 103.758 459.061 103.715 459.166C103.676 459.271 103.656 459.514 103.656 459.893V462.74C103.656 463.107 103.674 463.346 103.709 463.455C103.744 463.561 103.818 463.643 103.932 463.701C104.049 463.756 104.227 463.783 104.465 463.783V464H101.764V463.783C102.068 463.771 102.266 463.752 102.355 463.725C102.449 463.693 102.527 463.617 102.59 463.496C102.652 463.375 102.684 463.123 102.684 462.74V459.893C102.684 459.514 102.662 459.27 102.619 459.16C102.576 459.051 102.5 458.975 102.391 458.932C102.285 458.885 102.076 458.859 101.764 458.855ZM98.7168 461.023L99.3848 461.012C100.979 461.012 101.775 461.504 101.775 462.488C101.775 462.945 101.58 463.312 101.189 463.59C100.803 463.863 100.244 464 99.5137 464H96.9355V463.783C97.2832 463.783 97.5059 463.721 97.6035 463.596C97.7012 463.467 97.75 463.182 97.75 462.74V459.893C97.75 459.475 97.7285 459.229 97.6855 459.154C97.6426 459.076 97.5762 459.008 97.4863 458.949C97.3965 458.887 97.2129 458.855 96.9355 458.855V458.633H99.7422V458.855C99.3555 458.855 99.1172 458.879 99.0273 458.926C98.9375 458.969 98.8633 459.027 98.8047 459.102C98.7461 459.172 98.7168 459.436 98.7168 459.893V461.023ZM98.7168 463.537C98.9238 463.592 99.1309 463.619 99.3379 463.619C99.7285 463.619 100.045 463.516 100.287 463.309C100.533 463.102 100.656 462.84 100.656 462.523C100.656 461.773 100.135 461.398 99.0918 461.398C99.002 461.398 98.877 461.4 98.7168 461.404V463.537ZM105.027 458.633H109.668L109.902 460.086H109.639C109.592 459.793 109.514 459.566 109.404 459.406C109.295 459.246 109.17 459.141 109.029 459.09C108.889 459.039 108.648 459.014 108.309 459.014H107.84V462.74C107.84 463.139 107.863 463.393 107.91 463.502C107.961 463.607 108.041 463.678 108.15 463.713C108.26 463.748 108.51 463.771 108.9 463.783V464H105.982V463.783C106.357 463.775 106.598 463.715 106.703 463.602C106.812 463.488 106.867 463.201 106.867 462.74V459.014H106.387C106.051 459.014 105.822 459.035 105.701 459.078C105.58 459.117 105.463 459.215 105.35 459.371C105.24 459.523 105.146 459.762 105.068 460.086H104.805L105.027 458.633ZM115.076 458.855V458.633H117.777V458.855C117.539 458.855 117.365 458.881 117.256 458.932C117.146 458.982 117.07 459.061 117.027 459.166C116.988 459.271 116.969 459.514 116.969 459.893V462.74C116.969 463.107 116.986 463.346 117.021 463.455C117.057 463.561 117.131 463.643 117.244 463.701C117.361 463.756 117.539 463.783 117.777 463.783V464H115.076V463.783C115.381 463.771 115.578 463.752 115.668 463.725C115.762 463.693 115.84 463.617 115.902 463.496C115.965 463.375 115.996 463.123 115.996 462.74V459.893C115.996 459.514 115.975 459.27 115.932 459.16C115.889 459.051 115.812 458.975 115.703 458.932C115.598 458.885 115.389 458.859 115.076 458.855ZM112.029 461.023L112.697 461.012C114.291 461.012 115.088 461.504 115.088 462.488C115.088 462.945 114.893 463.312 114.502 463.59C114.115 463.863 113.557 464 112.826 464H110.248V463.783C110.596 463.783 110.818 463.721 110.916 463.596C111.014 463.467 111.062 463.182 111.062 462.74V459.893C111.062 459.475 111.041 459.229 110.998 459.154C110.955 459.076 110.889 459.008 110.799 458.949C110.709 458.887 110.525 458.855 110.248 458.855V458.633H113.055V458.855C112.668 458.855 112.43 458.879 112.34 458.926C112.25 458.969 112.176 459.027 112.117 459.102C112.059 459.172 112.029 459.436 112.029 459.893V461.023ZM112.029 463.537C112.236 463.592 112.443 463.619 112.65 463.619C113.041 463.619 113.357 463.516 113.6 463.309C113.846 463.102 113.969 462.84 113.969 462.523C113.969 461.773 113.447 461.398 112.404 461.398C112.314 461.398 112.189 461.4 112.029 461.404V463.537Z" fill="#D9B770" fill-opacity="0.8"/>
<path d="M39.2109 479.188V487.852C39.2109 488.503 39.2396 488.919 39.2969 489.102C39.3542 489.279 39.474 489.424 39.6562 489.539C39.8385 489.654 40.1302 489.711 40.5312 489.711H40.7734V490H35.1953V489.711H35.4766C35.9297 489.711 36.2526 489.659 36.4453 489.555C36.638 489.451 36.7682 489.307 36.8359 489.125C36.9036 488.943 36.9375 488.518 36.9375 487.852V482.359C36.9375 481.87 36.9141 481.565 36.8672 481.445C36.8203 481.32 36.7318 481.216 36.6016 481.133C36.4766 481.044 36.3307 481 36.1641 481C35.8984 481 35.5755 481.083 35.1953 481.25L35.0547 480.969L38.9531 479.188H39.2109ZM47.1331 484.016C47.8779 484.562 48.3935 485.073 48.68 485.547C48.9717 486.016 49.1175 486.555 49.1175 487.164C49.1175 488.018 48.7946 488.742 48.1487 489.336C47.5081 489.924 46.6357 490.219 45.5316 490.219C44.4847 490.219 43.6748 489.961 43.1019 489.445C42.529 488.93 42.2425 488.299 42.2425 487.555C42.2425 486.987 42.4066 486.49 42.7347 486.062C43.068 485.635 43.6201 485.245 44.3909 484.891C43.5524 484.25 43.0133 483.727 42.7737 483.32C42.5394 482.914 42.4222 482.443 42.4222 481.906C42.4222 481.198 42.7217 480.576 43.3206 480.039C43.9248 479.497 44.7503 479.227 45.7972 479.227C46.8076 479.227 47.5836 479.466 48.1253 479.945C48.6722 480.419 48.9456 480.99 48.9456 481.656C48.9456 482.156 48.7972 482.599 48.5003 482.984C48.2086 483.365 47.7529 483.708 47.1331 484.016ZM46.5394 483.617C46.7321 483.357 46.8753 483.065 46.9691 482.742C47.0628 482.419 47.1097 482.065 47.1097 481.68C47.1097 481.003 46.9639 480.484 46.6722 480.125C46.4534 479.849 46.1514 479.711 45.7659 479.711C45.417 479.711 45.1201 479.839 44.8753 480.094C44.6305 480.344 44.5081 480.656 44.5081 481.031C44.5081 481.411 44.6435 481.807 44.9144 482.219C45.1904 482.625 45.7321 483.091 46.5394 483.617ZM44.9769 485.266C44.8154 485.411 44.7008 485.544 44.6331 485.664C44.529 485.846 44.4352 486.112 44.3519 486.461C44.2685 486.81 44.2269 487.174 44.2269 487.555C44.2269 488.044 44.2894 488.456 44.4144 488.789C44.5394 489.117 44.7165 489.354 44.9456 489.5C45.18 489.646 45.4196 489.719 45.6644 489.719C46.0446 489.719 46.3649 489.581 46.6253 489.305C46.8857 489.023 47.0159 488.641 47.0159 488.156C47.0159 487.146 46.3362 486.182 44.9769 485.266ZM52.0319 482.484C52.3912 482.484 52.6959 482.612 52.9459 482.867C53.2011 483.117 53.3287 483.422 53.3287 483.781C53.3287 484.141 53.2011 484.448 52.9459 484.703C52.6959 484.953 52.3912 485.078 52.0319 485.078C51.6725 485.078 51.3652 484.953 51.11 484.703C50.86 484.448 50.735 484.141 50.735 483.781C50.735 483.422 50.86 483.117 51.11 482.867C51.3652 482.612 51.6725 482.484 52.0319 482.484ZM52.0241 487.594C52.3886 487.594 52.6959 487.721 52.9459 487.977C53.2011 488.232 53.3287 488.539 53.3287 488.898C53.3287 489.258 53.2011 489.565 52.9459 489.82C52.6907 490.07 52.3834 490.195 52.0241 490.195C51.6647 490.195 51.3574 490.07 51.1022 489.82C50.8522 489.565 50.7272 489.258 50.7272 488.898C50.7272 488.539 50.8522 488.232 51.1022 487.977C51.3574 487.721 51.6647 487.594 52.0241 487.594ZM61.7822 484.703C61.7822 485.76 61.6338 486.747 61.3369 487.664C61.1598 488.227 60.9202 488.688 60.6181 489.047C60.3213 489.406 59.9827 489.693 59.6025 489.906C59.2223 490.115 58.8082 490.219 58.3603 490.219C57.8499 490.219 57.389 490.089 56.9775 489.828C56.566 489.568 56.2015 489.195 55.8838 488.711C55.6546 488.357 55.4541 487.885 55.2822 487.297C55.0582 486.5 54.9463 485.677 54.9463 484.828C54.9463 483.677 55.1077 482.62 55.4306 481.656C55.6963 480.859 56.0999 480.25 56.6416 479.828C57.1832 479.401 57.7561 479.188 58.3603 479.188C58.9749 479.188 59.5478 479.398 60.0791 479.82C60.6155 480.237 61.0088 480.799 61.2588 481.508C61.6077 482.482 61.7822 483.547 61.7822 484.703ZM59.3759 484.688C59.3759 482.833 59.3655 481.753 59.3447 481.445C59.2926 480.721 59.1676 480.232 58.9697 479.977C58.8395 479.81 58.6285 479.727 58.3369 479.727C58.1129 479.727 57.9358 479.789 57.8056 479.914C57.6129 480.096 57.4827 480.419 57.415 480.883C57.3473 481.341 57.3134 482.948 57.3134 485.703C57.3134 487.203 57.3655 488.208 57.4697 488.719C57.5478 489.089 57.6598 489.336 57.8056 489.461C57.9515 489.586 58.1442 489.648 58.3838 489.648C58.6442 489.648 58.8395 489.565 58.9697 489.398C59.1884 489.107 59.3134 488.656 59.3447 488.047L59.3759 484.688ZM69.4622 484.703C69.4622 485.76 69.3137 486.747 69.0169 487.664C68.8398 488.227 68.6002 488.688 68.2981 489.047C68.0012 489.406 67.6627 489.693 67.2825 489.906C66.9023 490.115 66.4882 490.219 66.0403 490.219C65.5299 490.219 65.069 490.089 64.6575 489.828C64.246 489.568 63.8815 489.195 63.5637 488.711C63.3346 488.357 63.1341 487.885 62.9622 487.297C62.7382 486.5 62.6262 485.677 62.6262 484.828C62.6262 483.677 62.7877 482.62 63.1106 481.656C63.3762 480.859 63.7799 480.25 64.3216 479.828C64.8632 479.401 65.4361 479.188 66.0403 479.188C66.6549 479.188 67.2278 479.398 67.7591 479.82C68.2955 480.237 68.6887 480.799 68.9387 481.508C69.2877 482.482 69.4622 483.547 69.4622 484.703ZM67.0559 484.688C67.0559 482.833 67.0455 481.753 67.0247 481.445C66.9726 480.721 66.8476 480.232 66.6497 479.977C66.5195 479.81 66.3085 479.727 66.0169 479.727C65.7929 479.727 65.6158 479.789 65.4856 479.914C65.2929 480.096 65.1627 480.419 65.095 480.883C65.0273 481.341 64.9934 482.948 64.9934 485.703C64.9934 487.203 65.0455 488.208 65.1497 488.719C65.2278 489.089 65.3398 489.336 65.4856 489.461C65.6315 489.586 65.8242 489.648 66.0637 489.648C66.3242 489.648 66.5195 489.565 66.6497 489.398C66.8684 489.107 66.9934 488.656 67.0247 488.047L67.0559 484.688Z" fill="#D9B770"/>
<path d="M40.9434 224.055L41.0312 225.918H40.8086C40.7656 225.59 40.707 225.355 40.6328 225.215C40.5117 224.988 40.3496 224.822 40.1465 224.717C39.9473 224.607 39.6836 224.553 39.3555 224.553H38.2363V230.623C38.2363 231.111 38.2891 231.416 38.3945 231.537C38.543 231.701 38.7715 231.783 39.0801 231.783H39.3555V232H35.9863V231.783H36.2676C36.6035 231.783 36.8418 231.682 36.9824 231.479C37.0684 231.354 37.1113 231.068 37.1113 230.623V224.553H36.1562C35.7852 224.553 35.5215 224.58 35.3652 224.635C35.1621 224.709 34.9883 224.852 34.8438 225.062C34.6992 225.273 34.6133 225.559 34.5859 225.918H34.3633L34.457 224.055H40.9434ZM42.1562 228.654C42.1523 229.451 42.3457 230.076 42.7363 230.529C43.127 230.982 43.5859 231.209 44.1133 231.209C44.4648 231.209 44.7695 231.113 45.0273 230.922C45.2891 230.727 45.5078 230.395 45.6836 229.926L45.8652 230.043C45.7832 230.578 45.5449 231.066 45.1504 231.508C44.7559 231.945 44.2617 232.164 43.668 232.164C43.0234 232.164 42.4707 231.914 42.0098 231.414C41.5527 230.91 41.3242 230.234 41.3242 229.387C41.3242 228.469 41.5586 227.754 42.0273 227.242C42.5 226.727 43.0918 226.469 43.8027 226.469C44.4043 226.469 44.8984 226.668 45.2852 227.066C45.6719 227.461 45.8652 227.99 45.8652 228.654H42.1562ZM42.1562 228.314H44.6406C44.6211 227.971 44.5801 227.729 44.5176 227.588C44.4199 227.369 44.2734 227.197 44.0781 227.072C43.8867 226.947 43.6855 226.885 43.4746 226.885C43.1504 226.885 42.8594 227.012 42.6016 227.266C42.3477 227.516 42.1992 227.865 42.1562 228.314ZM46.1992 227.166L47.8516 226.498H48.0742V227.752C48.3516 227.279 48.6289 226.949 48.9062 226.762C49.1875 226.57 49.4824 226.475 49.791 226.475C50.3301 226.475 50.7793 226.686 51.1387 227.107C51.5801 227.623 51.8008 228.295 51.8008 229.123C51.8008 230.049 51.5352 230.814 51.0039 231.42C50.5664 231.916 50.0156 232.164 49.3516 232.164C49.0625 232.164 48.8125 232.123 48.6016 232.041C48.4453 231.982 48.2695 231.865 48.0742 231.689V233.324C48.0742 233.691 48.0957 233.924 48.1387 234.021C48.1855 234.123 48.2637 234.203 48.373 234.262C48.4863 234.32 48.6895 234.35 48.9824 234.35V234.566H46.1699V234.35H46.3164C46.5312 234.354 46.7148 234.312 46.8672 234.227C46.9414 234.184 46.998 234.113 47.0371 234.016C47.0801 233.922 47.1016 233.68 47.1016 233.289V228.215C47.1016 227.867 47.0859 227.646 47.0547 227.553C47.0234 227.459 46.9727 227.389 46.9023 227.342C46.8359 227.295 46.7441 227.271 46.627 227.271C46.5332 227.271 46.4141 227.299 46.2695 227.354L46.1992 227.166ZM48.0742 228.098V230.102C48.0742 230.535 48.0918 230.82 48.127 230.957C48.1816 231.184 48.3145 231.383 48.5254 231.555C48.7402 231.727 49.0098 231.812 49.334 231.812C49.7246 231.812 50.041 231.66 50.2832 231.355C50.5996 230.957 50.7578 230.396 50.7578 229.674C50.7578 228.854 50.5781 228.223 50.2188 227.781C49.9688 227.477 49.6719 227.324 49.3281 227.324C49.1406 227.324 48.9551 227.371 48.7715 227.465C48.6309 227.535 48.3984 227.746 48.0742 228.098ZM55.8672 230.6L57.543 226.633H59.3535V226.855C59.0879 226.855 58.9102 226.883 58.8203 226.938C58.7344 226.988 58.666 227.053 58.6152 227.131C58.5645 227.209 58.5391 227.463 58.5391 227.893V230.74C58.5391 231.111 58.5566 231.352 58.5918 231.461C58.6309 231.566 58.707 231.646 58.8203 231.701C58.9375 231.756 59.1152 231.783 59.3535 231.783V232H56.7578V231.783C57.0781 231.783 57.293 231.725 57.4023 231.607C57.5117 231.486 57.5664 231.197 57.5664 230.74V227.512L55.668 232H55.4629L53.5293 227.512V230.74C53.5293 231.111 53.5488 231.352 53.5879 231.461C53.627 231.566 53.7031 231.646 53.8164 231.701C53.9297 231.756 54.1055 231.783 54.3438 231.783V232H52.293V231.783C52.6406 231.783 52.8633 231.721 52.9609 231.596C53.0586 231.467 53.1074 231.182 53.1074 230.74V227.893C53.1074 227.475 53.0859 227.229 53.043 227.154C53 227.076 52.9336 227.008 52.8438 226.949C52.7539 226.887 52.5703 226.855 52.293 226.855V226.633H54.1797L55.8672 230.6ZM61.668 230.348L63.9883 227.664C63.9805 227.363 63.9238 227.154 63.8184 227.037C63.7129 226.92 63.5312 226.859 63.2734 226.855V226.633H65.7695V226.855C65.5078 226.855 65.332 226.883 65.2422 226.938C65.1523 226.988 65.082 227.053 65.0312 227.131C64.9805 227.209 64.9551 227.463 64.9551 227.893V230.74C64.9551 231.154 64.9766 231.402 65.0195 231.484C65.0625 231.562 65.1289 231.633 65.2188 231.695C65.3125 231.754 65.4961 231.783 65.7695 231.783V232H63.1738V231.783C63.498 231.783 63.7148 231.725 63.8242 231.607C63.9336 231.486 63.9883 231.197 63.9883 230.74V228.215L61.668 230.904C61.6758 231.236 61.7227 231.465 61.8086 231.59C61.8945 231.715 62.0801 231.779 62.3652 231.783V232H59.8867V231.783C60.2344 231.783 60.457 231.721 60.5547 231.596C60.6523 231.467 60.7012 231.182 60.7012 230.74V227.893C60.7012 227.475 60.6797 227.229 60.6367 227.154C60.5938 227.076 60.5273 227.008 60.4375 226.949C60.3477 226.887 60.1641 226.855 59.8867 226.855V226.633H62.4824V226.855C62.2207 226.855 62.0449 226.883 61.9551 226.938C61.8652 226.988 61.7949 227.053 61.7441 227.131C61.6934 227.209 61.668 227.463 61.668 227.893V230.348ZM68.0898 229.029H70.4102V227.893C70.4102 227.553 70.3965 227.332 70.3691 227.23C70.3418 227.125 70.2734 227.037 70.1641 226.967C70.0586 226.893 69.8691 226.855 69.5957 226.855V226.633H72.1914V226.855C71.9492 226.855 71.7715 226.883 71.6582 226.938C71.5488 226.992 71.4746 227.072 71.4355 227.178C71.3965 227.279 71.377 227.518 71.377 227.893V230.74C71.377 231.08 71.3906 231.305 71.418 231.414C71.4492 231.523 71.5215 231.613 71.6348 231.684C71.748 231.75 71.9336 231.783 72.1914 231.783V232H69.5957V231.783C69.9199 231.783 70.1367 231.725 70.2461 231.607C70.3555 231.486 70.4102 231.197 70.4102 230.74V229.41H68.0898V230.74C68.0898 231.08 68.1035 231.305 68.1309 231.414C68.1621 231.523 68.2344 231.613 68.3477 231.684C68.4609 231.75 68.6465 231.783 68.9043 231.783V232H66.3086V231.783C66.6562 231.783 66.8789 231.721 66.9766 231.596C67.0742 231.467 67.123 231.182 67.123 230.74V227.893C67.123 227.553 67.1074 227.328 67.0762 227.219C67.0488 227.109 66.9785 227.021 66.8652 226.955C66.752 226.889 66.5664 226.855 66.3086 226.855V226.633H68.9043V226.855C68.6621 226.855 68.4844 226.883 68.3711 226.938C68.2617 226.992 68.1875 227.072 68.1484 227.178C68.1094 227.279 68.0898 227.518 68.0898 227.893V229.029ZM75.877 231.227C75.3262 231.652 74.9805 231.898 74.8398 231.965C74.6289 232.062 74.4043 232.111 74.166 232.111C73.7949 232.111 73.4883 231.984 73.2461 231.73C73.0078 231.477 72.8887 231.143 72.8887 230.729C72.8887 230.467 72.9473 230.24 73.0645 230.049C73.2246 229.783 73.502 229.533 73.8965 229.299C74.2949 229.064 74.9551 228.779 75.877 228.443V228.232C75.877 227.697 75.791 227.33 75.6191 227.131C75.4512 226.932 75.2051 226.832 74.8809 226.832C74.6348 226.832 74.4395 226.898 74.2949 227.031C74.1465 227.164 74.0723 227.316 74.0723 227.488L74.084 227.828C74.084 228.008 74.0371 228.146 73.9434 228.244C73.8535 228.342 73.7344 228.391 73.5859 228.391C73.4414 228.391 73.3223 228.34 73.2285 228.238C73.1387 228.137 73.0938 227.998 73.0938 227.822C73.0938 227.486 73.2656 227.178 73.6094 226.896C73.9531 226.615 74.4355 226.475 75.0566 226.475C75.5332 226.475 75.9238 226.555 76.2285 226.715C76.459 226.836 76.6289 227.025 76.7383 227.283C76.8086 227.451 76.8438 227.795 76.8438 228.314V230.137C76.8438 230.648 76.8535 230.963 76.873 231.08C76.8926 231.193 76.9238 231.27 76.9668 231.309C77.0137 231.348 77.0664 231.367 77.125 231.367C77.1875 231.367 77.2422 231.354 77.2891 231.326C77.3711 231.275 77.5293 231.133 77.7637 230.898V231.227C77.3262 231.812 76.9082 232.105 76.5098 232.105C76.3184 232.105 76.166 232.039 76.0527 231.906C75.9395 231.773 75.8809 231.547 75.877 231.227ZM75.877 230.846V228.801C75.2871 229.035 74.9062 229.201 74.7344 229.299C74.4258 229.471 74.2051 229.65 74.0723 229.838C73.9395 230.025 73.873 230.23 73.873 230.453C73.873 230.734 73.957 230.969 74.125 231.156C74.293 231.34 74.4863 231.432 74.7051 231.432C75.002 231.432 75.3926 231.236 75.877 230.846ZM78.8242 226.633H83.623V226.855C83.3574 226.855 83.1797 226.883 83.0898 226.938C83.0039 226.988 82.9355 227.053 82.8848 227.131C82.834 227.209 82.8086 227.463 82.8086 227.893V230.74C82.8086 231.154 82.8301 231.402 82.873 231.484C82.916 231.562 82.9824 231.633 83.0723 231.695C83.166 231.754 83.3496 231.783 83.623 231.783V232H80.8457V231.783C81.1465 231.783 81.3535 231.768 81.4668 231.736C81.584 231.705 81.6758 231.631 81.7422 231.514C81.8086 231.393 81.8418 231.135 81.8418 230.74V227.014H80.0547V229.275C80.0547 230.131 80.0156 230.732 79.9375 231.08C79.8633 231.424 79.7129 231.68 79.4863 231.848C79.2637 232.012 79.0078 232.094 78.7188 232.094C78.2188 232.094 77.9688 231.887 77.9688 231.473C77.9688 231.332 78.0078 231.217 78.0859 231.127C78.168 231.037 78.2734 230.992 78.4023 230.992C78.5391 230.992 78.666 231.049 78.7832 231.162C78.9355 231.311 79.0508 231.385 79.1289 231.385C79.3047 231.385 79.4316 231.238 79.5098 230.945C79.5918 230.648 79.6328 230.131 79.6328 229.393V228.209C79.6328 227.6 79.5879 227.229 79.498 227.096C79.4121 226.963 79.1875 226.883 78.8242 226.855V226.633Z" fill="#D9B770" fill-opacity="0.8"/>
<path d="M38.3594 248.016V252.328H38.5703C39.2422 252.328 39.7292 252.117 40.0312 251.695C40.3333 251.273 40.526 250.651 40.6094 249.828H40.9062V255.375H40.6094C40.5469 254.771 40.4141 254.276 40.2109 253.891C40.013 253.505 39.7812 253.247 39.5156 253.117C39.25 252.982 38.8646 252.914 38.3594 252.914V255.898C38.3594 256.482 38.3828 256.839 38.4297 256.969C38.4818 257.099 38.5755 257.206 38.7109 257.289C38.8464 257.372 39.0651 257.414 39.3672 257.414H40C40.9896 257.414 41.7812 257.185 42.375 256.727C42.974 256.268 43.4036 255.57 43.6641 254.633H43.9531L43.4766 258H34.3203V257.711H34.6719C34.9792 257.711 35.2266 257.656 35.4141 257.547C35.5495 257.474 35.6536 257.349 35.7266 257.172C35.7839 257.047 35.8125 256.719 35.8125 256.188V249.219C35.8125 248.74 35.7995 248.445 35.7734 248.336C35.7214 248.154 35.625 248.013 35.4844 247.914C35.2865 247.768 35.0156 247.695 34.6719 247.695H34.3203V247.406H43.1875V250.539H42.8906C42.7396 249.773 42.526 249.224 42.25 248.891C41.9792 248.557 41.5938 248.312 41.0938 248.156C40.8021 248.062 40.2552 248.016 39.4531 248.016H38.3594ZM51.8675 247.164L51.9534 250.695H51.6331C51.4821 249.81 51.1097 249.099 50.5159 248.562C49.9274 248.021 49.2894 247.75 48.6019 247.75C48.0706 247.75 47.6488 247.893 47.3363 248.18C47.029 248.461 46.8753 248.786 46.8753 249.156C46.8753 249.391 46.93 249.599 47.0394 249.781C47.1904 250.026 47.4326 250.268 47.7659 250.508C48.0107 250.68 48.5758 250.984 49.4613 251.422C50.7008 252.031 51.5368 252.607 51.9691 253.148C52.3961 253.69 52.6097 254.31 52.6097 255.008C52.6097 255.893 52.2633 256.656 51.5706 257.297C50.8831 257.932 50.0081 258.25 48.9456 258.25C48.6123 258.25 48.2972 258.216 48.0003 258.148C47.7034 258.081 47.331 257.953 46.8831 257.766C46.6331 257.661 46.4274 257.609 46.2659 257.609C46.1305 257.609 45.9873 257.661 45.8363 257.766C45.6852 257.87 45.5628 258.029 45.4691 258.242H45.18V254.242H45.4691C45.6982 255.367 46.1383 256.227 46.7894 256.82C47.4456 257.409 48.1514 257.703 48.9066 257.703C49.4899 257.703 49.9534 257.544 50.2972 257.227C50.6461 256.909 50.8206 256.539 50.8206 256.117C50.8206 255.867 50.7529 255.625 50.6175 255.391C50.4873 255.156 50.2868 254.935 50.0159 254.727C49.7451 254.513 49.2659 254.237 48.5784 253.898C47.6149 253.424 46.9222 253.021 46.5003 252.688C46.0784 252.354 45.7529 251.982 45.5238 251.57C45.2998 251.159 45.1878 250.706 45.1878 250.211C45.1878 249.367 45.4977 248.648 46.1175 248.055C46.7373 247.461 47.5185 247.164 48.4613 247.164C48.805 247.164 49.1383 247.206 49.4613 247.289C49.706 247.352 50.0029 247.469 50.3519 247.641C50.706 247.807 50.9534 247.891 51.0941 247.891C51.2295 247.891 51.3363 247.849 51.4144 247.766C51.4925 247.682 51.5654 247.482 51.6331 247.164H51.8675ZM63.0319 247.406V250.273H62.7506C62.584 249.612 62.3991 249.138 62.1959 248.852C61.9928 248.56 61.7142 248.328 61.36 248.156C61.1621 248.062 60.8157 248.016 60.3209 248.016H59.5319V256.188C59.5319 256.729 59.5605 257.068 59.6178 257.203C59.6803 257.339 59.7975 257.458 59.9694 257.562C60.1465 257.661 60.386 257.711 60.6881 257.711H61.0397V258H55.4928V257.711H55.8444C56.1517 257.711 56.3991 257.656 56.5866 257.547C56.722 257.474 56.8288 257.349 56.9069 257.172C56.9642 257.047 56.9928 256.719 56.9928 256.188V248.016H56.2272C55.5136 248.016 54.9954 248.167 54.6725 248.469C54.2194 248.891 53.9329 249.492 53.8131 250.273H53.5163V247.406H63.0319ZM67.54 253.172V256.141C67.54 256.714 67.5739 257.076 67.6416 257.227C67.7145 257.372 67.8395 257.49 68.0166 257.578C68.1936 257.667 68.5244 257.711 69.0088 257.711V258H63.5869V257.711C64.0765 257.711 64.4072 257.667 64.5791 257.578C64.7561 257.484 64.8785 257.365 64.9463 257.219C65.0192 257.073 65.0556 256.714 65.0556 256.141V249.266C65.0556 248.693 65.0192 248.333 64.9463 248.188C64.8785 248.036 64.7561 247.917 64.5791 247.828C64.402 247.74 64.0713 247.695 63.5869 247.695V247.406H68.5088C69.79 247.406 70.7275 247.495 71.3213 247.672C71.915 247.849 72.3994 248.177 72.7744 248.656C73.1494 249.13 73.3369 249.688 73.3369 250.328C73.3369 251.109 73.0556 251.755 72.4931 252.266C72.1338 252.589 71.6311 252.831 70.9853 252.992L73.5322 256.578C73.8655 257.042 74.1025 257.331 74.2431 257.445C74.4567 257.607 74.7041 257.695 74.9853 257.711V258H71.6494L68.2353 253.172H67.54ZM67.54 247.977V252.617H67.9853C68.7093 252.617 69.2509 252.552 69.6103 252.422C69.9697 252.286 70.2509 252.047 70.4541 251.703C70.6624 251.354 70.7666 250.901 70.7666 250.344C70.7666 249.536 70.5765 248.94 70.1963 248.555C69.8213 248.169 69.2145 247.977 68.3759 247.977H67.54ZM78.8919 248.016V252.328H79.1028C79.7747 252.328 80.2617 252.117 80.5638 251.695C80.8658 251.273 81.0585 250.651 81.1419 249.828H81.4388V255.375H81.1419C81.0794 254.771 80.9466 254.276 80.7434 253.891C80.5455 253.505 80.3138 253.247 80.0481 253.117C79.7825 252.982 79.3971 252.914 78.8919 252.914V255.898C78.8919 256.482 78.9153 256.839 78.9622 256.969C79.0143 257.099 79.108 257.206 79.2434 257.289C79.3789 257.372 79.5976 257.414 79.8997 257.414H80.5325C81.5221 257.414 82.3138 257.185 82.9075 256.727C83.5065 256.268 83.9361 255.57 84.1966 254.633H84.4856L84.0091 258H74.8528V257.711H75.2044C75.5117 257.711 75.7591 257.656 75.9466 257.547C76.082 257.474 76.1861 257.349 76.2591 257.172C76.3164 257.047 76.345 256.719 76.345 256.188V249.219C76.345 248.74 76.332 248.445 76.3059 248.336C76.2539 248.154 76.1575 248.013 76.0169 247.914C75.819 247.768 75.5481 247.695 75.2044 247.695H74.8528V247.406H83.72V250.539H83.4231C83.2721 249.773 83.0585 249.224 82.7825 248.891C82.5117 248.557 82.1263 248.312 81.6263 248.156C81.3346 248.062 80.7877 248.016 79.9856 248.016H78.8919ZM94.9859 254.281L94.5875 258H85.1813V257.711H85.5328C85.8401 257.711 86.0875 257.656 86.275 257.547C86.4104 257.474 86.5146 257.349 86.5875 257.172C86.6448 257.047 86.6734 256.719 86.6734 256.188V249.219C86.6734 248.677 86.6448 248.339 86.5875 248.203C86.5302 248.068 86.413 247.951 86.2359 247.852C86.0641 247.747 85.8297 247.695 85.5328 247.695H85.1813V247.406H90.8297V247.695H90.3688C90.0615 247.695 89.8141 247.75 89.6266 247.859C89.4911 247.932 89.3844 248.057 89.3063 248.234C89.249 248.359 89.2203 248.688 89.2203 249.219V255.969C89.2203 256.51 89.2516 256.857 89.3141 257.008C89.3766 257.154 89.499 257.263 89.6813 257.336C89.8115 257.383 90.1266 257.406 90.6266 257.406H91.5094C92.0719 257.406 92.5406 257.307 92.9156 257.109C93.2906 256.911 93.6135 256.599 93.8844 256.172C94.1604 255.745 94.4208 255.115 94.6656 254.281H94.9859ZM105.338 254.281L104.939 258H95.5331V257.711H95.8847C96.192 257.711 96.4394 257.656 96.6269 257.547C96.7623 257.474 96.8665 257.349 96.9394 257.172C96.9967 257.047 97.0253 256.719 97.0253 256.188V249.219C97.0253 248.677 96.9967 248.339 96.9394 248.203C96.8821 248.068 96.7649 247.951 96.5878 247.852C96.4159 247.747 96.1816 247.695 95.8847 247.695H95.5331V247.406H101.182V247.695H100.721C100.413 247.695 100.166 247.75 99.9784 247.859C99.843 247.932 99.7363 248.057 99.6581 248.234C99.6008 248.359 99.5722 248.688 99.5722 249.219V255.969C99.5722 256.51 99.6034 256.857 99.6659 257.008C99.7284 257.154 99.8508 257.263 100.033 257.336C100.163 257.383 100.478 257.406 100.978 257.406H101.861C102.424 257.406 102.893 257.307 103.268 257.109C103.643 256.911 103.965 256.599 104.236 256.172C104.512 255.745 104.773 255.115 105.018 254.281H105.338ZM112.244 254.984H108.502L108.057 256.016C107.911 256.359 107.838 256.643 107.838 256.867C107.838 257.164 107.958 257.383 108.198 257.523C108.338 257.607 108.684 257.669 109.237 257.711V258H105.713V257.711C106.093 257.654 106.406 257.497 106.651 257.242C106.895 256.982 107.198 256.448 107.557 255.641L111.346 247.188H111.494L115.315 255.875C115.679 256.698 115.979 257.216 116.213 257.43C116.39 257.591 116.64 257.685 116.963 257.711V258H111.838V257.711H112.049C112.461 257.711 112.75 257.654 112.916 257.539C113.031 257.456 113.088 257.336 113.088 257.18C113.088 257.086 113.073 256.99 113.041 256.891C113.031 256.844 112.953 256.648 112.807 256.305L112.244 254.984ZM111.979 254.406L110.401 250.758L108.776 254.406H111.979Z" fill="#D9B770"/>
<path d="M41.957 292.285H41.7578C41.7578 291.66 41.5977 291.131 41.2773 290.697C40.9336 290.232 40.4824 290 39.9238 290C39.7402 289.711 39.2676 289.039 38.5059 287.984C38.2285 287.594 37.9531 287.203 37.6797 286.812C37.3203 286.395 36.9238 286.184 36.4902 286.18V288.553C36.4902 289.061 36.5566 289.389 36.6895 289.537C36.8262 289.686 37.1426 289.768 37.6387 289.783V290H34.2168V289.783C34.7129 289.768 35.0312 289.684 35.1719 289.531C35.3008 289.383 35.3652 289.057 35.3652 288.553V283.502C35.3652 282.994 35.2969 282.666 35.1602 282.518C35.0273 282.369 34.7129 282.287 34.2168 282.271V282.055H37.6387V282.271C37.1426 282.287 36.8262 282.369 36.6895 282.518C36.5566 282.666 36.4902 282.994 36.4902 283.502V285.717C36.8613 285.713 37.1211 285.693 37.2695 285.658C37.4922 285.6 37.7129 285.471 37.9316 285.271C38.1348 285.088 38.2969 284.885 38.418 284.662C38.5312 284.451 38.6836 284.096 38.875 283.596C39.0352 283.166 39.1504 282.891 39.2207 282.77C39.377 282.496 39.584 282.291 39.8418 282.154C40.084 282.025 40.377 281.961 40.7207 281.961C41.3223 281.961 41.623 282.172 41.623 282.594C41.623 282.746 41.5625 282.877 41.4414 282.986C41.3242 283.092 41.1895 283.145 41.0371 283.145C40.9238 283.145 40.7402 283.082 40.4863 282.957C40.2559 282.844 40.0977 282.787 40.0117 282.787C39.8398 282.787 39.6777 282.951 39.5254 283.279C39.5215 283.283 39.4336 283.518 39.2617 283.982C38.8906 284.979 38.4121 285.613 37.8262 285.887C38.1816 285.949 38.6738 286.436 39.3027 287.346C39.9473 288.275 40.3125 288.789 40.3984 288.887C40.9062 289.473 41.4258 289.771 41.957 289.783V292.285ZM45.4199 289.227C44.8691 289.652 44.5234 289.898 44.3828 289.965C44.1719 290.062 43.9473 290.111 43.709 290.111C43.3379 290.111 43.0312 289.984 42.7891 289.73C42.5508 289.477 42.4316 289.143 42.4316 288.729C42.4316 288.467 42.4902 288.24 42.6074 288.049C42.7676 287.783 43.0449 287.533 43.4395 287.299C43.8379 287.064 44.498 286.779 45.4199 286.443V286.232C45.4199 285.697 45.334 285.33 45.1621 285.131C44.9941 284.932 44.748 284.832 44.4238 284.832C44.1777 284.832 43.9824 284.898 43.8379 285.031C43.6895 285.164 43.6152 285.316 43.6152 285.488L43.627 285.828C43.627 286.008 43.5801 286.146 43.4863 286.244C43.3965 286.342 43.2773 286.391 43.1289 286.391C42.9844 286.391 42.8652 286.34 42.7715 286.238C42.6816 286.137 42.6367 285.998 42.6367 285.822C42.6367 285.486 42.8086 285.178 43.1523 284.896C43.4961 284.615 43.9785 284.475 44.5996 284.475C45.0762 284.475 45.4668 284.555 45.7715 284.715C46.002 284.836 46.1719 285.025 46.2812 285.283C46.3516 285.451 46.3867 285.795 46.3867 286.314V288.137C46.3867 288.648 46.3965 288.963 46.416 289.08C46.4355 289.193 46.4668 289.27 46.5098 289.309C46.5566 289.348 46.6094 289.367 46.668 289.367C46.7305 289.367 46.7852 289.354 46.832 289.326C46.9141 289.275 47.0723 289.133 47.3066 288.898V289.227C46.8691 289.812 46.4512 290.105 46.0527 290.105C45.8613 290.105 45.709 290.039 45.5957 289.906C45.4824 289.773 45.4238 289.547 45.4199 289.227ZM45.4199 288.846V286.801C44.8301 287.035 44.4492 287.201 44.2773 287.299C43.9688 287.471 43.748 287.65 43.6152 287.838C43.4824 288.025 43.416 288.23 43.416 288.453C43.416 288.734 43.5 288.969 43.668 289.156C43.8359 289.34 44.0293 289.432 44.248 289.432C44.5449 289.432 44.9355 289.236 45.4199 288.846ZM48.3672 284.633H53.166V284.855C52.9004 284.855 52.7227 284.883 52.6328 284.938C52.5469 284.988 52.4785 285.053 52.4277 285.131C52.377 285.209 52.3516 285.463 52.3516 285.893V288.74C52.3516 289.154 52.373 289.402 52.416 289.484C52.459 289.562 52.5254 289.633 52.6152 289.695C52.709 289.754 52.8926 289.783 53.166 289.783V290H50.3887V289.783C50.6895 289.783 50.8965 289.768 51.0098 289.736C51.127 289.705 51.2188 289.631 51.2852 289.514C51.3516 289.393 51.3848 289.135 51.3848 288.74V285.014H49.5977V287.275C49.5977 288.131 49.5586 288.732 49.4805 289.08C49.4062 289.424 49.2559 289.68 49.0293 289.848C48.8066 290.012 48.5508 290.094 48.2617 290.094C47.7617 290.094 47.5117 289.887 47.5117 289.473C47.5117 289.332 47.5508 289.217 47.6289 289.127C47.7109 289.037 47.8164 288.992 47.9453 288.992C48.082 288.992 48.209 289.049 48.3262 289.162C48.4785 289.311 48.5938 289.385 48.6719 289.385C48.8477 289.385 48.9746 289.238 49.0527 288.945C49.1348 288.648 49.1758 288.131 49.1758 287.393V286.209C49.1758 285.6 49.1309 285.229 49.041 285.096C48.9551 284.963 48.7305 284.883 48.3672 284.855V284.633ZM56.8457 289.227C56.2949 289.652 55.9492 289.898 55.8086 289.965C55.5977 290.062 55.373 290.111 55.1348 290.111C54.7637 290.111 54.457 289.984 54.2148 289.73C53.9766 289.477 53.8574 289.143 53.8574 288.729C53.8574 288.467 53.916 288.24 54.0332 288.049C54.1934 287.783 54.4707 287.533 54.8652 287.299C55.2637 287.064 55.9238 286.779 56.8457 286.443V286.232C56.8457 285.697 56.7598 285.33 56.5879 285.131C56.4199 284.932 56.1738 284.832 55.8496 284.832C55.6035 284.832 55.4082 284.898 55.2637 285.031C55.1152 285.164 55.041 285.316 55.041 285.488L55.0527 285.828C55.0527 286.008 55.0059 286.146 54.9121 286.244C54.8223 286.342 54.7031 286.391 54.5547 286.391C54.4102 286.391 54.291 286.34 54.1973 286.238C54.1074 286.137 54.0625 285.998 54.0625 285.822C54.0625 285.486 54.2344 285.178 54.5781 284.896C54.9219 284.615 55.4043 284.475 56.0254 284.475C56.502 284.475 56.8926 284.555 57.1973 284.715C57.4277 284.836 57.5977 285.025 57.707 285.283C57.7773 285.451 57.8125 285.795 57.8125 286.314V288.137C57.8125 288.648 57.8223 288.963 57.8418 289.08C57.8613 289.193 57.8926 289.27 57.9355 289.309C57.9824 289.348 58.0352 289.367 58.0938 289.367C58.1562 289.367 58.2109 289.354 58.2578 289.326C58.3398 289.275 58.498 289.133 58.7324 288.898V289.227C58.2949 289.812 57.877 290.105 57.4785 290.105C57.2871 290.105 57.1348 290.039 57.0215 289.906C56.9082 289.773 56.8496 289.547 56.8457 289.227ZM56.8457 288.846V286.801C56.2559 287.035 55.875 287.201 55.7031 287.299C55.3945 287.471 55.1738 287.65 55.041 287.838C54.9082 288.025 54.8418 288.23 54.8418 288.453C54.8418 288.734 54.9258 288.969 55.0938 289.156C55.2617 289.34 55.4551 289.432 55.6738 289.432C55.9707 289.432 56.3613 289.236 56.8457 288.846Z" fill="#D9B770" fill-opacity="0.8"/>
<path d="M34.6719 305.695V305.406H39.5V305.695H39.3125C38.9271 305.695 38.6719 305.792 38.5469 305.984C38.4219 306.177 38.3594 306.586 38.3594 307.211V314.375C38.3594 314.818 38.4115 315.086 38.5156 315.18C38.625 315.268 38.9167 315.312 39.3906 315.312H40.375C40.9948 315.312 41.3385 315.263 41.4062 315.164C41.4792 315.06 41.5156 314.797 41.5156 314.375V307.211C41.5156 306.586 41.4531 306.177 41.3281 305.984C41.2031 305.792 40.9453 305.695 40.5547 305.695H40.375V305.406H45.2031V305.695H45.0156C44.6302 305.695 44.375 305.792 44.25 305.984C44.125 306.172 44.0625 306.581 44.0625 307.211V314.203C44.0625 314.719 44.0885 315.034 44.1406 315.148C44.1979 315.258 44.5156 315.312 45.0938 315.312H46.3359C46.8203 315.312 47.0885 315.25 47.1406 315.125C47.1927 314.995 47.2188 314.719 47.2188 314.297V307.211C47.2188 306.596 47.1562 306.19 47.0312 305.992C46.9062 305.794 46.6484 305.695 46.2578 305.695H46.0781V305.406H50.8984V305.695H50.7188C50.3281 305.695 50.0703 305.794 49.9453 305.992C49.8203 306.185 49.7578 306.591 49.7578 307.211V314.203C49.7578 314.797 49.8125 315.198 49.9219 315.406C50.0312 315.609 50.2969 315.711 50.7188 315.711H50.8984V316H34.6719V315.711H34.8516C35.3255 315.711 35.6042 315.586 35.6875 315.336C35.7708 315.081 35.8125 314.667 35.8125 314.094V307.211C35.8125 306.581 35.7474 306.172 35.6172 305.984C35.4922 305.792 35.237 305.695 34.8516 305.695H34.6719ZM63.1644 308.695V308.984C62.6383 309.021 62.3753 309.375 62.3753 310.047V314.633C62.3753 314.992 62.4326 315.258 62.5472 315.43C62.667 315.596 62.8727 315.69 63.1644 315.711V316H59.4066V315.711C59.6826 315.69 59.8805 315.602 60.0003 315.445C60.1253 315.289 60.1878 315.018 60.1878 314.633V310.047C60.1878 309.688 60.1305 309.427 60.0159 309.266C59.9014 309.104 59.6982 309.01 59.4066 308.984V308.695H63.1644ZM51.8675 316V315.711C52.1696 315.669 52.3727 315.57 52.4769 315.414C52.5863 315.253 52.6409 314.958 52.6409 314.531V310.117C52.6409 309.721 52.5836 309.445 52.4691 309.289C52.3597 309.133 52.1592 309.031 51.8675 308.984V308.695H55.6019V308.984C55.2894 309.031 55.081 309.141 54.9769 309.312C54.8779 309.479 54.8284 309.784 54.8284 310.227V311.969H55.3909C56.6618 311.969 57.6201 312.151 58.2659 312.516C58.9118 312.875 59.2347 313.375 59.2347 314.016C59.2347 314.62 58.9482 315.102 58.3753 315.461C57.8024 315.82 56.9534 316 55.8284 316H51.8675ZM54.8284 312.461V314.734C54.8284 315.089 54.8857 315.307 55.0003 315.391C55.1201 315.474 55.2633 315.516 55.43 315.516C55.8363 315.516 56.1878 315.378 56.4847 315.102C56.7868 314.82 56.9378 314.443 56.9378 313.969C56.9378 312.964 56.2347 312.461 54.8284 312.461ZM64.0084 308.695H67.0631L68.9147 313.227L70.7663 308.695H73.7428V308.984C73.4564 309 73.2532 309.086 73.1334 309.242C73.0136 309.393 72.9538 309.667 72.9538 310.062V314.602C72.9538 315.013 73.0084 315.297 73.1178 315.453C73.2324 315.609 73.4407 315.695 73.7428 315.711V316H69.8913V315.711C70.2142 315.706 70.4407 315.62 70.5709 315.453C70.7011 315.286 70.7663 315.003 70.7663 314.602V309.922L68.2194 316H67.8209L65.3522 310.008V314.727C65.3522 315.065 65.4095 315.31 65.5241 315.461C65.6386 315.612 65.8626 315.695 66.1959 315.711V316H64.0084V315.711C64.3001 315.701 64.5058 315.62 64.6256 315.469C64.7506 315.312 64.8131 315.047 64.8131 314.672V310.008C64.8131 309.648 64.7532 309.393 64.6334 309.242C64.5136 309.086 64.3053 309 64.0084 308.984V308.695ZM74.5791 308.695H78.2978V308.984C78.0166 308.995 77.8265 309.073 77.7275 309.219C77.6338 309.365 77.5869 309.674 77.5869 310.148V311.945C78.1702 311.945 78.5686 311.852 78.7822 311.664C79.0009 311.471 79.2093 311.107 79.4072 310.57C79.6832 309.815 79.9619 309.294 80.2431 309.008C80.5296 308.716 80.9176 308.57 81.4072 308.57C81.8186 308.57 82.178 308.688 82.4853 308.922C82.7926 309.151 82.9463 309.456 82.9463 309.836C82.9463 310.128 82.8551 310.378 82.6728 310.586C82.4957 310.789 82.264 310.891 81.9775 310.891C81.389 310.891 81.0895 310.589 81.0791 309.984C81.0739 309.562 80.9827 309.352 80.8056 309.352C80.54 309.352 80.2718 309.708 80.0009 310.422C79.7822 311.005 79.6311 311.372 79.5478 311.523C79.4645 311.674 79.3213 311.841 79.1181 312.023C79.6442 312.128 80.0244 312.268 80.2588 312.445C80.4983 312.622 80.8108 313.026 81.1963 313.656L81.8916 314.773C82.2561 315.367 82.639 315.68 83.04 315.711V316H80.2275L78.0556 312.445H77.5869V314.477C77.5869 314.935 77.6416 315.253 77.7509 315.43C77.8603 315.602 78.0426 315.695 78.2978 315.711V316H74.5791V315.711C74.8239 315.706 75.0218 315.641 75.1728 315.516C75.3239 315.391 75.3994 315.073 75.3994 314.562V310.25C75.3994 309.766 75.3395 309.435 75.2197 309.258C75.1051 309.076 74.8916 308.984 74.5791 308.984V308.695ZM89.2434 312.086H85.2356C85.2825 313.055 85.5403 313.82 86.0091 314.383C86.3684 314.815 86.8007 315.031 87.3059 315.031C87.6184 315.031 87.9023 314.945 88.1575 314.773C88.4127 314.596 88.6861 314.281 88.9778 313.828L89.2434 314C88.8476 314.807 88.4101 315.38 87.9309 315.719C87.4518 316.052 86.8971 316.219 86.2669 316.219C85.1835 316.219 84.3632 315.802 83.8059 314.969C83.358 314.297 83.1341 313.464 83.1341 312.469C83.1341 311.25 83.4622 310.281 84.1184 309.562C84.7799 308.839 85.5533 308.477 86.4388 308.477C87.1783 308.477 87.819 308.781 88.3606 309.391C88.9075 309.995 89.2018 310.893 89.2434 312.086ZM87.3216 311.562C87.3216 310.724 87.2747 310.148 87.1809 309.836C87.0924 309.523 86.9518 309.286 86.7591 309.125C86.6497 309.031 86.5039 308.984 86.3216 308.984C86.0507 308.984 85.8294 309.117 85.6575 309.383C85.3502 309.846 85.1966 310.482 85.1966 311.289V311.562H87.3216ZM89.8531 316V315.711C90.1552 315.711 90.3661 315.635 90.4859 315.484C90.6109 315.328 90.6734 315.034 90.6734 314.602V310.117C90.6734 309.659 90.6135 309.357 90.4938 309.211C90.374 309.06 90.1604 308.984 89.8531 308.984V308.695H93.5719V308.984C93.3115 308.995 93.1266 309.062 93.0172 309.188C92.913 309.312 92.8609 309.596 92.8609 310.039V311.969H94.9547V310.039C94.9547 309.674 94.9156 309.409 94.8375 309.242C94.7594 309.07 94.5641 308.984 94.2516 308.984V308.695H97.9625V308.984C97.6604 308.984 97.4469 309.06 97.3219 309.211C97.2021 309.357 97.1422 309.604 97.1422 309.953V314.602C97.1422 315.06 97.2021 315.357 97.3219 315.492C97.4417 315.628 97.6552 315.701 97.9625 315.711V316H94.2516V315.711C94.512 315.706 94.6943 315.646 94.7984 315.531C94.9026 315.411 94.9547 315.12 94.9547 314.656V312.461H92.8609V314.602C92.8609 315.065 92.913 315.367 93.0172 315.508C93.1266 315.643 93.3115 315.711 93.5719 315.711V316H89.8531ZM100.221 316V315.711C100.533 315.711 100.747 315.63 100.861 315.469C100.981 315.307 101.041 314.987 101.041 314.508V309.188H100.314C99.804 309.188 99.4498 309.279 99.2519 309.461C99.054 309.643 98.8977 310.023 98.7831 310.602H98.4941V308.695H105.775V310.602H105.486C105.393 310.081 105.254 309.716 105.072 309.508C104.89 309.294 104.523 309.188 103.971 309.188H103.228V314.508C103.228 315.003 103.286 315.326 103.4 315.477C103.52 315.628 103.736 315.706 104.049 315.711V316H100.221Z" fill="#D9B770"/>
<path d="M39.4902 345.34H36.4141L35.875 346.594C35.7422 346.902 35.6758 347.133 35.6758 347.285C35.6758 347.406 35.7324 347.514 35.8457 347.607C35.9629 347.697 36.2129 347.756 36.5957 347.783V348H34.0938V347.783C34.4258 347.725 34.6406 347.648 34.7383 347.555C34.9375 347.367 35.1582 346.986 35.4004 346.412L38.1953 339.873H38.4004L41.166 346.482C41.3887 347.014 41.5898 347.359 41.7695 347.52C41.9531 347.676 42.207 347.764 42.5312 347.783V348H39.3965V347.783C39.7129 347.768 39.9258 347.715 40.0352 347.625C40.1484 347.535 40.2051 347.426 40.2051 347.297C40.2051 347.125 40.127 346.854 39.9707 346.482L39.4902 345.34ZM39.3262 344.906L37.9785 341.695L36.5957 344.906H39.3262ZM43.7793 342.633H48.5137V342.855C48.248 342.855 48.0703 342.883 47.9805 342.938C47.8945 342.988 47.8262 343.053 47.7754 343.131C47.7246 343.209 47.6992 343.463 47.6992 343.893V346.547C47.6992 347.105 47.7461 347.449 47.8398 347.578C47.9375 347.703 48.1621 347.771 48.5137 347.783V349.488H48.291C48.2754 349.168 48.1953 348.889 48.0508 348.65C47.9102 348.412 47.7129 348.244 47.459 348.146C47.2051 348.049 46.8301 348 46.334 348H44.9512C44.5215 348 44.1855 348.037 43.9434 348.111C43.7012 348.189 43.498 348.35 43.334 348.592C43.1738 348.834 43.0762 349.133 43.041 349.488H42.8242V347.783C43.1445 347.771 43.4355 347.645 43.6973 347.402C43.959 347.16 44.1895 346.686 44.3887 345.979C44.5879 345.271 44.6875 344.576 44.6875 343.893C44.6875 343.221 44.3848 342.875 43.7793 342.855V342.633ZM45.0742 343.014V343.336C45.0742 345.254 44.7266 346.682 44.0312 347.619H46.0234C46.3828 347.619 46.5898 347.59 46.6445 347.531C46.6992 347.469 46.7266 347.244 46.7266 346.857V343.014H45.0742ZM48.7656 343.166L50.418 342.498H50.6406V343.752C50.918 343.279 51.1953 342.949 51.4727 342.762C51.7539 342.57 52.0488 342.475 52.3574 342.475C52.8965 342.475 53.3457 342.686 53.7051 343.107C54.1465 343.623 54.3672 344.295 54.3672 345.123C54.3672 346.049 54.1016 346.814 53.5703 347.42C53.1328 347.916 52.582 348.164 51.918 348.164C51.6289 348.164 51.3789 348.123 51.168 348.041C51.0117 347.982 50.8359 347.865 50.6406 347.689V349.324C50.6406 349.691 50.6621 349.924 50.7051 350.021C50.752 350.123 50.8301 350.203 50.9395 350.262C51.0527 350.32 51.2559 350.35 51.5488 350.35V350.566H48.7363V350.35H48.8828C49.0977 350.354 49.2812 350.312 49.4336 350.227C49.5078 350.184 49.5645 350.113 49.6035 350.016C49.6465 349.922 49.668 349.68 49.668 349.289V344.215C49.668 343.867 49.6523 343.646 49.6211 343.553C49.5898 343.459 49.5391 343.389 49.4688 343.342C49.4023 343.295 49.3105 343.271 49.1934 343.271C49.0996 343.271 48.9805 343.299 48.8359 343.354L48.7656 343.166ZM50.6406 344.098V346.102C50.6406 346.535 50.6582 346.82 50.6934 346.957C50.748 347.184 50.8809 347.383 51.0918 347.555C51.3066 347.727 51.5762 347.812 51.9004 347.812C52.291 347.812 52.6074 347.66 52.8496 347.355C53.166 346.957 53.3242 346.396 53.3242 345.674C53.3242 344.854 53.1445 344.223 52.7852 343.781C52.5352 343.477 52.2383 343.324 51.8945 343.324C51.707 343.324 51.5215 343.371 51.3379 343.465C51.1973 343.535 50.9648 343.746 50.6406 344.098ZM56.0547 344.654C56.0508 345.451 56.2441 346.076 56.6348 346.529C57.0254 346.982 57.4844 347.209 58.0117 347.209C58.3633 347.209 58.668 347.113 58.9258 346.922C59.1875 346.727 59.4062 346.395 59.582 345.926L59.7637 346.043C59.6816 346.578 59.4434 347.066 59.0488 347.508C58.6543 347.945 58.1602 348.164 57.5664 348.164C56.9219 348.164 56.3691 347.914 55.9082 347.414C55.4512 346.91 55.2227 346.234 55.2227 345.387C55.2227 344.469 55.457 343.754 55.9258 343.242C56.3984 342.727 56.9902 342.469 57.7012 342.469C58.3027 342.469 58.7969 342.668 59.1836 343.066C59.5703 343.461 59.7637 343.99 59.7637 344.654H56.0547ZM56.0547 344.314H58.5391C58.5195 343.971 58.4785 343.729 58.416 343.588C58.3184 343.369 58.1719 343.197 57.9766 343.072C57.7852 342.947 57.584 342.885 57.373 342.885C57.0488 342.885 56.7578 343.012 56.5 343.266C56.2461 343.516 56.0977 343.865 56.0547 344.314ZM65.3477 345.961C65.2031 346.668 64.9199 347.213 64.498 347.596C64.0762 347.975 63.6094 348.164 63.0977 348.164C62.4883 348.164 61.957 347.908 61.5039 347.396C61.0508 346.885 60.8242 346.193 60.8242 345.322C60.8242 344.479 61.0742 343.793 61.5742 343.266C62.0781 342.738 62.6816 342.475 63.3848 342.475C63.9121 342.475 64.3457 342.615 64.6855 342.896C65.0254 343.174 65.1953 343.463 65.1953 343.764C65.1953 343.912 65.1465 344.033 65.0488 344.127C64.9551 344.217 64.8223 344.262 64.6504 344.262C64.4199 344.262 64.2461 344.188 64.1289 344.039C64.0625 343.957 64.0176 343.801 63.9941 343.57C63.9746 343.34 63.8965 343.164 63.7598 343.043C63.623 342.926 63.4336 342.867 63.1914 342.867C62.8008 342.867 62.4863 343.012 62.248 343.301C61.9316 343.684 61.7734 344.189 61.7734 344.818C61.7734 345.459 61.9297 346.025 62.2422 346.518C62.5586 347.006 62.9844 347.25 63.5195 347.25C63.9023 347.25 64.2461 347.119 64.5508 346.857C64.7656 346.678 64.9746 346.352 65.1777 345.879L65.3477 345.961Z" fill="#D9B770" fill-opacity="0.8"/>
<path d="M45.875 368.664C45.875 370.008 45.4818 371.19 44.6953 372.211C43.6536 373.565 42.1823 374.242 40.2812 374.242C38.375 374.242 36.901 373.596 35.8594 372.305C35.0365 371.284 34.625 370.073 34.625 368.672C34.625 367.099 35.1615 365.786 36.2344 364.734C37.2396 363.75 38.5547 363.258 40.1797 363.258C41.9349 363.258 43.3073 363.75 44.2969 364.734C45.349 365.781 45.875 367.091 45.875 368.664ZM43.0469 368.219C42.9844 366.141 42.526 364.797 41.6719 364.188C41.2708 363.901 40.8047 363.758 40.2734 363.758C38.4922 363.758 37.5521 365.245 37.4531 368.219H43.0469ZM43.0547 368.906H37.4453C37.4661 370.63 37.7839 371.911 38.3984 372.75C38.8411 373.354 39.4609 373.656 40.2578 373.656C41.4036 373.656 42.2083 372.992 42.6719 371.664C42.9219 370.951 43.0495 370.031 43.0547 368.906ZM48.1488 374V373.711C48.4613 373.711 48.6748 373.63 48.7894 373.469C48.9092 373.307 48.9691 372.987 48.9691 372.508V367.188H48.2425C47.7321 367.188 47.3779 367.279 47.18 367.461C46.9821 367.643 46.8258 368.023 46.7113 368.602H46.4222V366.695H53.7034V368.602H53.4144C53.3206 368.081 53.1826 367.716 53.0003 367.508C52.818 367.294 52.4508 367.188 51.8988 367.188H51.1566V372.508C51.1566 373.003 51.2139 373.326 51.3284 373.477C51.4482 373.628 51.6644 373.706 51.9769 373.711V374H48.1488ZM60.3991 370.086H56.3913C56.4381 371.055 56.6959 371.82 57.1647 372.383C57.5241 372.815 57.9564 373.031 58.4616 373.031C58.7741 373.031 59.0579 372.945 59.3131 372.773C59.5683 372.596 59.8418 372.281 60.1334 371.828L60.3991 372C60.0032 372.807 59.5657 373.38 59.0866 373.719C58.6074 374.052 58.0527 374.219 57.4225 374.219C56.3392 374.219 55.5189 373.802 54.9616 372.969C54.5136 372.297 54.2897 371.464 54.2897 370.469C54.2897 369.25 54.6178 368.281 55.2741 367.562C55.9355 366.839 56.709 366.477 57.5944 366.477C58.334 366.477 58.9746 366.781 59.5163 367.391C60.0631 367.995 60.3574 368.893 60.3991 370.086ZM58.4772 369.562C58.4772 368.724 58.4303 368.148 58.3366 367.836C58.248 367.523 58.1074 367.286 57.9147 367.125C57.8053 367.031 57.6595 366.984 57.4772 366.984C57.2064 366.984 56.985 367.117 56.8131 367.383C56.5058 367.846 56.3522 368.482 56.3522 369.289V369.562H58.4772ZM61.0244 373.711C61.3265 373.69 61.5374 373.612 61.6572 373.477C61.777 373.336 61.8369 373.06 61.8369 372.648V368.008C61.8369 367.638 61.7796 367.383 61.665 367.242C61.5556 367.096 61.3421 367.01 61.0244 366.984V366.695H67.4463V368.602H67.1572C67.0374 368.008 66.8733 367.625 66.665 367.453C66.4567 367.276 66.0582 367.188 65.4697 367.188H64.0244V372.695C64.0244 373.06 64.0843 373.318 64.2041 373.469C64.3239 373.62 64.566 373.701 64.9306 373.711V374H61.0244V373.711ZM73.9153 370.086H69.9075C69.9544 371.055 70.2122 371.82 70.6809 372.383C71.0403 372.815 71.4726 373.031 71.9778 373.031C72.2903 373.031 72.5742 372.945 72.8294 372.773C73.0846 372.596 73.358 372.281 73.6497 371.828L73.9153 372C73.5195 372.807 73.082 373.38 72.6028 373.719C72.1236 374.052 71.569 374.219 70.9388 374.219C69.8554 374.219 69.0351 373.802 68.4778 372.969C68.0299 372.297 67.8059 371.464 67.8059 370.469C67.8059 369.25 68.1341 368.281 68.7903 367.562C69.4518 366.839 70.2252 366.477 71.1106 366.477C71.8502 366.477 72.4908 366.781 73.0325 367.391C73.5794 367.995 73.8736 368.893 73.9153 370.086ZM71.9934 369.562C71.9934 368.724 71.9466 368.148 71.8528 367.836C71.7643 367.523 71.6236 367.286 71.4309 367.125C71.3216 367.031 71.1757 366.984 70.9934 366.984C70.7226 366.984 70.5013 367.117 70.3294 367.383C70.0221 367.846 69.8684 368.482 69.8684 369.289V369.562H71.9934ZM74.525 374V373.711C74.8271 373.711 75.038 373.635 75.1578 373.484C75.2828 373.328 75.3453 373.034 75.3453 372.602V368.117C75.3453 367.659 75.2854 367.357 75.1656 367.211C75.0458 367.06 74.8323 366.984 74.525 366.984V366.695H78.2438V366.984C77.9833 366.995 77.7984 367.062 77.6891 367.188C77.5849 367.312 77.5328 367.596 77.5328 368.039V369.969H79.6266V368.039C79.6266 367.674 79.5875 367.409 79.5094 367.242C79.4313 367.07 79.2359 366.984 78.9234 366.984V366.695H82.6344V366.984C82.3323 366.984 82.1188 367.06 81.9938 367.211C81.874 367.357 81.8141 367.604 81.8141 367.953V372.602C81.8141 373.06 81.874 373.357 81.9938 373.492C82.1135 373.628 82.3271 373.701 82.6344 373.711V374H78.9234V373.711C79.1839 373.706 79.3661 373.646 79.4703 373.531C79.5745 373.411 79.6266 373.12 79.6266 372.656V370.461H77.5328V372.602C77.5328 373.065 77.5849 373.367 77.6891 373.508C77.7984 373.643 77.9833 373.711 78.2438 373.711V374H74.525ZM86.8613 366.477C87.4967 366.477 88.0878 366.641 88.6347 366.969C89.1816 367.297 89.5956 367.763 89.8769 368.367C90.1633 368.971 90.3066 369.633 90.3066 370.352C90.3066 371.388 90.0435 372.255 89.5175 372.953C88.8821 373.797 88.0045 374.219 86.8847 374.219C85.7857 374.219 84.9394 373.833 84.3456 373.062C83.7519 372.292 83.455 371.398 83.455 370.383C83.455 369.336 83.7571 368.424 84.3613 367.648C84.9706 366.867 85.804 366.477 86.8613 366.477ZM86.8925 367.031C86.6269 367.031 86.3977 367.133 86.205 367.336C86.0175 367.534 85.8925 367.93 85.83 368.523C85.7727 369.112 85.7441 369.932 85.7441 370.984C85.7441 371.542 85.7805 372.062 85.8534 372.547C85.9107 372.917 86.0331 373.198 86.2206 373.391C86.4081 373.583 86.6217 373.68 86.8613 373.68C87.0956 373.68 87.2909 373.615 87.4472 373.484C87.6503 373.307 87.7857 373.06 87.8534 372.742C87.9576 372.247 88.0097 371.247 88.0097 369.742C88.0097 368.857 87.9602 368.25 87.8613 367.922C87.7623 367.589 87.6165 367.346 87.4238 367.195C87.2883 367.086 87.1113 367.031 86.8925 367.031ZM90.7209 366.695H94.7522C95.5959 366.695 96.286 366.849 96.8225 367.156C97.359 367.458 97.6272 367.909 97.6272 368.508C97.6272 369.315 97.0699 369.859 95.9553 370.141C97.4605 370.318 98.2131 370.948 98.2131 372.031C98.2131 372.688 97.9084 373.18 97.2991 373.508C96.6897 373.836 95.8537 374 94.7912 374H90.7209V373.711C91.0803 373.674 91.3017 373.591 91.385 373.461C91.4735 373.331 91.5178 373.076 91.5178 372.695V368.344C91.5178 367.755 91.4683 367.388 91.3694 367.242C91.2756 367.096 91.0595 367.01 90.7209 366.984V366.695ZM93.8147 369.953C95.0543 369.917 95.6741 369.456 95.6741 368.57C95.6741 367.664 95.0543 367.203 93.8147 367.188V369.953ZM93.8147 370.445V372.844C93.8147 373.089 93.8537 373.263 93.9319 373.367C94.01 373.466 94.1793 373.516 94.4397 373.516C94.8772 373.516 95.2496 373.362 95.5569 373.055C95.8642 372.747 96.0178 372.357 96.0178 371.883C96.0178 371.383 95.8459 371.018 95.5022 370.789C95.1636 370.56 94.6011 370.445 93.8147 370.445ZM109.667 363.188V363.406C108.724 363.646 107.966 363.956 107.393 364.336C106.826 364.711 106.375 365.169 106.042 365.711C105.714 366.247 105.459 366.914 105.276 367.711C105.505 367.555 105.696 367.453 105.847 367.406C106.185 367.302 106.526 367.25 106.87 367.25C107.662 367.25 108.321 367.539 108.847 368.117C109.378 368.69 109.643 369.474 109.643 370.469C109.643 371.167 109.5 371.807 109.214 372.391C108.927 372.974 108.521 373.424 107.995 373.742C107.469 374.06 106.906 374.219 106.308 374.219C105.656 374.219 105.055 374.042 104.503 373.688C103.951 373.328 103.518 372.805 103.206 372.117C102.899 371.43 102.745 370.682 102.745 369.875C102.745 368.688 103.029 367.583 103.597 366.562C104.169 365.536 104.979 364.721 106.026 364.117C107.078 363.508 108.292 363.198 109.667 363.188ZM105.175 368.344C105.133 369.062 105.112 369.589 105.112 369.922C105.112 370.641 105.18 371.336 105.315 372.008C105.456 372.68 105.646 373.151 105.886 373.422C106.058 373.615 106.261 373.711 106.495 373.711C106.735 373.711 106.948 373.573 107.136 373.297C107.323 373.016 107.417 372.448 107.417 371.594C107.417 370.156 107.242 369.164 106.893 368.617C106.669 368.263 106.367 368.086 105.987 368.086C105.779 368.086 105.508 368.172 105.175 368.344ZM117.245 368.703C117.245 369.76 117.097 370.747 116.8 371.664C116.623 372.227 116.383 372.688 116.081 373.047C115.784 373.406 115.446 373.693 115.066 373.906C114.685 374.115 114.271 374.219 113.823 374.219C113.313 374.219 112.852 374.089 112.441 373.828C112.029 373.568 111.665 373.195 111.347 372.711C111.118 372.357 110.917 371.885 110.745 371.297C110.521 370.5 110.409 369.677 110.409 368.828C110.409 367.677 110.571 366.62 110.894 365.656C111.159 364.859 111.563 364.25 112.105 363.828C112.646 363.401 113.219 363.188 113.823 363.188C114.438 363.188 115.011 363.398 115.542 363.82C116.079 364.237 116.472 364.799 116.722 365.508C117.071 366.482 117.245 367.547 117.245 368.703ZM114.839 368.688C114.839 366.833 114.829 365.753 114.808 365.445C114.756 364.721 114.631 364.232 114.433 363.977C114.303 363.81 114.092 363.727 113.8 363.727C113.576 363.727 113.399 363.789 113.269 363.914C113.076 364.096 112.946 364.419 112.878 364.883C112.81 365.341 112.777 366.948 112.777 369.703C112.777 371.203 112.829 372.208 112.933 372.719C113.011 373.089 113.123 373.336 113.269 373.461C113.415 373.586 113.607 373.648 113.847 373.648C114.107 373.648 114.303 373.565 114.433 373.398C114.652 373.107 114.777 372.656 114.808 372.047L114.839 368.688ZM119.878 368.688V368.414C120.472 368.242 120.884 368.083 121.113 367.938C121.342 367.786 121.54 367.56 121.707 367.258C121.873 366.951 121.957 366.641 121.957 366.328C121.957 365.896 121.798 365.526 121.48 365.219C121.168 364.906 120.777 364.75 120.308 364.75C119.579 364.75 118.959 365.135 118.449 365.906L118.16 365.805C118.535 364.935 119.014 364.281 119.597 363.844C120.186 363.406 120.839 363.188 121.558 363.188C122.293 363.188 122.897 363.411 123.371 363.859C123.85 364.307 124.089 364.831 124.089 365.43C124.089 365.82 123.977 366.198 123.753 366.562C123.535 366.922 123.188 367.24 122.714 367.516C123.324 367.812 123.787 368.18 124.105 368.617C124.428 369.049 124.589 369.594 124.589 370.25C124.589 371.354 124.188 372.294 123.386 373.07C122.589 373.841 121.519 374.227 120.175 374.227C119.279 374.227 118.626 374.078 118.214 373.781C117.918 373.573 117.769 373.305 117.769 372.977C117.769 372.737 117.855 372.534 118.027 372.367C118.199 372.195 118.397 372.109 118.621 372.109C118.793 372.109 118.954 372.146 119.105 372.219C119.188 372.26 119.483 372.49 119.988 372.906C120.498 373.318 120.975 373.523 121.418 373.523C121.803 373.523 122.134 373.372 122.41 373.07C122.686 372.763 122.824 372.375 122.824 371.906C122.824 371.193 122.574 370.536 122.074 369.938C121.574 369.333 120.842 368.917 119.878 368.688ZM129.683 363.164L126.207 374.242H125.207L128.699 363.164H129.683ZM134.777 368.016C135.522 368.562 136.038 369.073 136.324 369.547C136.616 370.016 136.762 370.555 136.762 371.164C136.762 372.018 136.439 372.742 135.793 373.336C135.152 373.924 134.28 374.219 133.176 374.219C132.129 374.219 131.319 373.961 130.746 373.445C130.173 372.93 129.887 372.299 129.887 371.555C129.887 370.987 130.051 370.49 130.379 370.062C130.712 369.635 131.264 369.245 132.035 368.891C131.197 368.25 130.658 367.727 130.418 367.32C130.184 366.914 130.067 366.443 130.067 365.906C130.067 365.198 130.366 364.576 130.965 364.039C131.569 363.497 132.395 363.227 133.442 363.227C134.452 363.227 135.228 363.466 135.77 363.945C136.317 364.419 136.59 364.99 136.59 365.656C136.59 366.156 136.442 366.599 136.145 366.984C135.853 367.365 135.397 367.708 134.777 368.016ZM134.184 367.617C134.376 367.357 134.52 367.065 134.613 366.742C134.707 366.419 134.754 366.065 134.754 365.68C134.754 365.003 134.608 364.484 134.317 364.125C134.098 363.849 133.796 363.711 133.41 363.711C133.061 363.711 132.764 363.839 132.52 364.094C132.275 364.344 132.152 364.656 132.152 365.031C132.152 365.411 132.288 365.807 132.559 366.219C132.835 366.625 133.376 367.091 134.184 367.617ZM132.621 369.266C132.46 369.411 132.345 369.544 132.277 369.664C132.173 369.846 132.08 370.112 131.996 370.461C131.913 370.81 131.871 371.174 131.871 371.555C131.871 372.044 131.934 372.456 132.059 372.789C132.184 373.117 132.361 373.354 132.59 373.5C132.824 373.646 133.064 373.719 133.309 373.719C133.689 373.719 134.009 373.581 134.27 373.305C134.53 373.023 134.66 372.641 134.66 372.156C134.66 371.146 133.981 370.182 132.621 369.266Z" fill="#D9B770"/>
<path d="M2 186H272.5" stroke="#D9B770" stroke-linecap="round" stroke-dasharray="15 15"/>
<path d="M1.5 168.5C10.8888 168.5 18.5 176.111 18.5 185.5C18.5 194.889 10.8888 202.5 1.5 202.5C-7.88884 202.5 -15.5 194.889 -15.5 185.5C-15.5 176.111 -7.88884 168.5 1.5 168.5Z" fill="white" stroke="#D9B770"/>
<path d="M271.5 168.5C280.889 168.5 288.5 176.111 288.5 185.5C288.5 194.889 280.889 202.5 271.5 202.5C262.111 202.5 254.5 194.889 254.5 185.5C254.5 176.111 262.111 168.5 271.5 168.5Z" fill="white" stroke="#D9B770"/>
</g>
<rect x="2.5" y="0.5" width="269" height="518" rx="19.5" stroke="#D9B770"/>
<path d="M2 169V202" stroke="white" stroke-width="3"/>
<path d="M272 169V185.5V202" stroke="white" stroke-width="3"/>
<defs>
<clipPath id="clip0_141_8">
<rect x="2" width="270" height="519" rx="20" fill="white"/>
</clipPath>
</defs>
</svg>
