<svg width="270" height="519" viewBox="0 0 270 519" fill="none" xmlns="http://www.w3.org/2000/svg">
<g clip-path="url(#clip0_136_2)">
<rect width="270" height="519" rx="20" fill="white"/>
<path d="M34.1784 79L42.2484 58H44.1084L52.1784 79H49.9884L46.2684 69.16H39.4584L36.3684 79H34.1784ZM42.4584 59.56L39.6684 68.44H45.9984L42.6384 59.56H42.4584ZM57.0445 79V58H63.6445C65.9645 58 67.9845 58.44 69.7045 59.32C71.4245 60.2 72.7645 61.43 73.7245 63.01C74.6845 64.57 75.1645 66.4 75.1645 68.5C75.1645 70.6 74.6845 72.44 73.7245 74.02C72.7645 75.58 71.4245 76.8 69.7045 77.68C67.9845 78.56 65.9645 79 63.6445 79H57.0445ZM63.6445 58.72H59.0845V78.28H63.6445C66.5445 78.28 68.8045 77.42 70.4245 75.7C72.0645 73.98 72.8845 71.58 72.8845 68.5C72.8845 65.42 72.0645 63.02 70.4245 61.3C68.8045 59.58 66.5445 58.72 63.6445 58.72ZM81.4781 79V58H83.5181V79H81.4781ZM91.3219 58H93.3619V78.4C93.7419 78.4 94.3419 78.34 95.1619 78.22L100.142 77.47V79H91.3219V58ZM118.71 79L115.89 75.94C115.07 77.16 114.18 78.05 113.22 78.61C112.28 79.15 111.16 79.42 109.86 79.42C108.56 79.42 107.42 79.19 106.44 78.73C105.46 78.25 104.7 77.59 104.16 76.75C103.62 75.89 103.35 74.9 103.35 73.78C103.35 72.4 103.76 71.18 104.58 70.12C105.42 69.04 106.62 68.19 108.18 67.57L107.94 67.3C107.02 66.3 106.36 65.4 105.96 64.6C105.56 63.78 105.36 62.94 105.36 62.08C105.36 60.72 105.79 59.63 106.65 58.81C107.51 57.99 108.64 57.58 110.04 57.58C111.4 57.58 112.49 57.96 113.31 58.72C114.15 59.46 114.57 60.45 114.57 61.69C114.57 62.81 114.2 63.85 113.46 64.81C112.74 65.77 111.76 66.57 110.52 67.21L116.4 73.6L118.5 68.02H120.54L116.88 74.11L121.38 79H118.71ZM109.29 65.89L110.1 66.76C111.82 65.62 112.68 64 112.68 61.9C112.68 60.76 112.44 59.88 111.96 59.26C111.5 58.62 110.86 58.3 110.04 58.3C109.22 58.3 108.53 58.61 107.97 59.23C107.43 59.83 107.16 60.63 107.16 61.63C107.16 62.31 107.33 62.99 107.67 63.67C108.01 64.33 108.55 65.07 109.29 65.89ZM105.3 73.54C105.3 75.08 105.75 76.33 106.65 77.29C107.57 78.23 108.76 78.7 110.22 78.7C112.22 78.7 113.95 77.6 115.41 75.4L108.63 68.02C106.41 69.2 105.3 71.04 105.3 73.54ZM122.948 79L131.018 58H132.878L140.948 79H138.758L135.038 69.16H128.228L125.138 79H122.948ZM131.228 59.56L128.438 68.44H134.768L131.408 59.56H131.228ZM145.814 58H147.854V78.4C148.234 78.4 148.834 78.34 149.654 78.22L154.634 77.47V79H145.814V58ZM159.642 79V58H163.812C165.972 58 167.652 58.45 168.852 59.35C170.052 60.25 170.652 61.5 170.652 63.1C170.652 64.28 170.302 65.29 169.602 66.13C168.902 66.95 167.922 67.51 166.662 67.81V67.99C168.382 68.21 169.722 68.81 170.682 69.79C171.662 70.75 172.152 71.97 172.152 73.45C172.152 75.19 171.482 76.55 170.142 77.53C168.802 78.51 166.922 79 164.502 79H159.642ZM163.842 58.72H161.682V67.72H163.812C166.972 67.72 168.552 66.22 168.552 63.22C168.552 60.22 166.982 58.72 163.842 58.72ZM164.502 68.44H161.682V78.28H164.502C168.162 78.28 169.992 76.64 169.992 73.36C169.992 70.08 168.162 68.44 164.502 68.44ZM178.158 79V58H180.198V79H178.158ZM187.552 79L188.302 57.58H188.662L203.752 75.82H203.932L203.272 58H205.312L204.562 79.42H204.202L189.112 61.18H188.932L189.592 79H187.552ZM209.55 79L217.62 58H219.48L227.55 79H225.36L221.64 69.16H214.83L211.74 79H209.55ZM217.83 59.56L215.04 68.44H221.37L218.01 59.56H217.83ZM104.663 117L103.667 115.506C103.257 116.043 102.744 116.478 102.129 116.81C101.514 117.132 100.84 117.293 100.107 117.293H99.6533C99.0479 117.293 98.4766 117.181 97.9395 116.956C97.4023 116.722 96.9336 116.404 96.5332 116.004C96.1328 115.604 95.8154 115.135 95.5811 114.598C95.3564 114.061 95.2441 113.489 95.2441 112.884V112.737C95.2441 112.132 95.3564 111.561 95.5811 111.023C95.8154 110.486 96.1328 110.018 96.5332 109.617C96.9336 109.217 97.4023 108.904 97.9395 108.68C98.4766 108.445 99.0479 108.328 99.6533 108.328H103.462V106.014C103.462 105.652 103.394 105.315 103.257 105.003C103.12 104.681 102.935 104.402 102.7 104.168C102.466 103.934 102.188 103.748 101.865 103.611C101.553 103.475 101.216 103.406 100.854 103.406H99.7998C99.4385 103.406 99.0967 103.475 98.7744 103.611C98.4619 103.748 98.1885 103.934 97.9541 104.168C97.7197 104.402 97.5342 104.681 97.3975 105.003C97.2607 105.315 97.1924 105.652 97.1924 106.014V106.556L95.3906 106.263V106.116C95.3906 105.511 95.5029 104.939 95.7275 104.402C95.9619 103.865 96.2793 103.396 96.6797 102.996C97.0801 102.596 97.5488 102.283 98.0859 102.059C98.623 101.824 99.1943 101.707 99.7998 101.707H100.854C101.46 101.707 102.031 101.824 102.568 102.059C103.105 102.283 103.574 102.596 103.975 102.996C104.375 103.396 104.688 103.865 104.912 104.402C105.146 104.939 105.264 105.511 105.264 106.116V117H104.663ZM103.462 109.734H99.6533C99.292 109.734 98.9502 109.803 98.6279 109.939C98.3154 110.076 98.042 110.267 97.8076 110.511C97.5732 110.745 97.3877 111.023 97.251 111.346C97.1143 111.658 97.0459 111.995 97.0459 112.356V112.986C97.0459 113.348 97.1143 113.689 97.251 114.012C97.3877 114.324 97.5732 114.598 97.8076 114.832C98.042 115.066 98.3154 115.252 98.6279 115.389C98.9502 115.525 99.292 115.594 99.6533 115.594H100.854C101.216 115.594 101.553 115.525 101.865 115.389C102.188 115.252 102.466 115.066 102.7 114.832C102.935 114.598 103.12 114.324 103.257 114.012C103.394 113.689 103.462 113.348 103.462 112.986V109.734ZM109.321 98.3965V95.9941H111.416V98.3965H109.321ZM109.468 117V102H111.27V117H109.468ZM119.897 103.714C119.536 103.714 119.194 103.782 118.872 103.919C118.56 104.056 118.286 104.241 118.052 104.476C117.817 104.71 117.632 104.988 117.495 105.311C117.358 105.623 117.29 105.96 117.29 106.321V117H115.488V102H116.089L117.07 103.523C117.48 102.967 117.993 102.527 118.608 102.205C119.233 101.873 119.912 101.707 120.645 101.707H121.699V103.714H119.897ZM124.702 117V95.9941H126.504V117H124.702ZM131.177 98.3965V95.9941H133.271V98.3965H131.177ZM131.323 117V102H133.125V117H131.323ZM145.562 117V106.014C145.562 105.652 145.493 105.315 145.356 105.003C145.22 104.681 145.034 104.402 144.8 104.168C144.565 103.934 144.287 103.748 143.965 103.611C143.652 103.475 143.315 103.406 142.954 103.406H141.753C141.392 103.406 141.05 103.475 140.728 103.611C140.415 103.748 140.142 103.934 139.907 104.168C139.673 104.402 139.487 104.681 139.351 105.003C139.214 105.315 139.146 105.652 139.146 106.014V117H137.344V102H137.944L138.926 103.523C139.336 102.967 139.849 102.527 140.464 102.205C141.089 101.873 141.768 101.707 142.5 101.707H142.954C143.56 101.707 144.131 101.824 144.668 102.059C145.205 102.283 145.674 102.596 146.074 102.996C146.475 103.396 146.787 103.865 147.012 104.402C147.246 104.939 147.363 105.511 147.363 106.116V117H145.562ZM160.986 112.884C160.986 113.489 160.869 114.061 160.635 114.598C160.41 115.135 160.098 115.604 159.697 116.004C159.297 116.404 158.828 116.722 158.291 116.956C157.754 117.181 157.183 117.293 156.577 117.293H155.376C154.771 117.293 154.199 117.181 153.662 116.956C153.125 116.722 152.656 116.404 152.256 116.004C151.855 115.604 151.538 115.135 151.304 114.598C151.079 114.061 150.967 113.489 150.967 112.884V106.116C150.967 105.511 151.079 104.939 151.304 104.402C151.538 103.865 151.855 103.396 152.256 102.996C152.656 102.596 153.125 102.283 153.662 102.059C154.199 101.824 154.771 101.707 155.376 101.707H156.577C157.183 101.707 157.754 101.824 158.291 102.059C158.828 102.283 159.297 102.596 159.697 102.996C160.098 103.396 160.41 103.865 160.635 104.402C160.869 104.939 160.986 105.511 160.986 106.116V109.646H152.769V112.986C152.769 113.348 152.837 113.689 152.974 114.012C153.11 114.324 153.296 114.598 153.53 114.832C153.765 115.066 154.038 115.252 154.351 115.389C154.673 115.525 155.015 115.594 155.376 115.594H156.577C156.938 115.594 157.275 115.525 157.588 115.389C157.91 115.252 158.188 115.066 158.423 114.832C158.657 114.598 158.843 114.324 158.979 114.012C159.116 113.689 159.185 113.348 159.185 112.986V111.99L160.986 112.283V112.884ZM159.185 106.014C159.185 105.652 159.116 105.315 158.979 105.003C158.843 104.681 158.657 104.402 158.423 104.168C158.188 103.934 157.91 103.748 157.588 103.611C157.275 103.475 156.938 103.406 156.577 103.406H155.376C155.015 103.406 154.673 103.475 154.351 103.611C154.038 103.748 153.765 103.934 153.53 104.168C153.296 104.402 153.11 104.681 152.974 105.003C152.837 105.315 152.769 105.652 152.769 106.014V108.24H159.185V106.014ZM174.902 113.191C174.902 113.797 174.78 114.354 174.536 114.861C174.292 115.359 173.96 115.789 173.54 116.15C173.12 116.512 172.632 116.795 172.075 117C171.528 117.195 170.952 117.293 170.347 117.293H169.146C168.54 117.293 167.959 117.181 167.402 116.956C166.855 116.722 166.372 116.404 165.952 116.004C165.542 115.604 165.21 115.135 164.956 114.598C164.712 114.061 164.59 113.489 164.59 112.884V112.283L166.392 111.99V112.986C166.392 113.348 166.465 113.689 166.611 114.012C166.768 114.324 166.973 114.598 167.227 114.832C167.48 115.066 167.773 115.252 168.105 115.389C168.438 115.525 168.784 115.594 169.146 115.594H170.347C170.708 115.594 171.055 115.54 171.387 115.433C171.719 115.325 172.012 115.174 172.266 114.979C172.529 114.773 172.734 114.529 172.881 114.246C173.037 113.963 173.115 113.641 173.115 113.279C173.115 112.742 172.998 112.303 172.764 111.961C172.529 111.619 172.217 111.336 171.826 111.111C171.445 110.877 171.006 110.687 170.508 110.54C170.02 110.384 169.517 110.232 168.999 110.086C168.481 109.93 167.974 109.754 167.476 109.559C166.987 109.363 166.548 109.109 166.157 108.797C165.776 108.475 165.469 108.074 165.234 107.596C165 107.117 164.883 106.521 164.883 105.809C164.883 105.203 165 104.651 165.234 104.153C165.469 103.646 165.786 103.211 166.187 102.85C166.587 102.488 167.051 102.21 167.578 102.015C168.115 101.81 168.687 101.707 169.292 101.707H170.347C170.952 101.707 171.523 101.824 172.061 102.059C172.598 102.283 173.066 102.596 173.467 102.996C173.867 103.396 174.18 103.865 174.404 104.402C174.639 104.939 174.756 105.511 174.756 106.116V106.175L172.954 106.468V106.014C172.954 105.652 172.886 105.315 172.749 105.003C172.612 104.681 172.427 104.402 172.192 104.168C171.958 103.934 171.68 103.748 171.357 103.611C171.045 103.475 170.708 103.406 170.347 103.406H169.292C168.931 103.406 168.589 103.46 168.267 103.567C167.954 103.675 167.681 103.831 167.446 104.036C167.212 104.231 167.026 104.471 166.89 104.754C166.753 105.037 166.685 105.359 166.685 105.721C166.685 106.238 166.802 106.663 167.036 106.995C167.271 107.317 167.578 107.591 167.959 107.815C168.35 108.04 168.789 108.23 169.277 108.387C169.775 108.533 170.278 108.689 170.786 108.855C171.304 109.012 171.807 109.192 172.295 109.397C172.793 109.603 173.232 109.866 173.613 110.188C174.004 110.511 174.316 110.916 174.551 111.404C174.785 111.883 174.902 112.479 174.902 113.191Z" fill="#D9B770"/>
<path d="M40.4902 376.271H40.3379C40.0176 376.271 39.6914 376.445 39.3594 376.793C39.2188 376.941 39.0215 377.215 38.7676 377.613L36.8516 380.631V380.812H39.0781V381.24H36.8516V382.623C36.8516 383.111 36.9062 383.416 37.0156 383.537C37.1641 383.701 37.3984 383.783 37.7188 383.783H37.9766V384H34.6016V383.783H34.8828C35.2188 383.783 35.457 383.682 35.5977 383.479C35.6836 383.354 35.7266 383.068 35.7266 382.623V381.24H33.5V380.812H35.7266V380.742L33.5469 377.414C33.3086 377.051 33.1582 376.834 33.0957 376.764C32.9551 376.615 32.7402 376.471 32.4512 376.33C32.3691 376.291 32.2559 376.271 32.1113 376.271V376.055H35.5098V376.271H35.334C35.1465 376.271 34.9844 376.311 34.8477 376.389C34.6797 376.482 34.5957 376.615 34.5957 376.787C34.5957 376.928 34.7148 377.182 34.9531 377.549L36.6113 380.109L38.1699 377.66C38.4043 377.293 38.5215 377.02 38.5215 376.84C38.5215 376.609 38.4121 376.443 38.1934 376.342C38.0879 376.295 37.9297 376.271 37.7188 376.271V376.055H40.4902V376.271ZM49.6426 383.783V384H40.9414V383.783C41.2656 383.783 41.4824 383.725 41.5918 383.607C41.7012 383.486 41.7559 383.197 41.7559 382.74V379.893C41.7559 379.475 41.7344 379.229 41.6914 379.154C41.6484 379.076 41.582 379.008 41.4922 378.949C41.4023 378.887 41.2188 378.855 40.9414 378.855V378.633H43.5371V378.855C43.2754 378.855 43.0996 378.883 43.0098 378.938C42.9199 378.988 42.8496 379.053 42.7988 379.131C42.748 379.209 42.7227 379.463 42.7227 379.893V382.852C42.7227 383.223 42.7559 383.443 42.8223 383.514C42.8887 383.584 43.1113 383.619 43.4902 383.619H44.123C44.373 383.619 44.5371 383.605 44.6152 383.578C44.6934 383.547 44.7441 383.496 44.7676 383.426C44.7949 383.355 44.8086 383.125 44.8086 382.734V379.893C44.8086 379.479 44.7871 379.232 44.7441 379.154C44.7012 379.072 44.6328 379.002 44.5391 378.943C44.4492 378.885 44.2676 378.855 43.9941 378.855V378.633H46.4902V378.855C46.2793 378.859 46.123 378.895 46.0215 378.961C45.9199 379.027 45.8535 379.111 45.8223 379.213C45.791 379.314 45.7754 379.541 45.7754 379.893V382.922C45.7754 383.258 45.8086 383.459 45.875 383.525C45.9414 383.588 46.1465 383.619 46.4902 383.619H47.1934C47.5684 383.619 47.7734 383.58 47.8086 383.502C47.8438 383.42 47.8613 383.176 47.8613 382.77V379.893C47.8613 379.475 47.8398 379.229 47.7969 379.154C47.7539 379.076 47.6875 379.008 47.5977 378.949C47.5078 378.887 47.3242 378.855 47.0469 378.855V378.633H49.6426V378.855C49.377 378.855 49.1992 378.883 49.1094 378.938C49.0234 378.988 48.9551 379.053 48.9043 379.131C48.8535 379.209 48.8281 379.463 48.8281 379.893V382.424C48.8281 382.947 48.8418 383.271 48.8691 383.396C48.9004 383.521 48.9688 383.615 49.0742 383.678C49.1797 383.74 49.3691 383.775 49.6426 383.783ZM53.334 383.227C52.7832 383.652 52.4375 383.898 52.2969 383.965C52.0859 384.062 51.8613 384.111 51.623 384.111C51.252 384.111 50.9453 383.984 50.7031 383.73C50.4648 383.477 50.3457 383.143 50.3457 382.729C50.3457 382.467 50.4043 382.24 50.5215 382.049C50.6816 381.783 50.959 381.533 51.3535 381.299C51.752 381.064 52.4121 380.779 53.334 380.443V380.232C53.334 379.697 53.248 379.33 53.0762 379.131C52.9082 378.932 52.6621 378.832 52.3379 378.832C52.0918 378.832 51.8965 378.898 51.752 379.031C51.6035 379.164 51.5293 379.316 51.5293 379.488L51.541 379.828C51.541 380.008 51.4941 380.146 51.4004 380.244C51.3105 380.342 51.1914 380.391 51.043 380.391C50.8984 380.391 50.7793 380.34 50.6855 380.238C50.5957 380.137 50.5508 379.998 50.5508 379.822C50.5508 379.486 50.7227 379.178 51.0664 378.896C51.4102 378.615 51.8926 378.475 52.5137 378.475C52.9902 378.475 53.3809 378.555 53.6855 378.715C53.916 378.836 54.0859 379.025 54.1953 379.283C54.2656 379.451 54.3008 379.795 54.3008 380.314V382.137C54.3008 382.648 54.3105 382.963 54.3301 383.08C54.3496 383.193 54.3809 383.27 54.4238 383.309C54.4707 383.348 54.5234 383.367 54.582 383.367C54.6445 383.367 54.6992 383.354 54.7461 383.326C54.8281 383.275 54.9863 383.133 55.2207 382.898V383.227C54.7832 383.812 54.3652 384.105 53.9668 384.105C53.7754 384.105 53.623 384.039 53.5098 383.906C53.3965 383.773 53.3379 383.547 53.334 383.227ZM53.334 382.846V380.801C52.7441 381.035 52.3633 381.201 52.1914 381.299C51.8828 381.471 51.6621 381.65 51.5293 381.838C51.3965 382.025 51.3301 382.23 51.3301 382.453C51.3301 382.734 51.4141 382.969 51.582 383.156C51.75 383.34 51.9434 383.432 52.1621 383.432C52.459 383.432 52.8496 383.236 53.334 382.846ZM55.2266 378.633H59.8672L60.1016 380.086H59.8379C59.791 379.793 59.7129 379.566 59.6035 379.406C59.4941 379.246 59.3691 379.141 59.2285 379.09C59.0879 379.039 58.8477 379.014 58.5078 379.014H58.0391V382.74C58.0391 383.139 58.0625 383.393 58.1094 383.502C58.1602 383.607 58.2402 383.678 58.3496 383.713C58.459 383.748 58.709 383.771 59.0996 383.783V384H56.1816V383.783C56.5566 383.775 56.7969 383.715 56.9023 383.602C57.0117 383.488 57.0664 383.201 57.0664 382.74V379.014H56.5859C56.25 379.014 56.0215 379.035 55.9004 379.078C55.7793 379.117 55.6621 379.215 55.5488 379.371C55.4395 379.523 55.3457 379.762 55.2676 380.086H55.0039L55.2266 378.633ZM65.2754 378.855V378.633H67.9766V378.855C67.7383 378.855 67.5645 378.881 67.4551 378.932C67.3457 378.982 67.2695 379.061 67.2266 379.166C67.1875 379.271 67.168 379.514 67.168 379.893V382.74C67.168 383.107 67.1855 383.346 67.2207 383.455C67.2559 383.561 67.3301 383.643 67.4434 383.701C67.5605 383.756 67.7383 383.783 67.9766 383.783V384H65.2754V383.783C65.5801 383.771 65.7773 383.752 65.8672 383.725C65.9609 383.693 66.0391 383.617 66.1016 383.496C66.1641 383.375 66.1953 383.123 66.1953 382.74V379.893C66.1953 379.514 66.1738 379.27 66.1309 379.16C66.0879 379.051 66.0117 378.975 65.9023 378.932C65.7969 378.885 65.5879 378.859 65.2754 378.855ZM62.2285 381.023L62.8965 381.012C64.4902 381.012 65.2871 381.504 65.2871 382.488C65.2871 382.945 65.0918 383.312 64.7012 383.59C64.3145 383.863 63.7559 384 63.0254 384H60.4473V383.783C60.7949 383.783 61.0176 383.721 61.1152 383.596C61.2129 383.467 61.2617 383.182 61.2617 382.74V379.893C61.2617 379.475 61.2402 379.229 61.1973 379.154C61.1543 379.076 61.0879 379.008 60.998 378.949C60.9082 378.887 60.7246 378.855 60.4473 378.855V378.633H63.2539V378.855C62.8672 378.855 62.6289 378.879 62.5391 378.926C62.4492 378.969 62.375 379.027 62.3164 379.102C62.2578 379.172 62.2285 379.436 62.2285 379.893V381.023ZM62.2285 383.537C62.4355 383.592 62.6426 383.619 62.8496 383.619C63.2402 383.619 63.5566 383.516 63.7988 383.309C64.0449 383.102 64.168 382.84 64.168 382.523C64.168 381.773 63.6465 381.398 62.6035 381.398C62.5137 381.398 62.3887 381.4 62.2285 381.404V383.537ZM70.2969 381.029H72.6172V379.893C72.6172 379.553 72.6035 379.332 72.5762 379.23C72.5488 379.125 72.4805 379.037 72.3711 378.967C72.2656 378.893 72.0762 378.855 71.8027 378.855V378.633H74.3984V378.855C74.1562 378.855 73.9785 378.883 73.8652 378.938C73.7559 378.992 73.6816 379.072 73.6426 379.178C73.6035 379.279 73.584 379.518 73.584 379.893V382.74C73.584 383.08 73.5977 383.305 73.625 383.414C73.6562 383.523 73.7285 383.613 73.8418 383.684C73.9551 383.75 74.1406 383.783 74.3984 383.783V384H71.8027V383.783C72.127 383.783 72.3438 383.725 72.4531 383.607C72.5625 383.486 72.6172 383.197 72.6172 382.74V381.41H70.2969V382.74C70.2969 383.08 70.3105 383.305 70.3379 383.414C70.3691 383.523 70.4414 383.613 70.5547 383.684C70.668 383.75 70.8535 383.783 71.1113 383.783V384H68.5156V383.783C68.8633 383.783 69.0859 383.721 69.1836 383.596C69.2812 383.467 69.3301 383.182 69.3301 382.74V379.893C69.3301 379.553 69.3145 379.328 69.2832 379.219C69.2559 379.109 69.1855 379.021 69.0723 378.955C68.959 378.889 68.7734 378.855 68.5156 378.855V378.633H71.1113V378.855C70.8691 378.855 70.6914 378.883 70.5781 378.938C70.4688 378.992 70.3945 379.072 70.3555 379.178C70.3164 379.279 70.2969 379.518 70.2969 379.893V381.029ZM83.4277 384H81.8457C81.3535 383.285 80.9082 382.553 80.5098 381.803C80.416 381.631 80.3301 381.504 80.252 381.422C80.1777 381.336 80.0742 381.293 79.9414 381.293C79.8945 381.293 79.8203 381.297 79.7188 381.305V382.74C79.7188 383.127 79.7402 383.375 79.7832 383.484C79.8301 383.59 79.9121 383.666 80.0293 383.713C80.1465 383.76 80.3438 383.783 80.6211 383.783V384H77.9375V383.783C78.2852 383.783 78.5078 383.721 78.6055 383.596C78.7031 383.467 78.752 383.182 78.752 382.74V379.893C78.752 379.475 78.7305 379.229 78.6875 379.154C78.6445 379.076 78.5781 379.008 78.4883 378.949C78.3984 378.887 78.2148 378.855 77.9375 378.855V378.633H80.6211V378.855C80.2969 378.855 80.0957 378.879 80.0176 378.926C79.9434 378.973 79.875 379.031 79.8125 379.102C79.75 379.168 79.7188 379.432 79.7188 379.893V380.947C79.8086 380.955 79.8691 380.959 79.9004 380.959C80.1387 380.959 80.3613 380.893 80.5684 380.76C80.7793 380.623 80.9668 380.336 81.1309 379.898C81.2832 379.484 81.4082 379.205 81.5059 379.061C81.6074 378.916 81.7461 378.799 81.9219 378.709C82.1016 378.615 82.2891 378.568 82.4844 378.568C82.6953 378.568 82.8633 378.619 82.9883 378.721C83.1133 378.822 83.1758 378.955 83.1758 379.119C83.1758 379.256 83.1309 379.373 83.041 379.471C82.9512 379.564 82.8262 379.611 82.666 379.611C82.5801 379.611 82.4727 379.588 82.3438 379.541C82.1797 379.482 82.0547 379.453 81.9688 379.453C81.7891 379.453 81.6406 379.607 81.5234 379.916C81.3906 380.271 81.293 380.502 81.2305 380.607C81.168 380.709 81.0488 380.846 80.873 381.018C80.9941 381.053 81.125 381.143 81.2656 381.287C81.4102 381.432 81.6758 381.844 82.0625 382.523C82.3711 383.066 82.6016 383.41 82.7539 383.555C82.9102 383.699 83.1348 383.775 83.4277 383.783V384ZM89.498 378.855C89.2676 378.855 89.0977 378.9 88.9883 378.99C88.8164 379.131 88.6543 379.389 88.502 379.764L87.002 383.367V385.137C87.002 385.582 87.0234 385.861 87.0664 385.975C87.0977 386.061 87.1641 386.135 87.2656 386.197C87.4062 386.283 87.5723 386.326 87.7637 386.326H88.0039V386.566H84.9863V386.326H85.1738C85.6348 386.326 85.9023 386.164 85.9766 385.84C85.9922 385.77 86 385.535 86 385.137V383.479L84.459 379.699C84.3457 379.41 84.2363 379.211 84.1309 379.102C83.9785 378.941 83.7734 378.859 83.5156 378.855V378.633H86.1055V378.855C85.6328 378.887 85.3965 379.008 85.3965 379.219C85.3965 379.277 85.4258 379.393 85.4844 379.564L86.7559 382.846L88.0215 379.652C88.0918 379.457 88.127 379.311 88.127 379.213C88.127 379.131 88.0859 379.051 88.0039 378.973C87.9492 378.918 87.8242 378.885 87.6289 378.873C87.6016 378.869 87.5488 378.863 87.4707 378.855V378.633H89.498V378.855ZM91.5547 381.029H93.875V379.893C93.875 379.553 93.8613 379.332 93.834 379.23C93.8066 379.125 93.7383 379.037 93.6289 378.967C93.5234 378.893 93.334 378.855 93.0605 378.855V378.633H95.6562V378.855C95.4141 378.855 95.2363 378.883 95.123 378.938C95.0137 378.992 94.9395 379.072 94.9004 379.178C94.8613 379.279 94.8418 379.518 94.8418 379.893V382.74C94.8418 383.08 94.8555 383.305 94.8828 383.414C94.9141 383.523 94.9863 383.613 95.0996 383.684C95.2129 383.75 95.3984 383.783 95.6562 383.783V384H93.0605V383.783C93.3848 383.783 93.6016 383.725 93.7109 383.607C93.8203 383.486 93.875 383.197 93.875 382.74V381.41H91.5547V382.74C91.5547 383.08 91.5684 383.305 91.5957 383.414C91.627 383.523 91.6992 383.613 91.8125 383.684C91.9258 383.75 92.1113 383.783 92.3691 383.783V384H89.7734V383.783C90.1211 383.783 90.3438 383.721 90.4414 383.596C90.5391 383.467 90.5879 383.182 90.5879 382.74V379.893C90.5879 379.553 90.5723 379.328 90.541 379.219C90.5137 379.109 90.4434 379.021 90.3301 378.955C90.2168 378.889 90.0312 378.855 89.7734 378.855V378.633H92.3691V378.855C92.127 378.855 91.9492 378.883 91.8359 378.938C91.7266 378.992 91.6523 379.072 91.6133 379.178C91.5742 379.279 91.5547 379.518 91.5547 379.893V381.029ZM97.666 375.668C97.8301 375.668 97.9688 375.727 98.082 375.844C98.1992 375.957 98.2578 376.096 98.2578 376.26C98.2578 376.424 98.1992 376.564 98.082 376.682C97.9688 376.799 97.8301 376.857 97.666 376.857C97.502 376.857 97.3613 376.799 97.2441 376.682C97.127 376.564 97.0684 376.424 97.0684 376.26C97.0684 376.096 97.125 375.957 97.2383 375.844C97.3555 375.727 97.498 375.668 97.666 375.668ZM98.1523 378.475V382.787C98.1523 383.123 98.1758 383.348 98.2227 383.461C98.2734 383.57 98.3457 383.652 98.4395 383.707C98.5371 383.762 98.7129 383.789 98.9668 383.789V384H96.3594V383.789C96.6211 383.789 96.7969 383.764 96.8867 383.713C96.9766 383.662 97.0469 383.578 97.0977 383.461C97.1523 383.344 97.1797 383.119 97.1797 382.787V380.719C97.1797 380.137 97.1621 379.76 97.127 379.588C97.0996 379.463 97.0566 379.377 96.998 379.33C96.9395 379.279 96.8594 379.254 96.7578 379.254C96.6484 379.254 96.5156 379.283 96.3594 379.342L96.2773 379.131L97.8945 378.475H98.1523Z" fill="#D9B770" fill-opacity="0.8"/>
<path d="M37.2109 399.188V407.852C37.2109 408.503 37.2396 408.919 37.2969 409.102C37.3542 409.279 37.474 409.424 37.6562 409.539C37.8385 409.654 38.1302 409.711 38.5312 409.711H38.7734V410H33.1953V409.711H33.4766C33.9297 409.711 34.2526 409.659 34.4453 409.555C34.638 409.451 34.7682 409.307 34.8359 409.125C34.9036 408.943 34.9375 408.518 34.9375 407.852V402.359C34.9375 401.87 34.9141 401.565 34.8672 401.445C34.8203 401.32 34.7318 401.216 34.6016 401.133C34.4766 401.044 34.3307 401 34.1641 401C33.8984 401 33.5755 401.083 33.1953 401.25L33.0547 400.969L36.9531 399.188H37.2109ZM47.0941 404.703C47.0941 405.76 46.9456 406.747 46.6487 407.664C46.4717 408.227 46.2321 408.688 45.93 409.047C45.6331 409.406 45.2946 409.693 44.9144 409.906C44.5342 410.115 44.1201 410.219 43.6722 410.219C43.1618 410.219 42.7008 410.089 42.2894 409.828C41.8779 409.568 41.5133 409.195 41.1956 408.711C40.9665 408.357 40.7659 407.885 40.5941 407.297C40.3701 406.5 40.2581 405.677 40.2581 404.828C40.2581 403.677 40.4196 402.62 40.7425 401.656C41.0081 400.859 41.4118 400.25 41.9534 399.828C42.4951 399.401 43.068 399.188 43.6722 399.188C44.2868 399.188 44.8597 399.398 45.3909 399.82C45.9274 400.237 46.3206 400.799 46.5706 401.508C46.9196 402.482 47.0941 403.547 47.0941 404.703ZM44.6878 404.688C44.6878 402.833 44.6774 401.753 44.6566 401.445C44.6045 400.721 44.4795 400.232 44.2816 399.977C44.1514 399.81 43.9404 399.727 43.6487 399.727C43.4248 399.727 43.2477 399.789 43.1175 399.914C42.9248 400.096 42.7946 400.419 42.7269 400.883C42.6592 401.341 42.6253 402.948 42.6253 405.703C42.6253 407.203 42.6774 408.208 42.7816 408.719C42.8597 409.089 42.9717 409.336 43.1175 409.461C43.2633 409.586 43.456 409.648 43.6956 409.648C43.956 409.648 44.1514 409.565 44.2816 409.398C44.5003 409.107 44.6253 408.656 44.6566 408.047L44.6878 404.688ZM51.8522 399.164L48.3756 410.242H47.3756L50.8678 399.164H51.8522ZM56.7041 399.188V407.852C56.7041 408.503 56.7327 408.919 56.79 409.102C56.8473 409.279 56.9671 409.424 57.1494 409.539C57.3317 409.654 57.6233 409.711 58.0244 409.711H58.2666V410H52.6884V409.711H52.9697C53.4228 409.711 53.7457 409.659 53.9384 409.555C54.1311 409.451 54.2614 409.307 54.3291 409.125C54.3968 408.943 54.4306 408.518 54.4306 407.852V402.359C54.4306 401.87 54.4072 401.565 54.3603 401.445C54.3134 401.32 54.2249 401.216 54.0947 401.133C53.9697 401.044 53.8239 401 53.6572 401C53.3916 401 53.0686 401.083 52.6884 401.25L52.5478 400.969L56.4463 399.188H56.7041ZM66.5872 404.703C66.5872 405.76 66.4387 406.747 66.1419 407.664C65.9648 408.227 65.7252 408.688 65.4231 409.047C65.1262 409.406 64.7877 409.693 64.4075 409.906C64.0273 410.115 63.6132 410.219 63.1653 410.219C62.6549 410.219 62.194 410.089 61.7825 409.828C61.371 409.568 61.0065 409.195 60.6887 408.711C60.4596 408.357 60.2591 407.885 60.0872 407.297C59.8632 406.5 59.7512 405.677 59.7512 404.828C59.7512 403.677 59.9127 402.62 60.2356 401.656C60.5012 400.859 60.9049 400.25 61.4466 399.828C61.9882 399.401 62.5611 399.188 63.1653 399.188C63.7799 399.188 64.3528 399.398 64.8841 399.82C65.4205 400.237 65.8137 400.799 66.0637 401.508C66.4127 402.482 66.5872 403.547 66.5872 404.703ZM64.1809 404.688C64.1809 402.833 64.1705 401.753 64.1497 401.445C64.0976 400.721 63.9726 400.232 63.7747 399.977C63.6445 399.81 63.4335 399.727 63.1419 399.727C62.9179 399.727 62.7408 399.789 62.6106 399.914C62.4179 400.096 62.2877 400.419 62.22 400.883C62.1523 401.341 62.1184 402.948 62.1184 405.703C62.1184 407.203 62.1705 408.208 62.2747 408.719C62.3528 409.089 62.4648 409.336 62.6106 409.461C62.7565 409.586 62.9492 409.648 63.1887 409.648C63.4492 409.648 63.6445 409.565 63.7747 409.398C63.9934 409.107 64.1184 408.656 64.1497 408.047L64.1809 404.688ZM71.3453 399.164L67.8688 410.242H66.8688L70.3609 399.164H71.3453ZM77.6113 410H71.3769V409.828C73.2883 407.552 74.4472 406.021 74.8534 405.234C75.2649 404.448 75.4706 403.68 75.4706 402.93C75.4706 402.383 75.3014 401.93 74.9628 401.57C74.6243 401.206 74.2102 401.023 73.7206 401.023C72.9185 401.023 72.2961 401.424 71.8534 402.227L71.5644 402.125C71.8456 401.125 72.2727 400.385 72.8456 399.906C73.4185 399.427 74.08 399.188 74.83 399.188C75.3665 399.188 75.856 399.312 76.2988 399.562C76.7415 399.812 77.0878 400.156 77.3378 400.594C77.5878 401.026 77.7128 401.432 77.7128 401.812C77.7128 402.505 77.5201 403.208 77.1347 403.922C76.6086 404.885 75.4602 406.229 73.6894 407.953H75.9784C76.5409 407.953 76.9055 407.93 77.0722 407.883C77.2441 407.836 77.3847 407.758 77.4941 407.648C77.6034 407.534 77.7467 407.297 77.9238 406.938H78.205L77.6113 410ZM81.1037 399.406H86.0647L85.2756 401.422H81.1037L80.7053 402.477C82.5022 402.544 83.885 402.992 84.8537 403.82C85.6506 404.503 86.0491 405.352 86.0491 406.367C86.0491 407.018 85.8642 407.656 85.4944 408.281C85.1246 408.901 84.6037 409.38 83.9319 409.719C83.26 410.052 82.523 410.219 81.7209 410.219C80.8564 410.219 80.1923 410.057 79.7287 409.734C79.4058 409.505 79.2444 409.245 79.2444 408.953C79.2444 408.729 79.3277 408.531 79.4944 408.359C79.6662 408.188 79.8642 408.102 80.0881 408.102C80.2912 408.102 80.497 408.143 80.7053 408.227C80.9136 408.31 81.2704 408.529 81.7756 408.883C82.0933 409.102 82.3668 409.253 82.5959 409.336C82.7574 409.398 82.9397 409.43 83.1428 409.43C83.5699 409.43 83.9319 409.273 84.2287 408.961C84.5308 408.648 84.6819 408.273 84.6819 407.836C84.6819 406.919 84.2235 406.174 83.3069 405.602C82.3902 405.029 81.234 404.742 79.8381 404.742C79.6975 404.742 79.4866 404.745 79.2053 404.75L81.1037 399.406Z" fill="#D9B770"/>
<path d="M39.4902 452.271H39.3379C39.0176 452.271 38.6914 452.445 38.3594 452.793C38.2188 452.941 38.0215 453.215 37.7676 453.613L35.8516 456.631V456.812H38.0781V457.24H35.8516V458.623C35.8516 459.111 35.9062 459.416 36.0156 459.537C36.1641 459.701 36.3984 459.783 36.7188 459.783H36.9766V460H33.6016V459.783H33.8828C34.2188 459.783 34.457 459.682 34.5977 459.479C34.6836 459.354 34.7266 459.068 34.7266 458.623V457.24H32.5V456.812H34.7266V456.742L32.5469 453.414C32.3086 453.051 32.1582 452.834 32.0957 452.764C31.9551 452.615 31.7402 452.471 31.4512 452.33C31.3691 452.291 31.2559 452.271 31.1113 452.271V452.055H34.5098V452.271H34.334C34.1465 452.271 33.9844 452.311 33.8477 452.389C33.6797 452.482 33.5957 452.615 33.5957 452.787C33.5957 452.928 33.7148 453.182 33.9531 453.549L35.6113 456.109L37.1699 453.66C37.4043 453.293 37.5215 453.02 37.5215 452.84C37.5215 452.609 37.4121 452.443 37.1934 452.342C37.0879 452.295 36.9297 452.271 36.7188 452.271V452.055H39.4902V452.271ZM48.6426 459.783V460H39.9414V459.783C40.2656 459.783 40.4824 459.725 40.5918 459.607C40.7012 459.486 40.7559 459.197 40.7559 458.74V455.893C40.7559 455.475 40.7344 455.229 40.6914 455.154C40.6484 455.076 40.582 455.008 40.4922 454.949C40.4023 454.887 40.2188 454.855 39.9414 454.855V454.633H42.5371V454.855C42.2754 454.855 42.0996 454.883 42.0098 454.938C41.9199 454.988 41.8496 455.053 41.7988 455.131C41.748 455.209 41.7227 455.463 41.7227 455.893V458.852C41.7227 459.223 41.7559 459.443 41.8223 459.514C41.8887 459.584 42.1113 459.619 42.4902 459.619H43.123C43.373 459.619 43.5371 459.605 43.6152 459.578C43.6934 459.547 43.7441 459.496 43.7676 459.426C43.7949 459.355 43.8086 459.125 43.8086 458.734V455.893C43.8086 455.479 43.7871 455.232 43.7441 455.154C43.7012 455.072 43.6328 455.002 43.5391 454.943C43.4492 454.885 43.2676 454.855 42.9941 454.855V454.633H45.4902V454.855C45.2793 454.859 45.123 454.895 45.0215 454.961C44.9199 455.027 44.8535 455.111 44.8223 455.213C44.791 455.314 44.7754 455.541 44.7754 455.893V458.922C44.7754 459.258 44.8086 459.459 44.875 459.525C44.9414 459.588 45.1465 459.619 45.4902 459.619H46.1934C46.5684 459.619 46.7734 459.58 46.8086 459.502C46.8438 459.42 46.8613 459.176 46.8613 458.77V455.893C46.8613 455.475 46.8398 455.229 46.7969 455.154C46.7539 455.076 46.6875 455.008 46.5977 454.949C46.5078 454.887 46.3242 454.855 46.0469 454.855V454.633H48.6426V454.855C48.377 454.855 48.1992 454.883 48.1094 454.938C48.0234 454.988 47.9551 455.053 47.9043 455.131C47.8535 455.209 47.8281 455.463 47.8281 455.893V458.424C47.8281 458.947 47.8418 459.271 47.8691 459.396C47.9004 459.521 47.9688 459.615 48.0742 459.678C48.1797 459.74 48.3691 459.775 48.6426 459.783ZM52.334 459.227C51.7832 459.652 51.4375 459.898 51.2969 459.965C51.0859 460.062 50.8613 460.111 50.623 460.111C50.252 460.111 49.9453 459.984 49.7031 459.73C49.4648 459.477 49.3457 459.143 49.3457 458.729C49.3457 458.467 49.4043 458.24 49.5215 458.049C49.6816 457.783 49.959 457.533 50.3535 457.299C50.752 457.064 51.4121 456.779 52.334 456.443V456.232C52.334 455.697 52.248 455.33 52.0762 455.131C51.9082 454.932 51.6621 454.832 51.3379 454.832C51.0918 454.832 50.8965 454.898 50.752 455.031C50.6035 455.164 50.5293 455.316 50.5293 455.488L50.541 455.828C50.541 456.008 50.4941 456.146 50.4004 456.244C50.3105 456.342 50.1914 456.391 50.043 456.391C49.8984 456.391 49.7793 456.34 49.6855 456.238C49.5957 456.137 49.5508 455.998 49.5508 455.822C49.5508 455.486 49.7227 455.178 50.0664 454.896C50.4102 454.615 50.8926 454.475 51.5137 454.475C51.9902 454.475 52.3809 454.555 52.6855 454.715C52.916 454.836 53.0859 455.025 53.1953 455.283C53.2656 455.451 53.3008 455.795 53.3008 456.314V458.137C53.3008 458.648 53.3105 458.963 53.3301 459.08C53.3496 459.193 53.3809 459.27 53.4238 459.309C53.4707 459.348 53.5234 459.367 53.582 459.367C53.6445 459.367 53.6992 459.354 53.7461 459.326C53.8281 459.275 53.9863 459.133 54.2207 458.898V459.227C53.7832 459.812 53.3652 460.105 52.9668 460.105C52.7754 460.105 52.623 460.039 52.5098 459.906C52.3965 459.773 52.3379 459.547 52.334 459.227ZM52.334 458.846V456.801C51.7441 457.035 51.3633 457.201 51.1914 457.299C50.8828 457.471 50.6621 457.65 50.5293 457.838C50.3965 458.025 50.3301 458.23 50.3301 458.453C50.3301 458.734 50.4141 458.969 50.582 459.156C50.75 459.34 50.9434 459.432 51.1621 459.432C51.459 459.432 51.8496 459.236 52.334 458.846ZM54.2266 454.633H58.8672L59.1016 456.086H58.8379C58.791 455.793 58.7129 455.566 58.6035 455.406C58.4941 455.246 58.3691 455.141 58.2285 455.09C58.0879 455.039 57.8477 455.014 57.5078 455.014H57.0391V458.74C57.0391 459.139 57.0625 459.393 57.1094 459.502C57.1602 459.607 57.2402 459.678 57.3496 459.713C57.459 459.748 57.709 459.771 58.0996 459.783V460H55.1816V459.783C55.5566 459.775 55.7969 459.715 55.9023 459.602C56.0117 459.488 56.0664 459.201 56.0664 458.74V455.014H55.5859C55.25 455.014 55.0215 455.035 54.9004 455.078C54.7793 455.117 54.6621 455.215 54.5488 455.371C54.4395 455.523 54.3457 455.762 54.2676 456.086H54.0039L54.2266 454.633ZM64.2754 454.855V454.633H66.9766V454.855C66.7383 454.855 66.5645 454.881 66.4551 454.932C66.3457 454.982 66.2695 455.061 66.2266 455.166C66.1875 455.271 66.168 455.514 66.168 455.893V458.74C66.168 459.107 66.1855 459.346 66.2207 459.455C66.2559 459.561 66.3301 459.643 66.4434 459.701C66.5605 459.756 66.7383 459.783 66.9766 459.783V460H64.2754V459.783C64.5801 459.771 64.7773 459.752 64.8672 459.725C64.9609 459.693 65.0391 459.617 65.1016 459.496C65.1641 459.375 65.1953 459.123 65.1953 458.74V455.893C65.1953 455.514 65.1738 455.27 65.1309 455.16C65.0879 455.051 65.0117 454.975 64.9023 454.932C64.7969 454.885 64.5879 454.859 64.2754 454.855ZM61.2285 457.023L61.8965 457.012C63.4902 457.012 64.2871 457.504 64.2871 458.488C64.2871 458.945 64.0918 459.312 63.7012 459.59C63.3145 459.863 62.7559 460 62.0254 460H59.4473V459.783C59.7949 459.783 60.0176 459.721 60.1152 459.596C60.2129 459.467 60.2617 459.182 60.2617 458.74V455.893C60.2617 455.475 60.2402 455.229 60.1973 455.154C60.1543 455.076 60.0879 455.008 59.998 454.949C59.9082 454.887 59.7246 454.855 59.4473 454.855V454.633H62.2539V454.855C61.8672 454.855 61.6289 454.879 61.5391 454.926C61.4492 454.969 61.375 455.027 61.3164 455.102C61.2578 455.172 61.2285 455.436 61.2285 455.893V457.023ZM61.2285 459.537C61.4355 459.592 61.6426 459.619 61.8496 459.619C62.2402 459.619 62.5566 459.516 62.7988 459.309C63.0449 459.102 63.168 458.84 63.168 458.523C63.168 457.773 62.6465 457.398 61.6035 457.398C61.5137 457.398 61.3887 457.4 61.2285 457.404V459.537ZM69.2969 457.029H71.6172V455.893C71.6172 455.553 71.6035 455.332 71.5762 455.23C71.5488 455.125 71.4805 455.037 71.3711 454.967C71.2656 454.893 71.0762 454.855 70.8027 454.855V454.633H73.3984V454.855C73.1562 454.855 72.9785 454.883 72.8652 454.938C72.7559 454.992 72.6816 455.072 72.6426 455.178C72.6035 455.279 72.584 455.518 72.584 455.893V458.74C72.584 459.08 72.5977 459.305 72.625 459.414C72.6562 459.523 72.7285 459.613 72.8418 459.684C72.9551 459.75 73.1406 459.783 73.3984 459.783V460H70.8027V459.783C71.127 459.783 71.3438 459.725 71.4531 459.607C71.5625 459.486 71.6172 459.197 71.6172 458.74V457.41H69.2969V458.74C69.2969 459.08 69.3105 459.305 69.3379 459.414C69.3691 459.523 69.4414 459.613 69.5547 459.684C69.668 459.75 69.8535 459.783 70.1113 459.783V460H67.5156V459.783C67.8633 459.783 68.0859 459.721 68.1836 459.596C68.2812 459.467 68.3301 459.182 68.3301 458.74V455.893C68.3301 455.553 68.3145 455.328 68.2832 455.219C68.2559 455.109 68.1855 455.021 68.0723 454.955C67.959 454.889 67.7734 454.855 67.5156 454.855V454.633H70.1113V454.855C69.8691 454.855 69.6914 454.883 69.5781 454.938C69.4688 454.992 69.3945 455.072 69.3555 455.178C69.3164 455.279 69.2969 455.518 69.2969 455.893V457.029ZM76.7383 454.633H79.2402V454.85H79.1172C78.9414 454.85 78.8086 454.889 78.7188 454.967C78.6328 455.041 78.5898 455.135 78.5898 455.248C78.5898 455.4 78.6543 455.611 78.7832 455.881L80.0898 458.588L81.291 455.623C81.3574 455.463 81.3906 455.305 81.3906 455.148C81.3906 455.078 81.377 455.025 81.3496 454.99C81.3184 454.947 81.2695 454.914 81.2031 454.891C81.1367 454.863 81.0195 454.85 80.8516 454.85V454.633H82.5977V454.85C82.4531 454.865 82.3418 454.896 82.2637 454.943C82.1855 454.99 82.0996 455.078 82.0059 455.207C81.9707 455.262 81.9043 455.412 81.8066 455.658L79.6211 461.014C79.4102 461.533 79.1328 461.926 78.7891 462.191C78.4492 462.457 78.1211 462.59 77.8047 462.59C77.5742 462.59 77.3848 462.523 77.2363 462.391C77.0879 462.258 77.0137 462.105 77.0137 461.934C77.0137 461.77 77.0664 461.637 77.1719 461.535C77.2812 461.438 77.4297 461.389 77.6172 461.389C77.7461 461.389 77.9219 461.432 78.1445 461.518C78.3008 461.576 78.3984 461.605 78.4375 461.605C78.5547 461.605 78.6816 461.545 78.8184 461.424C78.959 461.303 79.0996 461.068 79.2402 460.721L79.6211 459.789L77.6934 455.74C77.6348 455.619 77.541 455.469 77.4121 455.289C77.3145 455.152 77.2344 455.061 77.1719 455.014C77.082 454.951 76.9375 454.896 76.7383 454.85V454.633ZM85.9199 459.227C85.3691 459.652 85.0234 459.898 84.8828 459.965C84.6719 460.062 84.4473 460.111 84.209 460.111C83.8379 460.111 83.5312 459.984 83.2891 459.73C83.0508 459.477 82.9316 459.143 82.9316 458.729C82.9316 458.467 82.9902 458.24 83.1074 458.049C83.2676 457.783 83.5449 457.533 83.9395 457.299C84.3379 457.064 84.998 456.779 85.9199 456.443V456.232C85.9199 455.697 85.834 455.33 85.6621 455.131C85.4941 454.932 85.248 454.832 84.9238 454.832C84.6777 454.832 84.4824 454.898 84.3379 455.031C84.1895 455.164 84.1152 455.316 84.1152 455.488L84.127 455.828C84.127 456.008 84.0801 456.146 83.9863 456.244C83.8965 456.342 83.7773 456.391 83.6289 456.391C83.4844 456.391 83.3652 456.34 83.2715 456.238C83.1816 456.137 83.1367 455.998 83.1367 455.822C83.1367 455.486 83.3086 455.178 83.6523 454.896C83.9961 454.615 84.4785 454.475 85.0996 454.475C85.5762 454.475 85.9668 454.555 86.2715 454.715C86.502 454.836 86.6719 455.025 86.7812 455.283C86.8516 455.451 86.8867 455.795 86.8867 456.314V458.137C86.8867 458.648 86.8965 458.963 86.916 459.08C86.9355 459.193 86.9668 459.27 87.0098 459.309C87.0566 459.348 87.1094 459.367 87.168 459.367C87.2305 459.367 87.2852 459.354 87.332 459.326C87.4141 459.275 87.5723 459.133 87.8066 458.898V459.227C87.3691 459.812 86.9512 460.105 86.5527 460.105C86.3613 460.105 86.209 460.039 86.0957 459.906C85.9824 459.773 85.9238 459.547 85.9199 459.227ZM85.9199 458.846V456.801C85.3301 457.035 84.9492 457.201 84.7773 457.299C84.4688 457.471 84.248 457.65 84.1152 457.838C83.9824 458.025 83.916 458.23 83.916 458.453C83.916 458.734 84 458.969 84.168 459.156C84.3359 459.34 84.5293 459.432 84.748 459.432C85.0449 459.432 85.4355 459.236 85.9199 458.846ZM93.5957 461.488H93.3789C93.3789 460.949 93.2637 460.561 93.0332 460.322C92.8184 460.107 92.4805 460 92.0195 460C91.5195 459.273 91.0723 458.541 90.6777 457.803C90.498 457.463 90.3086 457.293 90.1094 457.293C90.0625 457.293 89.9883 457.297 89.8867 457.305V458.74C89.8867 459.029 89.8926 459.213 89.9043 459.291C89.9434 459.51 90.041 459.65 90.1973 459.713C90.3145 459.76 90.5117 459.783 90.7891 459.783V460H88.1055V459.783C88.4727 459.783 88.707 459.699 88.8086 459.531C88.8828 459.41 88.9199 459.146 88.9199 458.74V455.893C88.9199 455.58 88.918 455.404 88.9141 455.365C88.8828 455.178 88.7969 455.037 88.6562 454.943C88.5703 454.885 88.3867 454.855 88.1055 454.855V454.633H90.7891V454.855C90.3945 454.855 90.125 454.936 89.9805 455.096C89.918 455.162 89.8867 455.428 89.8867 455.893V456.947C89.9766 456.955 90.0371 456.959 90.0684 456.959C90.627 456.959 91.0371 456.605 91.2988 455.898C91.4238 455.559 91.5195 455.33 91.5859 455.213C91.7188 454.979 91.8887 454.809 92.0957 454.703C92.2715 454.613 92.457 454.568 92.6523 454.568C93.1133 454.568 93.3438 454.752 93.3438 455.119C93.3438 455.447 93.1738 455.611 92.834 455.611C92.748 455.611 92.6406 455.588 92.5117 455.541C92.3477 455.482 92.2227 455.453 92.1367 455.453C91.957 455.453 91.8086 455.609 91.6914 455.922C91.5742 456.23 91.4902 456.43 91.4395 456.52C91.3574 456.672 91.2246 456.838 91.041 457.018C91.248 457.08 91.4805 457.301 91.7383 457.68C91.793 457.762 91.957 458.043 92.2305 458.523C92.4961 458.988 92.6699 459.27 92.752 459.367C92.9824 459.637 93.2637 459.775 93.5957 459.783V461.488ZM98.7637 454.855V454.633H101.465V454.855C101.227 454.855 101.053 454.881 100.943 454.932C100.834 454.982 100.758 455.061 100.715 455.166C100.676 455.271 100.656 455.514 100.656 455.893V458.74C100.656 459.107 100.674 459.346 100.709 459.455C100.744 459.561 100.818 459.643 100.932 459.701C101.049 459.756 101.227 459.783 101.465 459.783V460H98.7637V459.783C99.0684 459.771 99.2656 459.752 99.3555 459.725C99.4492 459.693 99.5273 459.617 99.5898 459.496C99.6523 459.375 99.6836 459.123 99.6836 458.74V455.893C99.6836 455.514 99.6621 455.27 99.6191 455.16C99.5762 455.051 99.5 454.975 99.3906 454.932C99.2852 454.885 99.0762 454.859 98.7637 454.855ZM95.7168 457.023L96.3848 457.012C97.9785 457.012 98.7754 457.504 98.7754 458.488C98.7754 458.945 98.5801 459.312 98.1895 459.59C97.8027 459.863 97.2441 460 96.5137 460H93.9355V459.783C94.2832 459.783 94.5059 459.721 94.6035 459.596C94.7012 459.467 94.75 459.182 94.75 458.74V455.893C94.75 455.475 94.7285 455.229 94.6855 455.154C94.6426 455.076 94.5762 455.008 94.4863 454.949C94.3965 454.887 94.2129 454.855 93.9355 454.855V454.633H96.7422V454.855C96.3555 454.855 96.1172 454.879 96.0273 454.926C95.9375 454.969 95.8633 455.027 95.8047 455.102C95.7461 455.172 95.7168 455.436 95.7168 455.893V457.023ZM95.7168 459.537C95.9238 459.592 96.1309 459.619 96.3379 459.619C96.7285 459.619 97.0449 459.516 97.2871 459.309C97.5332 459.102 97.6562 458.84 97.6562 458.523C97.6562 457.773 97.1348 457.398 96.0918 457.398C96.002 457.398 95.877 457.4 95.7168 457.404V459.537ZM102.027 454.633H106.668L106.902 456.086H106.639C106.592 455.793 106.514 455.566 106.404 455.406C106.295 455.246 106.17 455.141 106.029 455.09C105.889 455.039 105.648 455.014 105.309 455.014H104.84V458.74C104.84 459.139 104.863 459.393 104.91 459.502C104.961 459.607 105.041 459.678 105.15 459.713C105.26 459.748 105.51 459.771 105.9 459.783V460H102.982V459.783C103.357 459.775 103.598 459.715 103.703 459.602C103.812 459.488 103.867 459.201 103.867 458.74V455.014H103.387C103.051 455.014 102.822 455.035 102.701 455.078C102.58 455.117 102.463 455.215 102.35 455.371C102.24 455.523 102.146 455.762 102.068 456.086H101.805L102.027 454.633ZM112.076 454.855V454.633H114.777V454.855C114.539 454.855 114.365 454.881 114.256 454.932C114.146 454.982 114.07 455.061 114.027 455.166C113.988 455.271 113.969 455.514 113.969 455.893V458.74C113.969 459.107 113.986 459.346 114.021 459.455C114.057 459.561 114.131 459.643 114.244 459.701C114.361 459.756 114.539 459.783 114.777 459.783V460H112.076V459.783C112.381 459.771 112.578 459.752 112.668 459.725C112.762 459.693 112.84 459.617 112.902 459.496C112.965 459.375 112.996 459.123 112.996 458.74V455.893C112.996 455.514 112.975 455.27 112.932 455.16C112.889 455.051 112.812 454.975 112.703 454.932C112.598 454.885 112.389 454.859 112.076 454.855ZM109.029 457.023L109.697 457.012C111.291 457.012 112.088 457.504 112.088 458.488C112.088 458.945 111.893 459.312 111.502 459.59C111.115 459.863 110.557 460 109.826 460H107.248V459.783C107.596 459.783 107.818 459.721 107.916 459.596C108.014 459.467 108.062 459.182 108.062 458.74V455.893C108.062 455.475 108.041 455.229 107.998 455.154C107.955 455.076 107.889 455.008 107.799 454.949C107.709 454.887 107.525 454.855 107.248 454.855V454.633H110.055V454.855C109.668 454.855 109.43 454.879 109.34 454.926C109.25 454.969 109.176 455.027 109.117 455.102C109.059 455.172 109.029 455.436 109.029 455.893V457.023ZM109.029 459.537C109.236 459.592 109.443 459.619 109.65 459.619C110.041 459.619 110.357 459.516 110.6 459.309C110.846 459.102 110.969 458.84 110.969 458.523C110.969 457.773 110.447 457.398 109.404 457.398C109.314 457.398 109.189 457.4 109.029 457.404V459.537Z" fill="#D9B770" fill-opacity="0.8"/>
<path d="M36.2109 475.188V483.852C36.2109 484.503 36.2396 484.919 36.2969 485.102C36.3542 485.279 36.474 485.424 36.6562 485.539C36.8385 485.654 37.1302 485.711 37.5312 485.711H37.7734V486H32.1953V485.711H32.4766C32.9297 485.711 33.2526 485.659 33.4453 485.555C33.638 485.451 33.7682 485.307 33.8359 485.125C33.9036 484.943 33.9375 484.518 33.9375 483.852V478.359C33.9375 477.87 33.9141 477.565 33.8672 477.445C33.8203 477.32 33.7318 477.216 33.6016 477.133C33.4766 477.044 33.3307 477 33.1641 477C32.8984 477 32.5755 477.083 32.1953 477.25L32.0547 476.969L35.9531 475.188H36.2109ZM44.1331 480.016C44.8779 480.562 45.3935 481.073 45.68 481.547C45.9717 482.016 46.1175 482.555 46.1175 483.164C46.1175 484.018 45.7946 484.742 45.1487 485.336C44.5081 485.924 43.6357 486.219 42.5316 486.219C41.4847 486.219 40.6748 485.961 40.1019 485.445C39.529 484.93 39.2425 484.299 39.2425 483.555C39.2425 482.987 39.4066 482.49 39.7347 482.062C40.068 481.635 40.6201 481.245 41.3909 480.891C40.5524 480.25 40.0133 479.727 39.7737 479.32C39.5394 478.914 39.4222 478.443 39.4222 477.906C39.4222 477.198 39.7217 476.576 40.3206 476.039C40.9248 475.497 41.7503 475.227 42.7972 475.227C43.8076 475.227 44.5836 475.466 45.1253 475.945C45.6722 476.419 45.9456 476.99 45.9456 477.656C45.9456 478.156 45.7972 478.599 45.5003 478.984C45.2086 479.365 44.7529 479.708 44.1331 480.016ZM43.5394 479.617C43.7321 479.357 43.8753 479.065 43.9691 478.742C44.0628 478.419 44.1097 478.065 44.1097 477.68C44.1097 477.003 43.9639 476.484 43.6722 476.125C43.4534 475.849 43.1514 475.711 42.7659 475.711C42.417 475.711 42.1201 475.839 41.8753 476.094C41.6305 476.344 41.5081 476.656 41.5081 477.031C41.5081 477.411 41.6435 477.807 41.9144 478.219C42.1904 478.625 42.7321 479.091 43.5394 479.617ZM41.9769 481.266C41.8154 481.411 41.7008 481.544 41.6331 481.664C41.529 481.846 41.4352 482.112 41.3519 482.461C41.2685 482.81 41.2269 483.174 41.2269 483.555C41.2269 484.044 41.2894 484.456 41.4144 484.789C41.5394 485.117 41.7165 485.354 41.9456 485.5C42.18 485.646 42.4196 485.719 42.6644 485.719C43.0446 485.719 43.3649 485.581 43.6253 485.305C43.8857 485.023 44.0159 484.641 44.0159 484.156C44.0159 483.146 43.3362 482.182 41.9769 481.266ZM49.0319 478.484C49.3912 478.484 49.6959 478.612 49.9459 478.867C50.2011 479.117 50.3287 479.422 50.3287 479.781C50.3287 480.141 50.2011 480.448 49.9459 480.703C49.6959 480.953 49.3912 481.078 49.0319 481.078C48.6725 481.078 48.3652 480.953 48.11 480.703C47.86 480.448 47.735 480.141 47.735 479.781C47.735 479.422 47.86 479.117 48.11 478.867C48.3652 478.612 48.6725 478.484 49.0319 478.484ZM49.0241 483.594C49.3886 483.594 49.6959 483.721 49.9459 483.977C50.2011 484.232 50.3287 484.539 50.3287 484.898C50.3287 485.258 50.2011 485.565 49.9459 485.82C49.6907 486.07 49.3834 486.195 49.0241 486.195C48.6647 486.195 48.3574 486.07 48.1022 485.82C47.8522 485.565 47.7272 485.258 47.7272 484.898C47.7272 484.539 47.8522 484.232 48.1022 483.977C48.3574 483.721 48.6647 483.594 49.0241 483.594ZM58.7822 480.703C58.7822 481.76 58.6338 482.747 58.3369 483.664C58.1598 484.227 57.9202 484.688 57.6181 485.047C57.3213 485.406 56.9827 485.693 56.6025 485.906C56.2223 486.115 55.8082 486.219 55.3603 486.219C54.8499 486.219 54.389 486.089 53.9775 485.828C53.566 485.568 53.2015 485.195 52.8838 484.711C52.6546 484.357 52.4541 483.885 52.2822 483.297C52.0582 482.5 51.9463 481.677 51.9463 480.828C51.9463 479.677 52.1077 478.62 52.4306 477.656C52.6963 476.859 53.0999 476.25 53.6416 475.828C54.1832 475.401 54.7561 475.188 55.3603 475.188C55.9749 475.188 56.5478 475.398 57.0791 475.82C57.6155 476.237 58.0088 476.799 58.2588 477.508C58.6077 478.482 58.7822 479.547 58.7822 480.703ZM56.3759 480.688C56.3759 478.833 56.3655 477.753 56.3447 477.445C56.2926 476.721 56.1676 476.232 55.9697 475.977C55.8395 475.81 55.6285 475.727 55.3369 475.727C55.1129 475.727 54.9358 475.789 54.8056 475.914C54.6129 476.096 54.4827 476.419 54.415 476.883C54.3473 477.341 54.3134 478.948 54.3134 481.703C54.3134 483.203 54.3655 484.208 54.4697 484.719C54.5478 485.089 54.6598 485.336 54.8056 485.461C54.9515 485.586 55.1442 485.648 55.3838 485.648C55.6442 485.648 55.8395 485.565 55.9697 485.398C56.1884 485.107 56.3134 484.656 56.3447 484.047L56.3759 480.688ZM66.4622 480.703C66.4622 481.76 66.3137 482.747 66.0169 483.664C65.8398 484.227 65.6002 484.688 65.2981 485.047C65.0012 485.406 64.6627 485.693 64.2825 485.906C63.9023 486.115 63.4882 486.219 63.0403 486.219C62.5299 486.219 62.069 486.089 61.6575 485.828C61.246 485.568 60.8815 485.195 60.5637 484.711C60.3346 484.357 60.1341 483.885 59.9622 483.297C59.7382 482.5 59.6262 481.677 59.6262 480.828C59.6262 479.677 59.7877 478.62 60.1106 477.656C60.3762 476.859 60.7799 476.25 61.3216 475.828C61.8632 475.401 62.4361 475.188 63.0403 475.188C63.6549 475.188 64.2278 475.398 64.7591 475.82C65.2955 476.237 65.6887 476.799 65.9387 477.508C66.2877 478.482 66.4622 479.547 66.4622 480.703ZM64.0559 480.688C64.0559 478.833 64.0455 477.753 64.0247 477.445C63.9726 476.721 63.8476 476.232 63.6497 475.977C63.5195 475.81 63.3085 475.727 63.0169 475.727C62.7929 475.727 62.6158 475.789 62.4856 475.914C62.2929 476.096 62.1627 476.419 62.095 476.883C62.0273 477.341 61.9934 478.948 61.9934 481.703C61.9934 483.203 62.0455 484.208 62.1497 484.719C62.2278 485.089 62.3398 485.336 62.4856 485.461C62.6315 485.586 62.8242 485.648 63.0637 485.648C63.3242 485.648 63.5195 485.565 63.6497 485.398C63.8684 485.107 63.9934 484.656 64.0247 484.047L64.0559 480.688Z" fill="#D9B770"/>
<path d="M38.9434 224.055L39.0312 225.918H38.8086C38.7656 225.59 38.707 225.355 38.6328 225.215C38.5117 224.988 38.3496 224.822 38.1465 224.717C37.9473 224.607 37.6836 224.553 37.3555 224.553H36.2363V230.623C36.2363 231.111 36.2891 231.416 36.3945 231.537C36.543 231.701 36.7715 231.783 37.0801 231.783H37.3555V232H33.9863V231.783H34.2676C34.6035 231.783 34.8418 231.682 34.9824 231.479C35.0684 231.354 35.1113 231.068 35.1113 230.623V224.553H34.1562C33.7852 224.553 33.5215 224.58 33.3652 224.635C33.1621 224.709 32.9883 224.852 32.8438 225.062C32.6992 225.273 32.6133 225.559 32.5859 225.918H32.3633L32.457 224.055H38.9434ZM40.1562 228.654C40.1523 229.451 40.3457 230.076 40.7363 230.529C41.127 230.982 41.5859 231.209 42.1133 231.209C42.4648 231.209 42.7695 231.113 43.0273 230.922C43.2891 230.727 43.5078 230.395 43.6836 229.926L43.8652 230.043C43.7832 230.578 43.5449 231.066 43.1504 231.508C42.7559 231.945 42.2617 232.164 41.668 232.164C41.0234 232.164 40.4707 231.914 40.0098 231.414C39.5527 230.91 39.3242 230.234 39.3242 229.387C39.3242 228.469 39.5586 227.754 40.0273 227.242C40.5 226.727 41.0918 226.469 41.8027 226.469C42.4043 226.469 42.8984 226.668 43.2852 227.066C43.6719 227.461 43.8652 227.99 43.8652 228.654H40.1562ZM40.1562 228.314H42.6406C42.6211 227.971 42.5801 227.729 42.5176 227.588C42.4199 227.369 42.2734 227.197 42.0781 227.072C41.8867 226.947 41.6855 226.885 41.4746 226.885C41.1504 226.885 40.8594 227.012 40.6016 227.266C40.3477 227.516 40.1992 227.865 40.1562 228.314ZM44.1992 227.166L45.8516 226.498H46.0742V227.752C46.3516 227.279 46.6289 226.949 46.9062 226.762C47.1875 226.57 47.4824 226.475 47.791 226.475C48.3301 226.475 48.7793 226.686 49.1387 227.107C49.5801 227.623 49.8008 228.295 49.8008 229.123C49.8008 230.049 49.5352 230.814 49.0039 231.42C48.5664 231.916 48.0156 232.164 47.3516 232.164C47.0625 232.164 46.8125 232.123 46.6016 232.041C46.4453 231.982 46.2695 231.865 46.0742 231.689V233.324C46.0742 233.691 46.0957 233.924 46.1387 234.021C46.1855 234.123 46.2637 234.203 46.373 234.262C46.4863 234.32 46.6895 234.35 46.9824 234.35V234.566H44.1699V234.35H44.3164C44.5312 234.354 44.7148 234.312 44.8672 234.227C44.9414 234.184 44.998 234.113 45.0371 234.016C45.0801 233.922 45.1016 233.68 45.1016 233.289V228.215C45.1016 227.867 45.0859 227.646 45.0547 227.553C45.0234 227.459 44.9727 227.389 44.9023 227.342C44.8359 227.295 44.7441 227.271 44.627 227.271C44.5332 227.271 44.4141 227.299 44.2695 227.354L44.1992 227.166ZM46.0742 228.098V230.102C46.0742 230.535 46.0918 230.82 46.127 230.957C46.1816 231.184 46.3145 231.383 46.5254 231.555C46.7402 231.727 47.0098 231.812 47.334 231.812C47.7246 231.812 48.041 231.66 48.2832 231.355C48.5996 230.957 48.7578 230.396 48.7578 229.674C48.7578 228.854 48.5781 228.223 48.2188 227.781C47.9688 227.477 47.6719 227.324 47.3281 227.324C47.1406 227.324 46.9551 227.371 46.7715 227.465C46.6309 227.535 46.3984 227.746 46.0742 228.098ZM53.8672 230.6L55.543 226.633H57.3535V226.855C57.0879 226.855 56.9102 226.883 56.8203 226.938C56.7344 226.988 56.666 227.053 56.6152 227.131C56.5645 227.209 56.5391 227.463 56.5391 227.893V230.74C56.5391 231.111 56.5566 231.352 56.5918 231.461C56.6309 231.566 56.707 231.646 56.8203 231.701C56.9375 231.756 57.1152 231.783 57.3535 231.783V232H54.7578V231.783C55.0781 231.783 55.293 231.725 55.4023 231.607C55.5117 231.486 55.5664 231.197 55.5664 230.74V227.512L53.668 232H53.4629L51.5293 227.512V230.74C51.5293 231.111 51.5488 231.352 51.5879 231.461C51.627 231.566 51.7031 231.646 51.8164 231.701C51.9297 231.756 52.1055 231.783 52.3438 231.783V232H50.293V231.783C50.6406 231.783 50.8633 231.721 50.9609 231.596C51.0586 231.467 51.1074 231.182 51.1074 230.74V227.893C51.1074 227.475 51.0859 227.229 51.043 227.154C51 227.076 50.9336 227.008 50.8438 226.949C50.7539 226.887 50.5703 226.855 50.293 226.855V226.633H52.1797L53.8672 230.6ZM59.668 230.348L61.9883 227.664C61.9805 227.363 61.9238 227.154 61.8184 227.037C61.7129 226.92 61.5312 226.859 61.2734 226.855V226.633H63.7695V226.855C63.5078 226.855 63.332 226.883 63.2422 226.938C63.1523 226.988 63.082 227.053 63.0312 227.131C62.9805 227.209 62.9551 227.463 62.9551 227.893V230.74C62.9551 231.154 62.9766 231.402 63.0195 231.484C63.0625 231.562 63.1289 231.633 63.2188 231.695C63.3125 231.754 63.4961 231.783 63.7695 231.783V232H61.1738V231.783C61.498 231.783 61.7148 231.725 61.8242 231.607C61.9336 231.486 61.9883 231.197 61.9883 230.74V228.215L59.668 230.904C59.6758 231.236 59.7227 231.465 59.8086 231.59C59.8945 231.715 60.0801 231.779 60.3652 231.783V232H57.8867V231.783C58.2344 231.783 58.457 231.721 58.5547 231.596C58.6523 231.467 58.7012 231.182 58.7012 230.74V227.893C58.7012 227.475 58.6797 227.229 58.6367 227.154C58.5938 227.076 58.5273 227.008 58.4375 226.949C58.3477 226.887 58.1641 226.855 57.8867 226.855V226.633H60.4824V226.855C60.2207 226.855 60.0449 226.883 59.9551 226.938C59.8652 226.988 59.7949 227.053 59.7441 227.131C59.6934 227.209 59.668 227.463 59.668 227.893V230.348ZM66.0898 229.029H68.4102V227.893C68.4102 227.553 68.3965 227.332 68.3691 227.23C68.3418 227.125 68.2734 227.037 68.1641 226.967C68.0586 226.893 67.8691 226.855 67.5957 226.855V226.633H70.1914V226.855C69.9492 226.855 69.7715 226.883 69.6582 226.938C69.5488 226.992 69.4746 227.072 69.4355 227.178C69.3965 227.279 69.377 227.518 69.377 227.893V230.74C69.377 231.08 69.3906 231.305 69.418 231.414C69.4492 231.523 69.5215 231.613 69.6348 231.684C69.748 231.75 69.9336 231.783 70.1914 231.783V232H67.5957V231.783C67.9199 231.783 68.1367 231.725 68.2461 231.607C68.3555 231.486 68.4102 231.197 68.4102 230.74V229.41H66.0898V230.74C66.0898 231.08 66.1035 231.305 66.1309 231.414C66.1621 231.523 66.2344 231.613 66.3477 231.684C66.4609 231.75 66.6465 231.783 66.9043 231.783V232H64.3086V231.783C64.6562 231.783 64.8789 231.721 64.9766 231.596C65.0742 231.467 65.123 231.182 65.123 230.74V227.893C65.123 227.553 65.1074 227.328 65.0762 227.219C65.0488 227.109 64.9785 227.021 64.8652 226.955C64.752 226.889 64.5664 226.855 64.3086 226.855V226.633H66.9043V226.855C66.6621 226.855 66.4844 226.883 66.3711 226.938C66.2617 226.992 66.1875 227.072 66.1484 227.178C66.1094 227.279 66.0898 227.518 66.0898 227.893V229.029ZM73.877 231.227C73.3262 231.652 72.9805 231.898 72.8398 231.965C72.6289 232.062 72.4043 232.111 72.166 232.111C71.7949 232.111 71.4883 231.984 71.2461 231.73C71.0078 231.477 70.8887 231.143 70.8887 230.729C70.8887 230.467 70.9473 230.24 71.0645 230.049C71.2246 229.783 71.502 229.533 71.8965 229.299C72.2949 229.064 72.9551 228.779 73.877 228.443V228.232C73.877 227.697 73.791 227.33 73.6191 227.131C73.4512 226.932 73.2051 226.832 72.8809 226.832C72.6348 226.832 72.4395 226.898 72.2949 227.031C72.1465 227.164 72.0723 227.316 72.0723 227.488L72.084 227.828C72.084 228.008 72.0371 228.146 71.9434 228.244C71.8535 228.342 71.7344 228.391 71.5859 228.391C71.4414 228.391 71.3223 228.34 71.2285 228.238C71.1387 228.137 71.0938 227.998 71.0938 227.822C71.0938 227.486 71.2656 227.178 71.6094 226.896C71.9531 226.615 72.4355 226.475 73.0566 226.475C73.5332 226.475 73.9238 226.555 74.2285 226.715C74.459 226.836 74.6289 227.025 74.7383 227.283C74.8086 227.451 74.8438 227.795 74.8438 228.314V230.137C74.8438 230.648 74.8535 230.963 74.873 231.08C74.8926 231.193 74.9238 231.27 74.9668 231.309C75.0137 231.348 75.0664 231.367 75.125 231.367C75.1875 231.367 75.2422 231.354 75.2891 231.326C75.3711 231.275 75.5293 231.133 75.7637 230.898V231.227C75.3262 231.812 74.9082 232.105 74.5098 232.105C74.3184 232.105 74.166 232.039 74.0527 231.906C73.9395 231.773 73.8809 231.547 73.877 231.227ZM73.877 230.846V228.801C73.2871 229.035 72.9062 229.201 72.7344 229.299C72.4258 229.471 72.2051 229.65 72.0723 229.838C71.9395 230.025 71.873 230.23 71.873 230.453C71.873 230.734 71.957 230.969 72.125 231.156C72.293 231.34 72.4863 231.432 72.7051 231.432C73.002 231.432 73.3926 231.236 73.877 230.846ZM76.8242 226.633H81.623V226.855C81.3574 226.855 81.1797 226.883 81.0898 226.938C81.0039 226.988 80.9355 227.053 80.8848 227.131C80.834 227.209 80.8086 227.463 80.8086 227.893V230.74C80.8086 231.154 80.8301 231.402 80.873 231.484C80.916 231.562 80.9824 231.633 81.0723 231.695C81.166 231.754 81.3496 231.783 81.623 231.783V232H78.8457V231.783C79.1465 231.783 79.3535 231.768 79.4668 231.736C79.584 231.705 79.6758 231.631 79.7422 231.514C79.8086 231.393 79.8418 231.135 79.8418 230.74V227.014H78.0547V229.275C78.0547 230.131 78.0156 230.732 77.9375 231.08C77.8633 231.424 77.7129 231.68 77.4863 231.848C77.2637 232.012 77.0078 232.094 76.7188 232.094C76.2188 232.094 75.9688 231.887 75.9688 231.473C75.9688 231.332 76.0078 231.217 76.0859 231.127C76.168 231.037 76.2734 230.992 76.4023 230.992C76.5391 230.992 76.666 231.049 76.7832 231.162C76.9355 231.311 77.0508 231.385 77.1289 231.385C77.3047 231.385 77.4316 231.238 77.5098 230.945C77.5918 230.648 77.6328 230.131 77.6328 229.393V228.209C77.6328 227.6 77.5879 227.229 77.498 227.096C77.4121 226.963 77.1875 226.883 76.8242 226.855V226.633Z" fill="#D9B770" fill-opacity="0.8"/>
<path d="M36.3594 248.016V252.328H36.5703C37.2422 252.328 37.7292 252.117 38.0312 251.695C38.3333 251.273 38.526 250.651 38.6094 249.828H38.9062V255.375H38.6094C38.5469 254.771 38.4141 254.276 38.2109 253.891C38.013 253.505 37.7812 253.247 37.5156 253.117C37.25 252.982 36.8646 252.914 36.3594 252.914V255.898C36.3594 256.482 36.3828 256.839 36.4297 256.969C36.4818 257.099 36.5755 257.206 36.7109 257.289C36.8464 257.372 37.0651 257.414 37.3672 257.414H38C38.9896 257.414 39.7812 257.185 40.375 256.727C40.974 256.268 41.4036 255.57 41.6641 254.633H41.9531L41.4766 258H32.3203V257.711H32.6719C32.9792 257.711 33.2266 257.656 33.4141 257.547C33.5495 257.474 33.6536 257.349 33.7266 257.172C33.7839 257.047 33.8125 256.719 33.8125 256.188V249.219C33.8125 248.74 33.7995 248.445 33.7734 248.336C33.7214 248.154 33.625 248.013 33.4844 247.914C33.2865 247.768 33.0156 247.695 32.6719 247.695H32.3203V247.406H41.1875V250.539H40.8906C40.7396 249.773 40.526 249.224 40.25 248.891C39.9792 248.557 39.5938 248.312 39.0938 248.156C38.8021 248.062 38.2552 248.016 37.4531 248.016H36.3594ZM49.8675 247.164L49.9534 250.695H49.6331C49.4821 249.81 49.1097 249.099 48.5159 248.562C47.9274 248.021 47.2894 247.75 46.6019 247.75C46.0706 247.75 45.6488 247.893 45.3363 248.18C45.029 248.461 44.8753 248.786 44.8753 249.156C44.8753 249.391 44.93 249.599 45.0394 249.781C45.1904 250.026 45.4326 250.268 45.7659 250.508C46.0107 250.68 46.5758 250.984 47.4613 251.422C48.7008 252.031 49.5368 252.607 49.9691 253.148C50.3961 253.69 50.6097 254.31 50.6097 255.008C50.6097 255.893 50.2633 256.656 49.5706 257.297C48.8831 257.932 48.0081 258.25 46.9456 258.25C46.6123 258.25 46.2972 258.216 46.0003 258.148C45.7034 258.081 45.331 257.953 44.8831 257.766C44.6331 257.661 44.4274 257.609 44.2659 257.609C44.1305 257.609 43.9873 257.661 43.8363 257.766C43.6852 257.87 43.5628 258.029 43.4691 258.242H43.18V254.242H43.4691C43.6982 255.367 44.1383 256.227 44.7894 256.82C45.4456 257.409 46.1514 257.703 46.9066 257.703C47.4899 257.703 47.9534 257.544 48.2972 257.227C48.6461 256.909 48.8206 256.539 48.8206 256.117C48.8206 255.867 48.7529 255.625 48.6175 255.391C48.4873 255.156 48.2868 254.935 48.0159 254.727C47.7451 254.513 47.2659 254.237 46.5784 253.898C45.6149 253.424 44.9222 253.021 44.5003 252.688C44.0784 252.354 43.7529 251.982 43.5238 251.57C43.2998 251.159 43.1878 250.706 43.1878 250.211C43.1878 249.367 43.4977 248.648 44.1175 248.055C44.7373 247.461 45.5185 247.164 46.4613 247.164C46.805 247.164 47.1383 247.206 47.4613 247.289C47.706 247.352 48.0029 247.469 48.3519 247.641C48.706 247.807 48.9534 247.891 49.0941 247.891C49.2295 247.891 49.3363 247.849 49.4144 247.766C49.4925 247.682 49.5654 247.482 49.6331 247.164H49.8675ZM61.0319 247.406V250.273H60.7506C60.584 249.612 60.3991 249.138 60.1959 248.852C59.9928 248.56 59.7142 248.328 59.36 248.156C59.1621 248.062 58.8157 248.016 58.3209 248.016H57.5319V256.188C57.5319 256.729 57.5605 257.068 57.6178 257.203C57.6803 257.339 57.7975 257.458 57.9694 257.562C58.1465 257.661 58.386 257.711 58.6881 257.711H59.0397V258H53.4928V257.711H53.8444C54.1517 257.711 54.3991 257.656 54.5866 257.547C54.722 257.474 54.8288 257.349 54.9069 257.172C54.9642 257.047 54.9928 256.719 54.9928 256.188V248.016H54.2272C53.5136 248.016 52.9954 248.167 52.6725 248.469C52.2194 248.891 51.9329 249.492 51.8131 250.273H51.5163V247.406H61.0319ZM65.54 253.172V256.141C65.54 256.714 65.5739 257.076 65.6416 257.227C65.7145 257.372 65.8395 257.49 66.0166 257.578C66.1936 257.667 66.5244 257.711 67.0088 257.711V258H61.5869V257.711C62.0765 257.711 62.4072 257.667 62.5791 257.578C62.7561 257.484 62.8785 257.365 62.9463 257.219C63.0192 257.073 63.0556 256.714 63.0556 256.141V249.266C63.0556 248.693 63.0192 248.333 62.9463 248.188C62.8785 248.036 62.7561 247.917 62.5791 247.828C62.402 247.74 62.0713 247.695 61.5869 247.695V247.406H66.5088C67.79 247.406 68.7275 247.495 69.3213 247.672C69.915 247.849 70.3994 248.177 70.7744 248.656C71.1494 249.13 71.3369 249.688 71.3369 250.328C71.3369 251.109 71.0556 251.755 70.4931 252.266C70.1338 252.589 69.6311 252.831 68.9853 252.992L71.5322 256.578C71.8655 257.042 72.1025 257.331 72.2431 257.445C72.4567 257.607 72.7041 257.695 72.9853 257.711V258H69.6494L66.2353 253.172H65.54ZM65.54 247.977V252.617H65.9853C66.7093 252.617 67.2509 252.552 67.6103 252.422C67.9697 252.286 68.2509 252.047 68.4541 251.703C68.6624 251.354 68.7666 250.901 68.7666 250.344C68.7666 249.536 68.5765 248.94 68.1963 248.555C67.8213 248.169 67.2145 247.977 66.3759 247.977H65.54ZM76.8919 248.016V252.328H77.1028C77.7747 252.328 78.2617 252.117 78.5638 251.695C78.8658 251.273 79.0585 250.651 79.1419 249.828H79.4388V255.375H79.1419C79.0794 254.771 78.9466 254.276 78.7434 253.891C78.5455 253.505 78.3138 253.247 78.0481 253.117C77.7825 252.982 77.3971 252.914 76.8919 252.914V255.898C76.8919 256.482 76.9153 256.839 76.9622 256.969C77.0143 257.099 77.108 257.206 77.2434 257.289C77.3789 257.372 77.5976 257.414 77.8997 257.414H78.5325C79.5221 257.414 80.3138 257.185 80.9075 256.727C81.5065 256.268 81.9361 255.57 82.1966 254.633H82.4856L82.0091 258H72.8528V257.711H73.2044C73.5117 257.711 73.7591 257.656 73.9466 257.547C74.082 257.474 74.1861 257.349 74.2591 257.172C74.3164 257.047 74.345 256.719 74.345 256.188V249.219C74.345 248.74 74.332 248.445 74.3059 248.336C74.2539 248.154 74.1575 248.013 74.0169 247.914C73.819 247.768 73.5481 247.695 73.2044 247.695H72.8528V247.406H81.72V250.539H81.4231C81.2721 249.773 81.0585 249.224 80.7825 248.891C80.5117 248.557 80.1263 248.312 79.6263 248.156C79.3346 248.062 78.7877 248.016 77.9856 248.016H76.8919ZM92.9859 254.281L92.5875 258H83.1813V257.711H83.5328C83.8401 257.711 84.0875 257.656 84.275 257.547C84.4104 257.474 84.5146 257.349 84.5875 257.172C84.6448 257.047 84.6734 256.719 84.6734 256.188V249.219C84.6734 248.677 84.6448 248.339 84.5875 248.203C84.5302 248.068 84.413 247.951 84.2359 247.852C84.0641 247.747 83.8297 247.695 83.5328 247.695H83.1813V247.406H88.8297V247.695H88.3688C88.0615 247.695 87.8141 247.75 87.6266 247.859C87.4911 247.932 87.3844 248.057 87.3063 248.234C87.249 248.359 87.2203 248.688 87.2203 249.219V255.969C87.2203 256.51 87.2516 256.857 87.3141 257.008C87.3766 257.154 87.499 257.263 87.6813 257.336C87.8115 257.383 88.1266 257.406 88.6266 257.406H89.5094C90.0719 257.406 90.5406 257.307 90.9156 257.109C91.2906 256.911 91.6135 256.599 91.8844 256.172C92.1604 255.745 92.4208 255.115 92.6656 254.281H92.9859ZM103.338 254.281L102.939 258H93.5331V257.711H93.8847C94.192 257.711 94.4394 257.656 94.6269 257.547C94.7623 257.474 94.8665 257.349 94.9394 257.172C94.9967 257.047 95.0253 256.719 95.0253 256.188V249.219C95.0253 248.677 94.9967 248.339 94.9394 248.203C94.8821 248.068 94.7649 247.951 94.5878 247.852C94.4159 247.747 94.1816 247.695 93.8847 247.695H93.5331V247.406H99.1816V247.695H98.7206C98.4133 247.695 98.1659 247.75 97.9784 247.859C97.843 247.932 97.7363 248.057 97.6581 248.234C97.6008 248.359 97.5722 248.688 97.5722 249.219V255.969C97.5722 256.51 97.6034 256.857 97.6659 257.008C97.7284 257.154 97.8508 257.263 98.0331 257.336C98.1633 257.383 98.4784 257.406 98.9784 257.406H99.8613C100.424 257.406 100.893 257.307 101.268 257.109C101.643 256.911 101.965 256.599 102.236 256.172C102.512 255.745 102.773 255.115 103.018 254.281H103.338ZM110.244 254.984H106.502L106.057 256.016C105.911 256.359 105.838 256.643 105.838 256.867C105.838 257.164 105.958 257.383 106.198 257.523C106.338 257.607 106.684 257.669 107.237 257.711V258H103.713V257.711C104.093 257.654 104.406 257.497 104.651 257.242C104.895 256.982 105.198 256.448 105.557 255.641L109.346 247.188H109.494L113.315 255.875C113.679 256.698 113.979 257.216 114.213 257.43C114.39 257.591 114.64 257.685 114.963 257.711V258H109.838V257.711H110.049C110.461 257.711 110.75 257.654 110.916 257.539C111.031 257.456 111.088 257.336 111.088 257.18C111.088 257.086 111.073 256.99 111.041 256.891C111.031 256.844 110.953 256.648 110.807 256.305L110.244 254.984ZM109.979 254.406L108.401 250.758L106.776 254.406H109.979Z" fill="#D9B770"/>
<path d="M39.957 310.285H39.7578C39.7578 309.66 39.5977 309.131 39.2773 308.697C38.9336 308.232 38.4824 308 37.9238 308C37.7402 307.711 37.2676 307.039 36.5059 305.984C36.2285 305.594 35.9531 305.203 35.6797 304.812C35.3203 304.395 34.9238 304.184 34.4902 304.18V306.553C34.4902 307.061 34.5566 307.389 34.6895 307.537C34.8262 307.686 35.1426 307.768 35.6387 307.783V308H32.2168V307.783C32.7129 307.768 33.0312 307.684 33.1719 307.531C33.3008 307.383 33.3652 307.057 33.3652 306.553V301.502C33.3652 300.994 33.2969 300.666 33.1602 300.518C33.0273 300.369 32.7129 300.287 32.2168 300.271V300.055H35.6387V300.271C35.1426 300.287 34.8262 300.369 34.6895 300.518C34.5566 300.666 34.4902 300.994 34.4902 301.502V303.717C34.8613 303.713 35.1211 303.693 35.2695 303.658C35.4922 303.6 35.7129 303.471 35.9316 303.271C36.1348 303.088 36.2969 302.885 36.418 302.662C36.5312 302.451 36.6836 302.096 36.875 301.596C37.0352 301.166 37.1504 300.891 37.2207 300.77C37.377 300.496 37.584 300.291 37.8418 300.154C38.084 300.025 38.377 299.961 38.7207 299.961C39.3223 299.961 39.623 300.172 39.623 300.594C39.623 300.746 39.5625 300.877 39.4414 300.986C39.3242 301.092 39.1895 301.145 39.0371 301.145C38.9238 301.145 38.7402 301.082 38.4863 300.957C38.2559 300.844 38.0977 300.787 38.0117 300.787C37.8398 300.787 37.6777 300.951 37.5254 301.279C37.5215 301.283 37.4336 301.518 37.2617 301.982C36.8906 302.979 36.4121 303.613 35.8262 303.887C36.1816 303.949 36.6738 304.436 37.3027 305.346C37.9473 306.275 38.3125 306.789 38.3984 306.887C38.9062 307.473 39.4258 307.771 39.957 307.783V310.285ZM43.4199 307.227C42.8691 307.652 42.5234 307.898 42.3828 307.965C42.1719 308.062 41.9473 308.111 41.709 308.111C41.3379 308.111 41.0312 307.984 40.7891 307.73C40.5508 307.477 40.4316 307.143 40.4316 306.729C40.4316 306.467 40.4902 306.24 40.6074 306.049C40.7676 305.783 41.0449 305.533 41.4395 305.299C41.8379 305.064 42.498 304.779 43.4199 304.443V304.232C43.4199 303.697 43.334 303.33 43.1621 303.131C42.9941 302.932 42.748 302.832 42.4238 302.832C42.1777 302.832 41.9824 302.898 41.8379 303.031C41.6895 303.164 41.6152 303.316 41.6152 303.488L41.627 303.828C41.627 304.008 41.5801 304.146 41.4863 304.244C41.3965 304.342 41.2773 304.391 41.1289 304.391C40.9844 304.391 40.8652 304.34 40.7715 304.238C40.6816 304.137 40.6367 303.998 40.6367 303.822C40.6367 303.486 40.8086 303.178 41.1523 302.896C41.4961 302.615 41.9785 302.475 42.5996 302.475C43.0762 302.475 43.4668 302.555 43.7715 302.715C44.002 302.836 44.1719 303.025 44.2812 303.283C44.3516 303.451 44.3867 303.795 44.3867 304.314V306.137C44.3867 306.648 44.3965 306.963 44.416 307.08C44.4355 307.193 44.4668 307.27 44.5098 307.309C44.5566 307.348 44.6094 307.367 44.668 307.367C44.7305 307.367 44.7852 307.354 44.832 307.326C44.9141 307.275 45.0723 307.133 45.3066 306.898V307.227C44.8691 307.812 44.4512 308.105 44.0527 308.105C43.8613 308.105 43.709 308.039 43.5957 307.906C43.4824 307.773 43.4238 307.547 43.4199 307.227ZM43.4199 306.846V304.801C42.8301 305.035 42.4492 305.201 42.2773 305.299C41.9688 305.471 41.748 305.65 41.6152 305.838C41.4824 306.025 41.416 306.23 41.416 306.453C41.416 306.734 41.5 306.969 41.668 307.156C41.8359 307.34 42.0293 307.432 42.248 307.432C42.5449 307.432 42.9355 307.236 43.4199 306.846ZM46.3672 302.633H51.166V302.855C50.9004 302.855 50.7227 302.883 50.6328 302.938C50.5469 302.988 50.4785 303.053 50.4277 303.131C50.377 303.209 50.3516 303.463 50.3516 303.893V306.74C50.3516 307.154 50.373 307.402 50.416 307.484C50.459 307.562 50.5254 307.633 50.6152 307.695C50.709 307.754 50.8926 307.783 51.166 307.783V308H48.3887V307.783C48.6895 307.783 48.8965 307.768 49.0098 307.736C49.127 307.705 49.2188 307.631 49.2852 307.514C49.3516 307.393 49.3848 307.135 49.3848 306.74V303.014H47.5977V305.275C47.5977 306.131 47.5586 306.732 47.4805 307.08C47.4062 307.424 47.2559 307.68 47.0293 307.848C46.8066 308.012 46.5508 308.094 46.2617 308.094C45.7617 308.094 45.5117 307.887 45.5117 307.473C45.5117 307.332 45.5508 307.217 45.6289 307.127C45.7109 307.037 45.8164 306.992 45.9453 306.992C46.082 306.992 46.209 307.049 46.3262 307.162C46.4785 307.311 46.5938 307.385 46.6719 307.385C46.8477 307.385 46.9746 307.238 47.0527 306.945C47.1348 306.648 47.1758 306.131 47.1758 305.393V304.209C47.1758 303.6 47.1309 303.229 47.041 303.096C46.9551 302.963 46.7305 302.883 46.3672 302.855V302.633ZM54.8457 307.227C54.2949 307.652 53.9492 307.898 53.8086 307.965C53.5977 308.062 53.373 308.111 53.1348 308.111C52.7637 308.111 52.457 307.984 52.2148 307.73C51.9766 307.477 51.8574 307.143 51.8574 306.729C51.8574 306.467 51.916 306.24 52.0332 306.049C52.1934 305.783 52.4707 305.533 52.8652 305.299C53.2637 305.064 53.9238 304.779 54.8457 304.443V304.232C54.8457 303.697 54.7598 303.33 54.5879 303.131C54.4199 302.932 54.1738 302.832 53.8496 302.832C53.6035 302.832 53.4082 302.898 53.2637 303.031C53.1152 303.164 53.041 303.316 53.041 303.488L53.0527 303.828C53.0527 304.008 53.0059 304.146 52.9121 304.244C52.8223 304.342 52.7031 304.391 52.5547 304.391C52.4102 304.391 52.291 304.34 52.1973 304.238C52.1074 304.137 52.0625 303.998 52.0625 303.822C52.0625 303.486 52.2344 303.178 52.5781 302.896C52.9219 302.615 53.4043 302.475 54.0254 302.475C54.502 302.475 54.8926 302.555 55.1973 302.715C55.4277 302.836 55.5977 303.025 55.707 303.283C55.7773 303.451 55.8125 303.795 55.8125 304.314V306.137C55.8125 306.648 55.8223 306.963 55.8418 307.08C55.8613 307.193 55.8926 307.27 55.9355 307.309C55.9824 307.348 56.0352 307.367 56.0938 307.367C56.1562 307.367 56.2109 307.354 56.2578 307.326C56.3398 307.275 56.498 307.133 56.7324 306.898V307.227C56.2949 307.812 55.877 308.105 55.4785 308.105C55.2871 308.105 55.1348 308.039 55.0215 307.906C54.9082 307.773 54.8496 307.547 54.8457 307.227ZM54.8457 306.846V304.801C54.2559 305.035 53.875 305.201 53.7031 305.299C53.3945 305.471 53.1738 305.65 53.041 305.838C52.9082 306.025 52.8418 306.23 52.8418 306.453C52.8418 306.734 52.9258 306.969 53.0938 307.156C53.2617 307.34 53.4551 307.432 53.6738 307.432C53.9707 307.432 54.3613 307.236 54.8457 306.846Z" fill="#D9B770" fill-opacity="0.8"/>
<path d="M32.6719 323.695V323.406H37.5V323.695H37.3125C36.9271 323.695 36.6719 323.792 36.5469 323.984C36.4219 324.177 36.3594 324.586 36.3594 325.211V332.375C36.3594 332.818 36.4115 333.086 36.5156 333.18C36.625 333.268 36.9167 333.312 37.3906 333.312H38.375C38.9948 333.312 39.3385 333.263 39.4062 333.164C39.4792 333.06 39.5156 332.797 39.5156 332.375V325.211C39.5156 324.586 39.4531 324.177 39.3281 323.984C39.2031 323.792 38.9453 323.695 38.5547 323.695H38.375V323.406H43.2031V323.695H43.0156C42.6302 323.695 42.375 323.792 42.25 323.984C42.125 324.172 42.0625 324.581 42.0625 325.211V332.203C42.0625 332.719 42.0885 333.034 42.1406 333.148C42.1979 333.258 42.5156 333.312 43.0938 333.312H44.3359C44.8203 333.312 45.0885 333.25 45.1406 333.125C45.1927 332.995 45.2188 332.719 45.2188 332.297V325.211C45.2188 324.596 45.1562 324.19 45.0312 323.992C44.9062 323.794 44.6484 323.695 44.2578 323.695H44.0781V323.406H48.8984V323.695H48.7188C48.3281 323.695 48.0703 323.794 47.9453 323.992C47.8203 324.185 47.7578 324.591 47.7578 325.211V332.203C47.7578 332.797 47.8125 333.198 47.9219 333.406C48.0312 333.609 48.2969 333.711 48.7188 333.711H48.8984V334H32.6719V333.711H32.8516C33.3255 333.711 33.6042 333.586 33.6875 333.336C33.7708 333.081 33.8125 332.667 33.8125 332.094V325.211C33.8125 324.581 33.7474 324.172 33.6172 323.984C33.4922 323.792 33.237 323.695 32.8516 323.695H32.6719ZM61.1644 326.695V326.984C60.6383 327.021 60.3753 327.375 60.3753 328.047V332.633C60.3753 332.992 60.4326 333.258 60.5472 333.43C60.667 333.596 60.8727 333.69 61.1644 333.711V334H57.4066V333.711C57.6826 333.69 57.8805 333.602 58.0003 333.445C58.1253 333.289 58.1878 333.018 58.1878 332.633V328.047C58.1878 327.688 58.1305 327.427 58.0159 327.266C57.9014 327.104 57.6982 327.01 57.4066 326.984V326.695H61.1644ZM49.8675 334V333.711C50.1696 333.669 50.3727 333.57 50.4769 333.414C50.5863 333.253 50.6409 332.958 50.6409 332.531V328.117C50.6409 327.721 50.5836 327.445 50.4691 327.289C50.3597 327.133 50.1592 327.031 49.8675 326.984V326.695H53.6019V326.984C53.2894 327.031 53.081 327.141 52.9769 327.312C52.8779 327.479 52.8284 327.784 52.8284 328.227V329.969H53.3909C54.6618 329.969 55.6201 330.151 56.2659 330.516C56.9118 330.875 57.2347 331.375 57.2347 332.016C57.2347 332.62 56.9482 333.102 56.3753 333.461C55.8024 333.82 54.9534 334 53.8284 334H49.8675ZM52.8284 330.461V332.734C52.8284 333.089 52.8857 333.307 53.0003 333.391C53.1201 333.474 53.2633 333.516 53.43 333.516C53.8363 333.516 54.1878 333.378 54.4847 333.102C54.7868 332.82 54.9378 332.443 54.9378 331.969C54.9378 330.964 54.2347 330.461 52.8284 330.461ZM62.0084 326.695H65.0631L66.9147 331.227L68.7663 326.695H71.7428V326.984C71.4564 327 71.2532 327.086 71.1334 327.242C71.0136 327.393 70.9538 327.667 70.9538 328.062V332.602C70.9538 333.013 71.0084 333.297 71.1178 333.453C71.2324 333.609 71.4407 333.695 71.7428 333.711V334H67.8913V333.711C68.2142 333.706 68.4407 333.62 68.5709 333.453C68.7011 333.286 68.7663 333.003 68.7663 332.602V327.922L66.2194 334H65.8209L63.3522 328.008V332.727C63.3522 333.065 63.4095 333.31 63.5241 333.461C63.6386 333.612 63.8626 333.695 64.1959 333.711V334H62.0084V333.711C62.3001 333.701 62.5058 333.62 62.6256 333.469C62.7506 333.312 62.8131 333.047 62.8131 332.672V328.008C62.8131 327.648 62.7532 327.393 62.6334 327.242C62.5136 327.086 62.3053 327 62.0084 326.984V326.695ZM72.5791 326.695H76.2978V326.984C76.0166 326.995 75.8265 327.073 75.7275 327.219C75.6338 327.365 75.5869 327.674 75.5869 328.148V329.945C76.1702 329.945 76.5686 329.852 76.7822 329.664C77.0009 329.471 77.2093 329.107 77.4072 328.57C77.6832 327.815 77.9619 327.294 78.2431 327.008C78.5296 326.716 78.9176 326.57 79.4072 326.57C79.8186 326.57 80.178 326.688 80.4853 326.922C80.7926 327.151 80.9463 327.456 80.9463 327.836C80.9463 328.128 80.8551 328.378 80.6728 328.586C80.4957 328.789 80.264 328.891 79.9775 328.891C79.389 328.891 79.0895 328.589 79.0791 327.984C79.0739 327.562 78.9827 327.352 78.8056 327.352C78.54 327.352 78.2718 327.708 78.0009 328.422C77.7822 329.005 77.6311 329.372 77.5478 329.523C77.4645 329.674 77.3213 329.841 77.1181 330.023C77.6442 330.128 78.0244 330.268 78.2588 330.445C78.4983 330.622 78.8108 331.026 79.1963 331.656L79.8916 332.773C80.2561 333.367 80.639 333.68 81.04 333.711V334H78.2275L76.0556 330.445H75.5869V332.477C75.5869 332.935 75.6416 333.253 75.7509 333.43C75.8603 333.602 76.0426 333.695 76.2978 333.711V334H72.5791V333.711C72.8239 333.706 73.0218 333.641 73.1728 333.516C73.3239 333.391 73.3994 333.073 73.3994 332.562V328.25C73.3994 327.766 73.3395 327.435 73.2197 327.258C73.1051 327.076 72.8916 326.984 72.5791 326.984V326.695ZM87.2434 330.086H83.2356C83.2825 331.055 83.5403 331.82 84.0091 332.383C84.3684 332.815 84.8007 333.031 85.3059 333.031C85.6184 333.031 85.9023 332.945 86.1575 332.773C86.4127 332.596 86.6861 332.281 86.9778 331.828L87.2434 332C86.8476 332.807 86.4101 333.38 85.9309 333.719C85.4518 334.052 84.8971 334.219 84.2669 334.219C83.1835 334.219 82.3632 333.802 81.8059 332.969C81.358 332.297 81.1341 331.464 81.1341 330.469C81.1341 329.25 81.4622 328.281 82.1184 327.562C82.7799 326.839 83.5533 326.477 84.4388 326.477C85.1783 326.477 85.819 326.781 86.3606 327.391C86.9075 327.995 87.2018 328.893 87.2434 330.086ZM85.3216 329.562C85.3216 328.724 85.2747 328.148 85.1809 327.836C85.0924 327.523 84.9518 327.286 84.7591 327.125C84.6497 327.031 84.5039 326.984 84.3216 326.984C84.0507 326.984 83.8294 327.117 83.6575 327.383C83.3502 327.846 83.1966 328.482 83.1966 329.289V329.562H85.3216ZM87.8531 334V333.711C88.1552 333.711 88.3661 333.635 88.4859 333.484C88.6109 333.328 88.6734 333.034 88.6734 332.602V328.117C88.6734 327.659 88.6135 327.357 88.4938 327.211C88.374 327.06 88.1604 326.984 87.8531 326.984V326.695H91.5719V326.984C91.3115 326.995 91.1266 327.062 91.0172 327.188C90.913 327.312 90.8609 327.596 90.8609 328.039V329.969H92.9547V328.039C92.9547 327.674 92.9156 327.409 92.8375 327.242C92.7594 327.07 92.5641 326.984 92.2516 326.984V326.695H95.9625V326.984C95.6604 326.984 95.4469 327.06 95.3219 327.211C95.2021 327.357 95.1422 327.604 95.1422 327.953V332.602C95.1422 333.06 95.2021 333.357 95.3219 333.492C95.4417 333.628 95.6552 333.701 95.9625 333.711V334H92.2516V333.711C92.512 333.706 92.6943 333.646 92.7984 333.531C92.9026 333.411 92.9547 333.12 92.9547 332.656V330.461H90.8609V332.602C90.8609 333.065 90.913 333.367 91.0172 333.508C91.1266 333.643 91.3115 333.711 91.5719 333.711V334H87.8531ZM98.2206 334V333.711C98.5331 333.711 98.7467 333.63 98.8613 333.469C98.981 333.307 99.0409 332.987 99.0409 332.508V327.188H98.3144C97.804 327.188 97.4498 327.279 97.2519 327.461C97.054 327.643 96.8977 328.023 96.7831 328.602H96.4941V326.695H103.775V328.602H103.486C103.393 328.081 103.254 327.716 103.072 327.508C102.89 327.294 102.523 327.188 101.971 327.188H101.228V332.508C101.228 333.003 101.286 333.326 101.4 333.477C101.52 333.628 101.736 333.706 102.049 333.711V334H98.2206ZM108.221 336.805V336.461C108.825 336.201 109.263 335.862 109.534 335.445C109.81 335.034 109.948 334.612 109.948 334.18C109.948 334.091 109.93 334.023 109.893 333.977C109.857 333.935 109.82 333.914 109.784 333.914C109.753 333.914 109.706 333.932 109.643 333.969C109.492 334.057 109.305 334.102 109.081 334.102C108.773 334.102 108.505 333.982 108.276 333.742C108.052 333.503 107.94 333.221 107.94 332.898C107.94 332.555 108.07 332.253 108.331 331.992C108.591 331.732 108.906 331.602 109.276 331.602C109.724 331.602 110.107 331.776 110.424 332.125C110.742 332.469 110.901 332.943 110.901 333.547C110.901 334.292 110.674 334.953 110.221 335.531C109.773 336.109 109.107 336.534 108.221 336.805ZM126.659 328.664C126.659 330.008 126.266 331.19 125.48 332.211C124.438 333.565 122.967 334.242 121.066 334.242C119.159 334.242 117.685 333.596 116.644 332.305C115.821 331.284 115.409 330.073 115.409 328.672C115.409 327.099 115.946 325.786 117.019 324.734C118.024 323.75 119.339 323.258 120.964 323.258C122.719 323.258 124.092 323.75 125.081 324.734C126.133 325.781 126.659 327.091 126.659 328.664ZM123.831 328.219C123.769 326.141 123.31 324.797 122.456 324.188C122.055 323.901 121.589 323.758 121.058 323.758C119.277 323.758 118.336 325.245 118.238 328.219H123.831ZM123.839 328.906H118.23C118.251 330.63 118.568 331.911 119.183 332.75C119.626 333.354 120.245 333.656 121.042 333.656C122.188 333.656 122.993 332.992 123.456 331.664C123.706 330.951 123.834 330.031 123.839 328.906ZM128.933 334V333.711C129.246 333.711 129.459 333.63 129.574 333.469C129.694 333.307 129.753 332.987 129.753 332.508V327.188H129.027C128.516 327.188 128.162 327.279 127.964 327.461C127.766 327.643 127.61 328.023 127.496 328.602H127.207V326.695H134.488V328.602H134.199C134.105 328.081 133.967 327.716 133.785 327.508C133.602 327.294 133.235 327.188 132.683 327.188H131.941V332.508C131.941 333.003 131.998 333.326 132.113 333.477C132.233 333.628 132.449 333.706 132.761 333.711V334H128.933ZM141.183 330.086H137.176C137.223 331.055 137.48 331.82 137.949 332.383C138.308 332.815 138.741 333.031 139.246 333.031C139.558 333.031 139.842 332.945 140.098 332.773C140.353 332.596 140.626 332.281 140.918 331.828L141.183 332C140.788 332.807 140.35 333.38 139.871 333.719C139.392 334.052 138.837 334.219 138.207 334.219C137.124 334.219 136.303 333.802 135.746 332.969C135.298 332.297 135.074 331.464 135.074 330.469C135.074 329.25 135.402 328.281 136.058 327.562C136.72 326.839 137.493 326.477 138.379 326.477C139.118 326.477 139.759 326.781 140.301 327.391C140.848 327.995 141.142 328.893 141.183 330.086ZM139.262 329.562C139.262 328.724 139.215 328.148 139.121 327.836C139.032 327.523 138.892 327.286 138.699 327.125C138.59 327.031 138.444 326.984 138.262 326.984C137.991 326.984 137.769 327.117 137.598 327.383C137.29 327.846 137.137 328.482 137.137 329.289V329.562H139.262ZM141.809 333.711C142.111 333.69 142.322 333.612 142.442 333.477C142.561 333.336 142.621 333.06 142.621 332.648V328.008C142.621 327.638 142.564 327.383 142.449 327.242C142.34 327.096 142.126 327.01 141.809 326.984V326.695H148.231V328.602H147.942C147.822 328.008 147.658 327.625 147.449 327.453C147.241 327.276 146.843 327.188 146.254 327.188H144.809V332.695C144.809 333.06 144.869 333.318 144.988 333.469C145.108 333.62 145.35 333.701 145.715 333.711V334H141.809V333.711ZM154.7 330.086H150.692C150.739 331.055 150.997 331.82 151.465 332.383C151.825 332.815 152.257 333.031 152.762 333.031C153.075 333.031 153.359 332.945 153.614 332.773C153.869 332.596 154.142 332.281 154.434 331.828L154.7 332C154.304 332.807 153.866 333.38 153.387 333.719C152.908 334.052 152.353 334.219 151.723 334.219C150.64 334.219 149.819 333.802 149.262 332.969C148.814 332.297 148.59 331.464 148.59 330.469C148.59 329.25 148.918 328.281 149.575 327.562C150.236 326.839 151.01 326.477 151.895 326.477C152.635 326.477 153.275 326.781 153.817 327.391C154.364 327.995 154.658 328.893 154.7 330.086ZM152.778 329.562C152.778 328.724 152.731 328.148 152.637 327.836C152.549 327.523 152.408 327.286 152.215 327.125C152.106 327.031 151.96 326.984 151.778 326.984C151.507 326.984 151.286 327.117 151.114 327.383C150.806 327.846 150.653 328.482 150.653 329.289V329.562H152.778ZM155.309 334V333.711C155.611 333.711 155.822 333.635 155.942 333.484C156.067 333.328 156.13 333.034 156.13 332.602V328.117C156.13 327.659 156.07 327.357 155.95 327.211C155.83 327.06 155.617 326.984 155.309 326.984V326.695H159.028V326.984C158.768 326.995 158.583 327.062 158.473 327.188C158.369 327.312 158.317 327.596 158.317 328.039V329.969H160.411V328.039C160.411 327.674 160.372 327.409 160.294 327.242C160.216 327.07 160.02 326.984 159.708 326.984V326.695H163.419V326.984C163.117 326.984 162.903 327.06 162.778 327.211C162.658 327.357 162.598 327.604 162.598 327.953V332.602C162.598 333.06 162.658 333.357 162.778 333.492C162.898 333.628 163.111 333.701 163.419 333.711V334H159.708V333.711C159.968 333.706 160.151 333.646 160.255 333.531C160.359 333.411 160.411 333.12 160.411 332.656V330.461H158.317V332.602C158.317 333.065 158.369 333.367 158.473 333.508C158.583 333.643 158.768 333.711 159.028 333.711V334H155.309ZM167.646 326.477C168.281 326.477 168.872 326.641 169.419 326.969C169.966 327.297 170.38 327.763 170.661 328.367C170.948 328.971 171.091 329.633 171.091 330.352C171.091 331.388 170.828 332.255 170.302 332.953C169.666 333.797 168.789 334.219 167.669 334.219C166.57 334.219 165.724 333.833 165.13 333.062C164.536 332.292 164.239 331.398 164.239 330.383C164.239 329.336 164.541 328.424 165.146 327.648C165.755 326.867 166.588 326.477 167.646 326.477ZM167.677 327.031C167.411 327.031 167.182 327.133 166.989 327.336C166.802 327.534 166.677 327.93 166.614 328.523C166.557 329.112 166.528 329.932 166.528 330.984C166.528 331.542 166.565 332.062 166.638 332.547C166.695 332.917 166.818 333.198 167.005 333.391C167.193 333.583 167.406 333.68 167.646 333.68C167.88 333.68 168.075 333.615 168.232 333.484C168.435 333.307 168.57 333.06 168.638 332.742C168.742 332.247 168.794 331.247 168.794 329.742C168.794 328.857 168.745 328.25 168.646 327.922C168.547 327.589 168.401 327.346 168.208 327.195C168.073 327.086 167.896 327.031 167.677 327.031ZM171.505 326.695H175.537C176.38 326.695 177.07 326.849 177.607 327.156C178.143 327.458 178.412 327.909 178.412 328.508C178.412 329.315 177.854 329.859 176.74 330.141C178.245 330.318 178.997 330.948 178.997 332.031C178.997 332.688 178.693 333.18 178.083 333.508C177.474 333.836 176.638 334 175.576 334H171.505V333.711C171.865 333.674 172.086 333.591 172.169 333.461C172.258 333.331 172.302 333.076 172.302 332.695V328.344C172.302 327.755 172.253 327.388 172.154 327.242C172.06 327.096 171.844 327.01 171.505 326.984V326.695ZM174.599 329.953C175.839 329.917 176.458 329.456 176.458 328.57C176.458 327.664 175.839 327.203 174.599 327.188V329.953ZM174.599 330.445V332.844C174.599 333.089 174.638 333.263 174.716 333.367C174.794 333.466 174.964 333.516 175.224 333.516C175.662 333.516 176.034 333.362 176.341 333.055C176.649 332.747 176.802 332.357 176.802 331.883C176.802 331.383 176.63 331.018 176.287 330.789C175.948 330.56 175.386 330.445 174.599 330.445ZM190.451 323.188V323.406C189.509 323.646 188.751 323.956 188.178 324.336C187.61 324.711 187.16 325.169 186.826 325.711C186.498 326.247 186.243 326.914 186.061 327.711C186.29 327.555 186.48 327.453 186.631 327.406C186.969 327.302 187.311 327.25 187.654 327.25C188.446 327.25 189.105 327.539 189.631 328.117C190.162 328.69 190.428 329.474 190.428 330.469C190.428 331.167 190.285 331.807 189.998 332.391C189.712 332.974 189.305 333.424 188.779 333.742C188.253 334.06 187.691 334.219 187.092 334.219C186.441 334.219 185.839 334.042 185.287 333.688C184.735 333.328 184.303 332.805 183.99 332.117C183.683 331.43 183.529 330.682 183.529 329.875C183.529 328.688 183.813 327.583 184.381 326.562C184.954 325.536 185.764 324.721 186.811 324.117C187.863 323.508 189.076 323.198 190.451 323.188ZM185.959 328.344C185.917 329.062 185.897 329.589 185.897 329.922C185.897 330.641 185.964 331.336 186.1 332.008C186.24 332.68 186.43 333.151 186.67 333.422C186.842 333.615 187.045 333.711 187.279 333.711C187.519 333.711 187.732 333.573 187.92 333.297C188.107 333.016 188.201 332.448 188.201 331.594C188.201 330.156 188.027 329.164 187.678 328.617C187.454 328.263 187.152 328.086 186.772 328.086C186.563 328.086 186.292 328.172 185.959 328.344ZM198.03 328.703C198.03 329.76 197.881 330.747 197.584 331.664C197.407 332.227 197.168 332.688 196.866 333.047C196.569 333.406 196.23 333.693 195.85 333.906C195.47 334.115 195.056 334.219 194.608 334.219C194.097 334.219 193.636 334.089 193.225 333.828C192.814 333.568 192.449 333.195 192.131 332.711C191.902 332.357 191.702 331.885 191.53 331.297C191.306 330.5 191.194 329.677 191.194 328.828C191.194 327.677 191.355 326.62 191.678 325.656C191.944 324.859 192.347 324.25 192.889 323.828C193.431 323.401 194.004 323.188 194.608 323.188C195.222 323.188 195.795 323.398 196.327 323.82C196.863 324.237 197.256 324.799 197.506 325.508C197.855 326.482 198.03 327.547 198.03 328.703ZM195.623 328.688C195.623 326.833 195.613 325.753 195.592 325.445C195.54 324.721 195.415 324.232 195.217 323.977C195.087 323.81 194.876 323.727 194.584 323.727C194.36 323.727 194.183 323.789 194.053 323.914C193.86 324.096 193.73 324.419 193.663 324.883C193.595 325.341 193.561 326.948 193.561 329.703C193.561 331.203 193.613 332.208 193.717 332.719C193.795 333.089 193.907 333.336 194.053 333.461C194.199 333.586 194.392 333.648 194.631 333.648C194.892 333.648 195.087 333.565 195.217 333.398C195.436 333.107 195.561 332.656 195.592 332.047L195.623 328.688ZM200.663 328.688V328.414C201.257 328.242 201.668 328.083 201.897 327.938C202.126 327.786 202.324 327.56 202.491 327.258C202.658 326.951 202.741 326.641 202.741 326.328C202.741 325.896 202.582 325.526 202.264 325.219C201.952 324.906 201.561 324.75 201.092 324.75C200.363 324.75 199.744 325.135 199.233 325.906L198.944 325.805C199.319 324.935 199.798 324.281 200.382 323.844C200.97 323.406 201.624 323.188 202.342 323.188C203.077 323.188 203.681 323.411 204.155 323.859C204.634 324.307 204.874 324.831 204.874 325.43C204.874 325.82 204.762 326.198 204.538 326.562C204.319 326.922 203.973 327.24 203.499 327.516C204.108 327.812 204.572 328.18 204.889 328.617C205.212 329.049 205.374 329.594 205.374 330.25C205.374 331.354 204.973 332.294 204.171 333.07C203.374 333.841 202.303 334.227 200.96 334.227C200.064 334.227 199.41 334.078 198.999 333.781C198.702 333.573 198.553 333.305 198.553 332.977C198.553 332.737 198.639 332.534 198.811 332.367C198.983 332.195 199.181 332.109 199.405 332.109C199.577 332.109 199.738 332.146 199.889 332.219C199.973 332.26 200.267 332.49 200.772 332.906C201.283 333.318 201.759 333.523 202.202 333.523C202.587 333.523 202.918 333.372 203.194 333.07C203.47 332.763 203.608 332.375 203.608 331.906C203.608 331.193 203.358 330.536 202.858 329.938C202.358 329.333 201.626 328.917 200.663 328.688ZM210.468 323.164L206.991 334.242H205.991L209.483 323.164H210.468ZM215.562 328.016C216.307 328.562 216.822 329.073 217.109 329.547C217.4 330.016 217.546 330.555 217.546 331.164C217.546 332.018 217.223 332.742 216.577 333.336C215.937 333.924 215.064 334.219 213.96 334.219C212.913 334.219 212.104 333.961 211.531 333.445C210.958 332.93 210.671 332.299 210.671 331.555C210.671 330.987 210.835 330.49 211.163 330.062C211.497 329.635 212.049 329.245 212.82 328.891C211.981 328.25 211.442 327.727 211.202 327.32C210.968 326.914 210.851 326.443 210.851 325.906C210.851 325.198 211.15 324.576 211.749 324.039C212.354 323.497 213.179 323.227 214.226 323.227C215.236 323.227 216.012 323.466 216.554 323.945C217.101 324.419 217.374 324.99 217.374 325.656C217.374 326.156 217.226 326.599 216.929 326.984C216.637 327.365 216.182 327.708 215.562 328.016ZM214.968 327.617C215.161 327.357 215.304 327.065 215.398 326.742C215.492 326.419 215.538 326.065 215.538 325.68C215.538 325.003 215.393 324.484 215.101 324.125C214.882 323.849 214.58 323.711 214.195 323.711C213.846 323.711 213.549 323.839 213.304 324.094C213.059 324.344 212.937 324.656 212.937 325.031C212.937 325.411 213.072 325.807 213.343 326.219C213.619 326.625 214.161 327.091 214.968 327.617ZM213.406 329.266C213.244 329.411 213.13 329.544 213.062 329.664C212.958 329.846 212.864 330.112 212.781 330.461C212.697 330.81 212.656 331.174 212.656 331.555C212.656 332.044 212.718 332.456 212.843 332.789C212.968 333.117 213.145 333.354 213.374 333.5C213.609 333.646 213.848 333.719 214.093 333.719C214.473 333.719 214.794 333.581 215.054 333.305C215.314 333.023 215.445 332.641 215.445 332.156C215.445 331.146 214.765 330.182 213.406 329.266Z" fill="#D9B770"/>
<path d="M0 186H270.5" stroke="#D9B770" stroke-linecap="round" stroke-dasharray="15 15"/>
<path d="M-0.5 168.5C8.88884 168.5 16.5 176.111 16.5 185.5C16.5 194.889 8.88884 202.5 -0.5 202.5C-9.88884 202.5 -17.5 194.889 -17.5 185.5C-17.5 176.111 -9.88884 168.5 -0.5 168.5Z" fill="white" stroke="#D9B770"/>
<path d="M269.5 168.5C278.889 168.5 286.5 176.111 286.5 185.5C286.5 194.889 278.889 202.5 269.5 202.5C260.111 202.5 252.5 194.889 252.5 185.5C252.5 176.111 260.111 168.5 269.5 168.5Z" fill="white" stroke="#D9B770"/>
</g>
<rect x="0.5" y="0.5" width="269" height="518" rx="19.5" stroke="#D9B770"/>
<defs>
<clipPath id="clip0_136_2">
<rect width="270" height="519" rx="20" fill="white"/>
</clipPath>
</defs>
</svg>
