<svg width="34" height="41" viewBox="0 0 34 41" fill="none" xmlns="http://www.w3.org/2000/svg">
<path fill-rule="evenodd" clip-rule="evenodd" d="M15.7637 40.6266L15.904 40.7064L15.9601 40.7384C16.1826 40.8582 16.4316 40.9209 16.6846 40.9209C16.9375 40.9209 17.1865 40.8582 17.409 40.7384L17.4652 40.7084L17.6075 40.6266C18.3913 40.1637 19.1561 39.6696 19.9002 39.1455C21.8263 37.7912 23.6259 36.2667 25.2772 34.5906C29.1732 30.6185 33.2195 24.6505 33.2195 16.9718C33.2195 12.6044 31.4775 8.41594 28.3768 5.32775C25.2761 2.23956 21.0706 0.504639 16.6856 0.504639C12.3005 0.504639 8.09501 2.23956 4.99429 5.32775C1.89358 8.41594 0.151611 12.6044 0.151611 16.9718C0.151611 24.6485 4.19992 30.6185 8.09392 34.5906C9.74459 36.2666 11.5435 37.7911 13.469 39.1455C14.2136 39.6696 14.9791 40.1637 15.7637 40.6266ZM16.6856 22.9598C18.2801 22.9598 19.8094 22.3289 20.9369 21.206C22.0645 20.083 22.6979 18.5599 22.6979 16.9718C22.6979 15.3836 22.0645 13.8606 20.9369 12.7376C19.8094 11.6146 18.2801 10.9837 16.6856 10.9837C15.091 10.9837 13.5617 11.6146 12.4342 12.7376C11.3067 13.8606 10.6732 15.3836 10.6732 16.9718C10.6732 18.5599 11.3067 20.083 12.4342 21.206C13.5617 22.3289 15.091 22.9598 16.6856 22.9598Z" fill="#D9B770"/>
</svg>
